<?xml version="1.0" encoding="utf-8" standalone="no"?>
<!DOCTYPE svg PUBLIC "-//W3C//DTD SVG 1.1//EN"
  "http://www.w3.org/Graphics/SVG/1.1/DTD/svg11.dtd">
<svg xmlns:xlink="http://www.w3.org/1999/xlink" width="864pt" height="360pt" viewBox="0 0 864 360" xmlns="http://www.w3.org/2000/svg" version="1.1">
 <metadata>
  <rdf:RDF xmlns:dc="http://purl.org/dc/elements/1.1/" xmlns:cc="http://creativecommons.org/ns#" xmlns:rdf="http://www.w3.org/1999/02/22-rdf-syntax-ns#">
   <cc:Work>
    <dc:type rdf:resource="http://purl.org/dc/dcmitype/StillImage"/>
    <dc:date>2025-06-11T19:28:20.056348</dc:date>
    <dc:format>image/svg+xml</dc:format>
    <dc:creator>
     <cc:Agent>
      <dc:title>Matplotlib v3.10.3, https://matplotlib.org/</dc:title>
     </cc:Agent>
    </dc:creator>
   </cc:Work>
  </rdf:RDF>
 </metadata>
 <defs>
  <style type="text/css">*{stroke-linejoin: round; stroke-linecap: butt}</style>
 </defs>
 <g id="figure_1">
  <g id="patch_1">
   <path d="M 0 360 
L 864 360 
L 864 0 
L 0 0 
z
" style="fill: #ffffff"/>
  </g>
  <g id="axes_1">
   <g id="patch_2">
    <path d="M 108 320.4 
L 777.6 320.4 
L 777.6 43.2 
L 108 43.2 
z
" style="fill: #ffffff"/>
   </g>
   <g id="matplotlib.axis_1">
    <g id="xtick_1">
     <g id="line2d_1">
      <path d="M 138.436364 320.4 
L 138.436364 43.2 
" clip-path="url(#peca17029d1)" style="fill: none; stroke: #b0b0b0; stroke-width: 0.8; stroke-linecap: square"/>
     </g>
     <g id="line2d_2">
      <defs>
       <path id="m5f433e69fb" d="M 0 0 
L 0 3.5 
" style="stroke: #000000; stroke-width: 0.8"/>
      </defs>
      <g>
       <use xlink:href="#m5f433e69fb" x="138.436364" y="320.4" style="stroke: #000000; stroke-width: 0.8"/>
      </g>
     </g>
     <g id="text_1">
      <!-- 2015 -->
      <g transform="translate(125.711364 334.998438) scale(0.1 -0.1)">
       <defs>
        <path id="DejaVuSans-32" d="M 1228 531 
L 3431 531 
L 3431 0 
L 469 0 
L 469 531 
Q 828 903 1448 1529 
Q 2069 2156 2228 2338 
Q 2531 2678 2651 2914 
Q 2772 3150 2772 3378 
Q 2772 3750 2511 3984 
Q 2250 4219 1831 4219 
Q 1534 4219 1204 4116 
Q 875 4013 500 3803 
L 500 4441 
Q 881 4594 1212 4672 
Q 1544 4750 1819 4750 
Q 2544 4750 2975 4387 
Q 3406 4025 3406 3419 
Q 3406 3131 3298 2873 
Q 3191 2616 2906 2266 
Q 2828 2175 2409 1742 
Q 1991 1309 1228 531 
z
" transform="scale(0.015625)"/>
        <path id="DejaVuSans-30" d="M 2034 4250 
Q 1547 4250 1301 3770 
Q 1056 3291 1056 2328 
Q 1056 1369 1301 889 
Q 1547 409 2034 409 
Q 2525 409 2770 889 
Q 3016 1369 3016 2328 
Q 3016 3291 2770 3770 
Q 2525 4250 2034 4250 
z
M 2034 4750 
Q 2819 4750 3233 4129 
Q 3647 3509 3647 2328 
Q 3647 1150 3233 529 
Q 2819 -91 2034 -91 
Q 1250 -91 836 529 
Q 422 1150 422 2328 
Q 422 3509 836 4129 
Q 1250 4750 2034 4750 
z
" transform="scale(0.015625)"/>
        <path id="DejaVuSans-31" d="M 794 531 
L 1825 531 
L 1825 4091 
L 703 3866 
L 703 4441 
L 1819 4666 
L 2450 4666 
L 2450 531 
L 3481 531 
L 3481 0 
L 794 0 
L 794 531 
z
" transform="scale(0.015625)"/>
        <path id="DejaVuSans-35" d="M 691 4666 
L 3169 4666 
L 3169 4134 
L 1269 4134 
L 1269 2991 
Q 1406 3038 1543 3061 
Q 1681 3084 1819 3084 
Q 2600 3084 3056 2656 
Q 3513 2228 3513 1497 
Q 3513 744 3044 326 
Q 2575 -91 1722 -91 
Q 1428 -91 1123 -41 
Q 819 9 494 109 
L 494 744 
Q 775 591 1075 516 
Q 1375 441 1709 441 
Q 2250 441 2565 725 
Q 2881 1009 2881 1497 
Q 2881 1984 2565 2268 
Q 2250 2553 1709 2553 
Q 1456 2553 1204 2497 
Q 953 2441 691 2322 
L 691 4666 
z
" transform="scale(0.015625)"/>
       </defs>
       <use xlink:href="#DejaVuSans-32"/>
       <use xlink:href="#DejaVuSans-30" transform="translate(63.623047 0)"/>
       <use xlink:href="#DejaVuSans-31" transform="translate(127.246094 0)"/>
       <use xlink:href="#DejaVuSans-35" transform="translate(190.869141 0)"/>
      </g>
     </g>
    </g>
    <g id="xtick_2">
     <g id="line2d_3">
      <path d="M 260.181818 320.4 
L 260.181818 43.2 
" clip-path="url(#peca17029d1)" style="fill: none; stroke: #b0b0b0; stroke-width: 0.8; stroke-linecap: square"/>
     </g>
     <g id="line2d_4">
      <g>
       <use xlink:href="#m5f433e69fb" x="260.181818" y="320.4" style="stroke: #000000; stroke-width: 0.8"/>
      </g>
     </g>
     <g id="text_2">
      <!-- 2016 -->
      <g transform="translate(247.456818 334.998438) scale(0.1 -0.1)">
       <defs>
        <path id="DejaVuSans-36" d="M 2113 2584 
Q 1688 2584 1439 2293 
Q 1191 2003 1191 1497 
Q 1191 994 1439 701 
Q 1688 409 2113 409 
Q 2538 409 2786 701 
Q 3034 994 3034 1497 
Q 3034 2003 2786 2293 
Q 2538 2584 2113 2584 
z
M 3366 4563 
L 3366 3988 
Q 3128 4100 2886 4159 
Q 2644 4219 2406 4219 
Q 1781 4219 1451 3797 
Q 1122 3375 1075 2522 
Q 1259 2794 1537 2939 
Q 1816 3084 2150 3084 
Q 2853 3084 3261 2657 
Q 3669 2231 3669 1497 
Q 3669 778 3244 343 
Q 2819 -91 2113 -91 
Q 1303 -91 875 529 
Q 447 1150 447 2328 
Q 447 3434 972 4092 
Q 1497 4750 2381 4750 
Q 2619 4750 2861 4703 
Q 3103 4656 3366 4563 
z
" transform="scale(0.015625)"/>
       </defs>
       <use xlink:href="#DejaVuSans-32"/>
       <use xlink:href="#DejaVuSans-30" transform="translate(63.623047 0)"/>
       <use xlink:href="#DejaVuSans-31" transform="translate(127.246094 0)"/>
       <use xlink:href="#DejaVuSans-36" transform="translate(190.869141 0)"/>
      </g>
     </g>
    </g>
    <g id="xtick_3">
     <g id="line2d_5">
      <path d="M 382.260822 320.4 
L 382.260822 43.2 
" clip-path="url(#peca17029d1)" style="fill: none; stroke: #b0b0b0; stroke-width: 0.8; stroke-linecap: square"/>
     </g>
     <g id="line2d_6">
      <g>
       <use xlink:href="#m5f433e69fb" x="382.260822" y="320.4" style="stroke: #000000; stroke-width: 0.8"/>
      </g>
     </g>
     <g id="text_3">
      <!-- 2017 -->
      <g transform="translate(369.535822 334.998438) scale(0.1 -0.1)">
       <defs>
        <path id="DejaVuSans-37" d="M 525 4666 
L 3525 4666 
L 3525 4397 
L 1831 0 
L 1172 0 
L 2766 4134 
L 525 4134 
L 525 4666 
z
" transform="scale(0.015625)"/>
       </defs>
       <use xlink:href="#DejaVuSans-32"/>
       <use xlink:href="#DejaVuSans-30" transform="translate(63.623047 0)"/>
       <use xlink:href="#DejaVuSans-31" transform="translate(127.246094 0)"/>
       <use xlink:href="#DejaVuSans-37" transform="translate(190.869141 0)"/>
      </g>
     </g>
    </g>
    <g id="xtick_4">
     <g id="line2d_7">
      <path d="M 504.006276 320.4 
L 504.006276 43.2 
" clip-path="url(#peca17029d1)" style="fill: none; stroke: #b0b0b0; stroke-width: 0.8; stroke-linecap: square"/>
     </g>
     <g id="line2d_8">
      <g>
       <use xlink:href="#m5f433e69fb" x="504.006276" y="320.4" style="stroke: #000000; stroke-width: 0.8"/>
      </g>
     </g>
     <g id="text_4">
      <!-- 2018 -->
      <g transform="translate(491.281276 334.998438) scale(0.1 -0.1)">
       <defs>
        <path id="DejaVuSans-38" d="M 2034 2216 
Q 1584 2216 1326 1975 
Q 1069 1734 1069 1313 
Q 1069 891 1326 650 
Q 1584 409 2034 409 
Q 2484 409 2743 651 
Q 3003 894 3003 1313 
Q 3003 1734 2745 1975 
Q 2488 2216 2034 2216 
z
M 1403 2484 
Q 997 2584 770 2862 
Q 544 3141 544 3541 
Q 544 4100 942 4425 
Q 1341 4750 2034 4750 
Q 2731 4750 3128 4425 
Q 3525 4100 3525 3541 
Q 3525 3141 3298 2862 
Q 3072 2584 2669 2484 
Q 3125 2378 3379 2068 
Q 3634 1759 3634 1313 
Q 3634 634 3220 271 
Q 2806 -91 2034 -91 
Q 1263 -91 848 271 
Q 434 634 434 1313 
Q 434 1759 690 2068 
Q 947 2378 1403 2484 
z
M 1172 3481 
Q 1172 3119 1398 2916 
Q 1625 2713 2034 2713 
Q 2441 2713 2670 2916 
Q 2900 3119 2900 3481 
Q 2900 3844 2670 4047 
Q 2441 4250 2034 4250 
Q 1625 4250 1398 4047 
Q 1172 3844 1172 3481 
z
" transform="scale(0.015625)"/>
       </defs>
       <use xlink:href="#DejaVuSans-32"/>
       <use xlink:href="#DejaVuSans-30" transform="translate(63.623047 0)"/>
       <use xlink:href="#DejaVuSans-31" transform="translate(127.246094 0)"/>
       <use xlink:href="#DejaVuSans-38" transform="translate(190.869141 0)"/>
      </g>
     </g>
    </g>
    <g id="xtick_5">
     <g id="line2d_9">
      <path d="M 625.751731 320.4 
L 625.751731 43.2 
" clip-path="url(#peca17029d1)" style="fill: none; stroke: #b0b0b0; stroke-width: 0.8; stroke-linecap: square"/>
     </g>
     <g id="line2d_10">
      <g>
       <use xlink:href="#m5f433e69fb" x="625.751731" y="320.4" style="stroke: #000000; stroke-width: 0.8"/>
      </g>
     </g>
     <g id="text_5">
      <!-- 2019 -->
      <g transform="translate(613.026731 334.998438) scale(0.1 -0.1)">
       <defs>
        <path id="DejaVuSans-39" d="M 703 97 
L 703 672 
Q 941 559 1184 500 
Q 1428 441 1663 441 
Q 2288 441 2617 861 
Q 2947 1281 2994 2138 
Q 2813 1869 2534 1725 
Q 2256 1581 1919 1581 
Q 1219 1581 811 2004 
Q 403 2428 403 3163 
Q 403 3881 828 4315 
Q 1253 4750 1959 4750 
Q 2769 4750 3195 4129 
Q 3622 3509 3622 2328 
Q 3622 1225 3098 567 
Q 2575 -91 1691 -91 
Q 1453 -91 1209 -44 
Q 966 3 703 97 
z
M 1959 2075 
Q 2384 2075 2632 2365 
Q 2881 2656 2881 3163 
Q 2881 3666 2632 3958 
Q 2384 4250 1959 4250 
Q 1534 4250 1286 3958 
Q 1038 3666 1038 3163 
Q 1038 2656 1286 2365 
Q 1534 2075 1959 2075 
z
" transform="scale(0.015625)"/>
       </defs>
       <use xlink:href="#DejaVuSans-32"/>
       <use xlink:href="#DejaVuSans-30" transform="translate(63.623047 0)"/>
       <use xlink:href="#DejaVuSans-31" transform="translate(127.246094 0)"/>
       <use xlink:href="#DejaVuSans-39" transform="translate(190.869141 0)"/>
      </g>
     </g>
    </g>
    <g id="xtick_6">
     <g id="line2d_11">
      <path d="M 747.497186 320.4 
L 747.497186 43.2 
" clip-path="url(#peca17029d1)" style="fill: none; stroke: #b0b0b0; stroke-width: 0.8; stroke-linecap: square"/>
     </g>
     <g id="line2d_12">
      <g>
       <use xlink:href="#m5f433e69fb" x="747.497186" y="320.4" style="stroke: #000000; stroke-width: 0.8"/>
      </g>
     </g>
     <g id="text_6">
      <!-- 2020 -->
      <g transform="translate(734.772186 334.998438) scale(0.1 -0.1)">
       <use xlink:href="#DejaVuSans-32"/>
       <use xlink:href="#DejaVuSans-30" transform="translate(63.623047 0)"/>
       <use xlink:href="#DejaVuSans-32" transform="translate(127.246094 0)"/>
       <use xlink:href="#DejaVuSans-30" transform="translate(190.869141 0)"/>
      </g>
     </g>
    </g>
    <g id="text_7">
     <!-- Év -->
     <g transform="translate(436.68125 348.676562) scale(0.1 -0.1)">
      <defs>
       <path id="DejaVuSans-c9" d="M 628 4666 
L 3578 4666 
L 3578 4134 
L 1259 4134 
L 1259 2753 
L 3481 2753 
L 3481 2222 
L 1259 2222 
L 1259 531 
L 3634 531 
L 3634 0 
L 628 0 
L 628 4666 
z
M 2268 5921 
L 2846 5921 
L 2134 5096 
L 1655 5096 
L 2268 5921 
z
" transform="scale(0.015625)"/>
       <path id="DejaVuSans-76" d="M 191 3500 
L 800 3500 
L 1894 563 
L 2988 3500 
L 3597 3500 
L 2284 0 
L 1503 0 
L 191 3500 
z
" transform="scale(0.015625)"/>
      </defs>
      <use xlink:href="#DejaVuSans-c9"/>
      <use xlink:href="#DejaVuSans-76" transform="translate(63.183594 0)"/>
     </g>
    </g>
   </g>
   <g id="matplotlib.axis_2">
    <g id="ytick_1">
     <g id="line2d_13">
      <path d="M 108 313.483836 
L 777.6 313.483836 
" clip-path="url(#peca17029d1)" style="fill: none; stroke: #b0b0b0; stroke-width: 0.8; stroke-linecap: square"/>
     </g>
     <g id="line2d_14">
      <defs>
       <path id="mdc75598b45" d="M 0 0 
L -3.5 0 
" style="stroke: #000000; stroke-width: 0.8"/>
      </defs>
      <g>
       <use xlink:href="#mdc75598b45" x="108" y="313.483836" style="stroke: #000000; stroke-width: 0.8"/>
      </g>
     </g>
     <g id="text_8">
      <!-- 15000 -->
      <g transform="translate(69.1875 317.283055) scale(0.1 -0.1)">
       <use xlink:href="#DejaVuSans-31"/>
       <use xlink:href="#DejaVuSans-35" transform="translate(63.623047 0)"/>
       <use xlink:href="#DejaVuSans-30" transform="translate(127.246094 0)"/>
       <use xlink:href="#DejaVuSans-30" transform="translate(190.869141 0)"/>
       <use xlink:href="#DejaVuSans-30" transform="translate(254.492188 0)"/>
      </g>
     </g>
    </g>
    <g id="ytick_2">
     <g id="line2d_15">
      <path d="M 108 272.098084 
L 777.6 272.098084 
" clip-path="url(#peca17029d1)" style="fill: none; stroke: #b0b0b0; stroke-width: 0.8; stroke-linecap: square"/>
     </g>
     <g id="line2d_16">
      <g>
       <use xlink:href="#mdc75598b45" x="108" y="272.098084" style="stroke: #000000; stroke-width: 0.8"/>
      </g>
     </g>
     <g id="text_9">
      <!-- 20000 -->
      <g transform="translate(69.1875 275.897303) scale(0.1 -0.1)">
       <use xlink:href="#DejaVuSans-32"/>
       <use xlink:href="#DejaVuSans-30" transform="translate(63.623047 0)"/>
       <use xlink:href="#DejaVuSans-30" transform="translate(127.246094 0)"/>
       <use xlink:href="#DejaVuSans-30" transform="translate(190.869141 0)"/>
       <use xlink:href="#DejaVuSans-30" transform="translate(254.492188 0)"/>
      </g>
     </g>
    </g>
    <g id="ytick_3">
     <g id="line2d_17">
      <path d="M 108 230.712331 
L 777.6 230.712331 
" clip-path="url(#peca17029d1)" style="fill: none; stroke: #b0b0b0; stroke-width: 0.8; stroke-linecap: square"/>
     </g>
     <g id="line2d_18">
      <g>
       <use xlink:href="#mdc75598b45" x="108" y="230.712331" style="stroke: #000000; stroke-width: 0.8"/>
      </g>
     </g>
     <g id="text_10">
      <!-- 25000 -->
      <g transform="translate(69.1875 234.51155) scale(0.1 -0.1)">
       <use xlink:href="#DejaVuSans-32"/>
       <use xlink:href="#DejaVuSans-35" transform="translate(63.623047 0)"/>
       <use xlink:href="#DejaVuSans-30" transform="translate(127.246094 0)"/>
       <use xlink:href="#DejaVuSans-30" transform="translate(190.869141 0)"/>
       <use xlink:href="#DejaVuSans-30" transform="translate(254.492188 0)"/>
      </g>
     </g>
    </g>
    <g id="ytick_4">
     <g id="line2d_19">
      <path d="M 108 189.326579 
L 777.6 189.326579 
" clip-path="url(#peca17029d1)" style="fill: none; stroke: #b0b0b0; stroke-width: 0.8; stroke-linecap: square"/>
     </g>
     <g id="line2d_20">
      <g>
       <use xlink:href="#mdc75598b45" x="108" y="189.326579" style="stroke: #000000; stroke-width: 0.8"/>
      </g>
     </g>
     <g id="text_11">
      <!-- 30000 -->
      <g transform="translate(69.1875 193.125797) scale(0.1 -0.1)">
       <defs>
        <path id="DejaVuSans-33" d="M 2597 2516 
Q 3050 2419 3304 2112 
Q 3559 1806 3559 1356 
Q 3559 666 3084 287 
Q 2609 -91 1734 -91 
Q 1441 -91 1130 -33 
Q 819 25 488 141 
L 488 750 
Q 750 597 1062 519 
Q 1375 441 1716 441 
Q 2309 441 2620 675 
Q 2931 909 2931 1356 
Q 2931 1769 2642 2001 
Q 2353 2234 1838 2234 
L 1294 2234 
L 1294 2753 
L 1863 2753 
Q 2328 2753 2575 2939 
Q 2822 3125 2822 3475 
Q 2822 3834 2567 4026 
Q 2313 4219 1838 4219 
Q 1578 4219 1281 4162 
Q 984 4106 628 3988 
L 628 4550 
Q 988 4650 1302 4700 
Q 1616 4750 1894 4750 
Q 2613 4750 3031 4423 
Q 3450 4097 3450 3541 
Q 3450 3153 3228 2886 
Q 3006 2619 2597 2516 
z
" transform="scale(0.015625)"/>
       </defs>
       <use xlink:href="#DejaVuSans-33"/>
       <use xlink:href="#DejaVuSans-30" transform="translate(63.623047 0)"/>
       <use xlink:href="#DejaVuSans-30" transform="translate(127.246094 0)"/>
       <use xlink:href="#DejaVuSans-30" transform="translate(190.869141 0)"/>
       <use xlink:href="#DejaVuSans-30" transform="translate(254.492188 0)"/>
      </g>
     </g>
    </g>
    <g id="ytick_5">
     <g id="line2d_21">
      <path d="M 108 147.940826 
L 777.6 147.940826 
" clip-path="url(#peca17029d1)" style="fill: none; stroke: #b0b0b0; stroke-width: 0.8; stroke-linecap: square"/>
     </g>
     <g id="line2d_22">
      <g>
       <use xlink:href="#mdc75598b45" x="108" y="147.940826" style="stroke: #000000; stroke-width: 0.8"/>
      </g>
     </g>
     <g id="text_12">
      <!-- 35000 -->
      <g transform="translate(69.1875 151.740045) scale(0.1 -0.1)">
       <use xlink:href="#DejaVuSans-33"/>
       <use xlink:href="#DejaVuSans-35" transform="translate(63.623047 0)"/>
       <use xlink:href="#DejaVuSans-30" transform="translate(127.246094 0)"/>
       <use xlink:href="#DejaVuSans-30" transform="translate(190.869141 0)"/>
       <use xlink:href="#DejaVuSans-30" transform="translate(254.492188 0)"/>
      </g>
     </g>
    </g>
    <g id="ytick_6">
     <g id="line2d_23">
      <path d="M 108 106.555073 
L 777.6 106.555073 
" clip-path="url(#peca17029d1)" style="fill: none; stroke: #b0b0b0; stroke-width: 0.8; stroke-linecap: square"/>
     </g>
     <g id="line2d_24">
      <g>
       <use xlink:href="#mdc75598b45" x="108" y="106.555073" style="stroke: #000000; stroke-width: 0.8"/>
      </g>
     </g>
     <g id="text_13">
      <!-- 40000 -->
      <g transform="translate(69.1875 110.354292) scale(0.1 -0.1)">
       <defs>
        <path id="DejaVuSans-34" d="M 2419 4116 
L 825 1625 
L 2419 1625 
L 2419 4116 
z
M 2253 4666 
L 3047 4666 
L 3047 1625 
L 3713 1625 
L 3713 1100 
L 3047 1100 
L 3047 0 
L 2419 0 
L 2419 1100 
L 313 1100 
L 313 1709 
L 2253 4666 
z
" transform="scale(0.015625)"/>
       </defs>
       <use xlink:href="#DejaVuSans-34"/>
       <use xlink:href="#DejaVuSans-30" transform="translate(63.623047 0)"/>
       <use xlink:href="#DejaVuSans-30" transform="translate(127.246094 0)"/>
       <use xlink:href="#DejaVuSans-30" transform="translate(190.869141 0)"/>
       <use xlink:href="#DejaVuSans-30" transform="translate(254.492188 0)"/>
      </g>
     </g>
    </g>
    <g id="ytick_7">
     <g id="line2d_25">
      <path d="M 108 65.169321 
L 777.6 65.169321 
" clip-path="url(#peca17029d1)" style="fill: none; stroke: #b0b0b0; stroke-width: 0.8; stroke-linecap: square"/>
     </g>
     <g id="line2d_26">
      <g>
       <use xlink:href="#mdc75598b45" x="108" y="65.169321" style="stroke: #000000; stroke-width: 0.8"/>
      </g>
     </g>
     <g id="text_14">
      <!-- 45000 -->
      <g transform="translate(69.1875 68.968539) scale(0.1 -0.1)">
       <use xlink:href="#DejaVuSans-34"/>
       <use xlink:href="#DejaVuSans-35" transform="translate(63.623047 0)"/>
       <use xlink:href="#DejaVuSans-30" transform="translate(127.246094 0)"/>
       <use xlink:href="#DejaVuSans-30" transform="translate(190.869141 0)"/>
       <use xlink:href="#DejaVuSans-30" transform="translate(254.492188 0)"/>
      </g>
     </g>
    </g>
    <g id="text_15">
     <!-- BUX Index -->
     <g transform="translate(63.107812 207.670312) rotate(-90) scale(0.1 -0.1)">
      <defs>
       <path id="DejaVuSans-42" d="M 1259 2228 
L 1259 519 
L 2272 519 
Q 2781 519 3026 730 
Q 3272 941 3272 1375 
Q 3272 1813 3026 2020 
Q 2781 2228 2272 2228 
L 1259 2228 
z
M 1259 4147 
L 1259 2741 
L 2194 2741 
Q 2656 2741 2882 2914 
Q 3109 3088 3109 3444 
Q 3109 3797 2882 3972 
Q 2656 4147 2194 4147 
L 1259 4147 
z
M 628 4666 
L 2241 4666 
Q 2963 4666 3353 4366 
Q 3744 4066 3744 3513 
Q 3744 3084 3544 2831 
Q 3344 2578 2956 2516 
Q 3422 2416 3680 2098 
Q 3938 1781 3938 1306 
Q 3938 681 3513 340 
Q 3088 0 2303 0 
L 628 0 
L 628 4666 
z
" transform="scale(0.015625)"/>
       <path id="DejaVuSans-55" d="M 556 4666 
L 1191 4666 
L 1191 1831 
Q 1191 1081 1462 751 
Q 1734 422 2344 422 
Q 2950 422 3222 751 
Q 3494 1081 3494 1831 
L 3494 4666 
L 4128 4666 
L 4128 1753 
Q 4128 841 3676 375 
Q 3225 -91 2344 -91 
Q 1459 -91 1007 375 
Q 556 841 556 1753 
L 556 4666 
z
" transform="scale(0.015625)"/>
       <path id="DejaVuSans-58" d="M 403 4666 
L 1081 4666 
L 2241 2931 
L 3406 4666 
L 4084 4666 
L 2584 2425 
L 4184 0 
L 3506 0 
L 2194 1984 
L 872 0 
L 191 0 
L 1856 2491 
L 403 4666 
z
" transform="scale(0.015625)"/>
       <path id="DejaVuSans-20" transform="scale(0.015625)"/>
       <path id="DejaVuSans-49" d="M 628 4666 
L 1259 4666 
L 1259 0 
L 628 0 
L 628 4666 
z
" transform="scale(0.015625)"/>
       <path id="DejaVuSans-6e" d="M 3513 2113 
L 3513 0 
L 2938 0 
L 2938 2094 
Q 2938 2591 2744 2837 
Q 2550 3084 2163 3084 
Q 1697 3084 1428 2787 
Q 1159 2491 1159 1978 
L 1159 0 
L 581 0 
L 581 3500 
L 1159 3500 
L 1159 2956 
Q 1366 3272 1645 3428 
Q 1925 3584 2291 3584 
Q 2894 3584 3203 3211 
Q 3513 2838 3513 2113 
z
" transform="scale(0.015625)"/>
       <path id="DejaVuSans-64" d="M 2906 2969 
L 2906 4863 
L 3481 4863 
L 3481 0 
L 2906 0 
L 2906 525 
Q 2725 213 2448 61 
Q 2172 -91 1784 -91 
Q 1150 -91 751 415 
Q 353 922 353 1747 
Q 353 2572 751 3078 
Q 1150 3584 1784 3584 
Q 2172 3584 2448 3432 
Q 2725 3281 2906 2969 
z
M 947 1747 
Q 947 1113 1208 752 
Q 1469 391 1925 391 
Q 2381 391 2643 752 
Q 2906 1113 2906 1747 
Q 2906 2381 2643 2742 
Q 2381 3103 1925 3103 
Q 1469 3103 1208 2742 
Q 947 2381 947 1747 
z
" transform="scale(0.015625)"/>
       <path id="DejaVuSans-65" d="M 3597 1894 
L 3597 1613 
L 953 1613 
Q 991 1019 1311 708 
Q 1631 397 2203 397 
Q 2534 397 2845 478 
Q 3156 559 3463 722 
L 3463 178 
Q 3153 47 2828 -22 
Q 2503 -91 2169 -91 
Q 1331 -91 842 396 
Q 353 884 353 1716 
Q 353 2575 817 3079 
Q 1281 3584 2069 3584 
Q 2775 3584 3186 3129 
Q 3597 2675 3597 1894 
z
M 3022 2063 
Q 3016 2534 2758 2815 
Q 2500 3097 2075 3097 
Q 1594 3097 1305 2825 
Q 1016 2553 972 2059 
L 3022 2063 
z
" transform="scale(0.015625)"/>
       <path id="DejaVuSans-78" d="M 3513 3500 
L 2247 1797 
L 3578 0 
L 2900 0 
L 1881 1375 
L 863 0 
L 184 0 
L 1544 1831 
L 300 3500 
L 978 3500 
L 1906 2253 
L 2834 3500 
L 3513 3500 
z
" transform="scale(0.015625)"/>
      </defs>
      <use xlink:href="#DejaVuSans-42"/>
      <use xlink:href="#DejaVuSans-55" transform="translate(68.603516 0)"/>
      <use xlink:href="#DejaVuSans-58" transform="translate(141.796875 0)"/>
      <use xlink:href="#DejaVuSans-20" transform="translate(210.302734 0)"/>
      <use xlink:href="#DejaVuSans-49" transform="translate(242.089844 0)"/>
      <use xlink:href="#DejaVuSans-6e" transform="translate(271.582031 0)"/>
      <use xlink:href="#DejaVuSans-64" transform="translate(334.960938 0)"/>
      <use xlink:href="#DejaVuSans-65" transform="translate(398.4375 0)"/>
      <use xlink:href="#DejaVuSans-78" transform="translate(458.210938 0)"/>
     </g>
    </g>
   </g>
   <g id="line2d_27">
    <path d="M 138.436364 300.563784 
L 139.77056 301.773324 
L 140.10411 303.76969 
L 140.437659 303.622688 
L 140.771208 301.550834 
L 141.104757 303.362951 
L 142.438954 304.045733 
L 142.772503 304.659318 
L 143.106052 307.8 
L 143.439601 307.227138 
L 144.440249 306.841092 
L 144.773798 303.013158 
L 145.107347 301.958484 
L 145.440897 298.776416 
L 145.774446 298.923501 
L 147.108643 297.324852 
L 147.442192 297.600067 
L 147.775741 299.677632 
L 148.10929 300.812098 
L 149.109938 299.254835 
L 149.443487 294.793534 
L 149.777036 294.025663 
L 150.110585 295.178008 
L 150.444134 294.122505 
L 151.444782 291.419519 
L 151.778331 289.131384 
L 152.11188 290.763803 
L 152.44543 287.715743 
L 152.778979 287.958594 
L 153.779626 289.723034 
L 154.113176 289.371587 
L 154.446725 287.971424 
L 154.780274 287.987233 
L 155.113823 288.556867 
L 156.114471 286.952424 
L 156.44802 284.448917 
L 156.781569 283.956757 
L 157.115118 284.588801 
L 157.448667 286.912611 
L 158.449315 288.572428 
L 158.782864 290.236797 
L 159.116413 290.106846 
L 159.449963 289.504021 
L 159.783512 286.30664 
L 160.784159 285.588432 
L 161.117709 285.501439 
L 161.451258 282.986675 
L 161.784807 282.151511 
L 162.118356 283.136575 
L 163.119004 283.065557 
L 163.452553 283.430827 
L 163.786102 284.328236 
L 164.4532 278.50435 
L 165.453848 277.665461 
L 165.787397 275.961858 
L 166.120946 271.219961 
L 166.454496 270.51632 
L 166.788045 272.390433 
L 167.788692 271.717997 
L 168.122242 274.670953 
L 168.455791 274.956763 
L 168.78934 272.077805 
L 170.457086 268.270316 
L 170.790635 265.435723 
L 171.124184 265.076494 
L 171.457733 262.558833 
L 172.458381 253.63921 
L 172.79193 255.748891 
L 173.125479 254.901145 
L 173.459029 256.367111 
L 173.792578 261.114388 
L 174.793225 258.501043 
L 175.126775 256.343604 
L 175.460324 255.913854 
L 175.793873 255.125042 
L 176.127422 252.06382 
L 177.12807 248.741703 
L 177.461619 249.010959 
L 177.795168 252.884914 
L 178.128717 250.474359 
L 179.462914 250.957993 
L 179.796463 250.671686 
L 180.130012 248.503818 
L 180.463562 249.487888 
L 180.797111 249.394357 
L 181.797758 249.629841 
L 182.798406 253.916495 
L 183.131955 252.29078 
L 184.132603 253.4639 
L 184.466152 252.781532 
L 184.799701 253.629361 
L 185.13325 254.007957 
L 185.4668 253.971455 
L 186.800996 254.567824 
L 187.134545 251.547988 
L 187.468095 251.853664 
L 187.801644 252.408895 
L 188.802291 252.959656 
L 189.135841 252.34483 
L 189.46939 252.317101 
L 189.802939 253.029433 
L 190.136488 252.837568 
L 191.137136 256.846027 
L 191.470685 255.245391 
L 191.804234 255.835801 
L 192.137783 253.75807 
L 192.471333 256.544159 
L 193.47198 257.200703 
L 193.805529 258.081061 
L 194.139078 257.860143 
L 194.472628 259.441245 
L 194.806177 259.922892 
L 195.806824 257.402831 
L 196.140374 255.549494 
L 196.473923 256.829555 
L 196.807472 259.874885 
L 197.141021 257.137134 
L 198.141669 258.658309 
L 198.475218 256.34559 
L 198.808767 256.571308 
L 199.142316 255.496686 
L 199.475866 256.588525 
L 200.476513 257.585259 
L 200.810062 260.504114 
L 201.143611 260.78057 
L 201.81071 255.010238 
L 202.811357 254.726249 
L 203.144907 254.347983 
L 203.478456 253.184464 
L 203.812005 251.345364 
L 204.145554 251.486158 
L 205.146202 251.60477 
L 205.479751 250.773826 
L 205.8133 252.446804 
L 206.146849 252.932756 
L 206.480399 252.364943 
L 207.481046 254.290622 
L 207.814595 252.38216 
L 208.148144 252.882348 
L 208.481694 251.09349 
L 208.815243 250.668624 
L 209.81589 250.446134 
L 210.14944 250.962877 
L 210.482989 249.076514 
L 210.816538 252.060427 
L 211.150087 251.464969 
L 212.150735 251.042254 
L 212.484284 253.206315 
L 212.817833 253.871716 
L 213.151382 251.45843 
L 213.484932 253.05294 
L 214.485579 253.214179 
L 214.819128 255.523669 
L 215.152677 254.548373 
L 216.820423 265.65606 
L 217.153973 260.598225 
L 217.487522 262.241239 
L 217.821071 259.590068 
L 218.15462 261.057193 
L 219.155268 260.543596 
L 219.488817 262.80334 
L 219.822366 262.388572 
L 220.155915 258.980787 
L 220.489465 261.041549 
L 221.490112 261.045853 
L 221.823661 264.21385 
L 222.49076 261.283904 
L 222.824309 263.133516 
L 223.824956 262.006334 
L 224.158506 262.770066 
L 224.492055 262.931802 
L 224.825604 263.482729 
L 225.159153 262.8338 
L 226.159801 261.844101 
L 226.49335 266.155752 
L 226.826899 266.40986 
L 227.160448 267.042731 
L 227.493998 265.219606 
L 228.494645 266.579542 
L 228.828194 264.376992 
L 229.161743 264.698642 
L 229.495293 264.178092 
L 229.828842 265.529503 
L 231.163039 262.559164 
L 231.830137 258.765084 
L 232.163686 256.028658 
L 233.164334 255.303745 
L 233.497883 256.328953 
L 233.831432 256.447482 
L 234.164981 255.485263 
L 234.498531 256.767973 
L 235.499178 256.780224 
L 235.832727 258.427459 
L 236.166276 259.280502 
L 236.499826 256.505753 
L 237.834022 254.715571 
L 238.167572 253.926924 
L 238.83467 255.990749 
L 239.168219 259.206919 
L 240.168867 259.016461 
L 240.502416 258.618993 
L 240.835965 255.065198 
L 241.169514 254.462787 
L 241.503064 253.182808 
L 242.503711 251.538304 
L 242.83726 252.277702 
L 243.170809 251.333362 
L 243.504359 251.030998 
L 243.837908 252.282751 
L 244.838555 252.193358 
L 245.505654 244.949941 
L 245.839203 246.680362 
L 246.172752 246.225449 
L 247.1734 243.244765 
L 247.506949 243.98168 
L 248.174047 240.423581 
L 248.507597 241.367755 
L 249.508244 240.904814 
L 249.841793 240.259114 
L 250.175342 241.628072 
L 250.508892 241.57485 
L 250.842441 242.059891 
L 251.843088 244.625725 
L 252.176638 244.577386 
L 252.510187 243.69438 
L 252.843736 243.316859 
L 253.177285 246.22487 
L 254.177933 247.219204 
L 254.511482 246.657186 
L 254.845031 241.527422 
L 255.17858 241.447133 
L 255.51213 241.75165 
L 256.512777 241.093037 
L 256.846326 243.492997 
L 257.179875 242.73572 
L 258.847621 242.300094 
L 259.181171 239.283569 
L 259.848269 240.123203 
L 261.182466 242.030755 
L 261.516015 240.136778 
L 261.849564 238.985012 
L 262.183113 242.3409 
L 262.516663 239.352104 
L 263.51731 239.811568 
L 263.850859 236.486058 
L 264.184408 236.255208 
L 264.517958 236.636205 
L 264.851507 239.95857 
L 265.852154 245.781463 
L 266.185704 245.488949 
L 266.519253 249.30935 
L 266.852802 248.019936 
L 267.186351 244.309703 
L 268.186999 245.329531 
L 268.854097 240.897696 
L 269.187646 240.819229 
L 269.521196 239.011747 
L 270.521843 237.940767 
L 270.855392 242.644009 
L 271.188941 243.991115 
L 271.522491 242.660315 
L 271.85604 241.992266 
L 272.856687 245.09537 
L 273.190237 250.810908 
L 273.523786 248.189452 
L 273.857335 251.106982 
L 274.190884 249.705991 
L 275.191532 246.72092 
L 275.525081 247.151745 
L 275.85863 248.534526 
L 276.192179 245.923665 
L 276.525729 245.844701 
L 277.526376 244.512741 
L 277.859925 245.843211 
L 278.193474 247.756308 
L 278.860573 241.822005 
L 279.86122 244.552223 
L 281.195417 232.903872 
L 282.196065 231.446432 
L 282.529614 228.598347 
L 282.863163 227.850341 
L 283.196712 228.604555 
L 283.530262 225.674112 
L 285.198007 225.631733 
L 285.865106 222.942984 
L 286.865753 223.822679 
L 287.199303 223.439944 
L 287.532852 224.938357 
L 287.866401 227.020143 
L 289.534147 224.60876 
L 289.867696 219.833672 
L 290.201245 218.70202 
L 290.534795 219.86198 
L 291.535442 219.024167 
L 291.868991 220.693585 
L 292.53609 219.145344 
L 292.869639 218.185278 
L 293.870286 220.213428 
L 294.203836 222.210539 
L 294.537385 219.024746 
L 294.870934 214.76549 
L 295.204483 212.980523 
L 296.205131 213.481621 
L 296.53868 211.908466 
L 296.872229 212.568569 
L 297.205778 214.075672 
L 297.539328 216.251404 
L 298.539975 214.947588 
L 298.873524 215.307561 
L 299.207073 214.251065 
L 299.540623 215.476166 
L 299.874172 215.220899 
L 300.874819 215.242254 
L 301.541918 220.679183 
L 301.875467 220.447506 
L 302.209016 221.368753 
L 303.209664 217.272639 
L 303.543213 214.98707 
L 303.876762 215.439085 
L 304.210311 215.395216 
L 304.543861 217.830188 
L 305.878057 220.388159 
L 306.545156 224.56365 
L 306.878705 218.838924 
L 307.879352 219.38712 
L 308.212902 216.544581 
L 308.546451 216.604176 
L 308.88 216.998665 
L 309.213549 214.061022 
L 310.214197 213.415404 
L 310.547746 218.121213 
L 310.881295 214.244195 
L 311.214844 212.432906 
L 311.548394 213.047485 
L 312.549041 213.421364 
L 312.88259 210.89526 
L 313.216139 210.872912 
L 313.883238 218.13429 
L 314.883885 223.837413 
L 315.217435 223.834019 
L 315.550984 219.802302 
L 315.884533 223.967861 
L 316.218082 220.427972 
L 317.21873 217.770261 
L 317.552279 215.719349 
L 317.885828 215.901612 
L 318.219377 214.786349 
L 318.552927 224.712142 
L 319.553574 227.482339 
L 319.887123 220.557592 
L 320.220672 219.262383 
L 320.554222 219.74014 
L 320.887771 219.71473 
L 321.888418 220.215994 
L 322.221968 218.910191 
L 322.555517 218.370934 
L 322.889066 214.40262 
L 323.222615 213.940341 
L 324.223263 210.697685 
L 324.556812 210.878458 
L 324.890361 212.566169 
L 325.22391 212.805378 
L 325.55746 213.611986 
L 326.558107 213.42782 
L 326.891656 210.76324 
L 327.225205 209.411002 
L 327.558755 207.237505 
L 327.892304 207.10896 
L 328.892951 206.292751 
L 329.226501 205.763923 
L 329.56005 207.693162 
L 329.893599 208.956089 
L 330.227148 208.958572 
L 331.227796 210.27704 
L 331.561345 212.775167 
L 331.894894 213.959875 
L 332.228443 209.4038 
L 332.561993 211.580112 
L 333.56264 211.195969 
L 333.896189 209.248852 
L 334.229738 210.00108 
L 334.563288 209.81741 
L 334.896837 207.429617 
L 335.897484 206.966925 
L 336.231034 208.598434 
L 336.564583 207.611052 
L 337.231681 209.193644 
L 338.232329 209.415637 
L 338.565878 208.168022 
L 338.899427 206.300779 
L 339.232976 207.704998 
L 339.566526 208.084505 
L 340.567173 206.527159 
L 340.900722 205.46636 
L 341.234271 206.135485 
L 341.567821 205.506587 
L 341.90137 204.311532 
L 342.902017 202.502312 
L 343.235567 200.932633 
L 343.569116 200.559996 
L 343.902665 201.696532 
L 344.236214 202.190678 
L 345.236862 204.493877 
L 345.570411 207.304467 
L 345.90396 205.091653 
L 346.237509 204.729445 
L 346.571059 205.072533 
L 347.571706 201.208097 
L 347.905255 204.153769 
L 348.572354 203.390864 
L 348.905903 204.886877 
L 349.90655 208.485699 
L 350.2401 210.17639 
L 350.573649 210.214796 
L 350.907198 205.974577 
L 351.240747 208.659933 
L 352.241395 205.778491 
L 352.574944 201.154709 
L 353.242042 202.573413 
L 354.576239 201.162738 
L 355.243337 202.595927 
L 355.576887 204.861052 
L 355.910436 202.636154 
L 356.911083 200.8074 
L 357.244633 197.498775 
L 357.911731 194.782214 
L 358.24528 192.866219 
L 359.245928 190.867287 
L 359.579477 191.649478 
L 359.913026 190.529414 
L 360.246575 191.895061 
L 360.580125 190.958915 
L 362.24787 193.473845 
L 362.58142 190.386054 
L 362.914969 189.183963 
L 363.915616 186.40102 
L 364.249166 186.442405 
L 364.582715 186.30368 
L 364.916264 184.854269 
L 365.249813 185.170207 
L 366.250461 188.309482 
L 366.58401 188.225635 
L 366.917559 189.551469 
L 367.251108 189.814351 
L 367.584658 188.424204 
L 368.585305 188.469314 
L 368.918854 187.336917 
L 369.252403 188.032943 
L 369.585953 188.013988 
L 369.919502 189.492453 
L 370.920149 189.305886 
L 371.253699 190.847091 
L 371.587248 189.210367 
L 371.920797 189.34156 
L 372.254346 190.911736 
L 373.254994 188.498863 
L 373.588543 188.699915 
L 373.922092 188.068369 
L 374.255641 184.116278 
L 374.589191 184.456469 
L 375.589838 184.251444 
L 375.923387 181.561535 
L 376.256936 177.951456 
L 376.924035 173.796492 
L 377.924682 175.699243 
L 378.591781 174.714925 
L 379.258879 175.761901 
L 380.593076 173.86064 
L 380.926625 172.560382 
L 381.260174 174.03148 
L 381.593724 172.747032 
L 382.594371 171.952426 
L 382.92792 171.372363 
L 383.261469 167.400076 
L 383.928568 165.688113 
L 384.929215 165.701439 
L 385.262765 164.234148 
L 385.596314 164.725232 
L 386.263412 164.910888 
L 387.26406 164.520455 
L 387.597609 166.297394 
L 387.931158 165.809125 
L 388.264707 166.903116 
L 388.598257 165.472493 
L 389.598904 165.269206 
L 389.932453 167.05914 
L 390.599552 165.169963 
L 390.933101 166.857591 
L 391.933748 168.826477 
L 392.267298 168.788568 
L 392.600847 167.936932 
L 392.934396 168.011592 
L 393.267945 165.27409 
L 394.268593 169.553211 
L 394.602142 168.306506 
L 394.935691 167.839758 
L 395.26924 164.916599 
L 395.60279 163.203146 
L 396.603437 161.546889 
L 397.270535 156.371104 
L 397.604085 158.328484 
L 397.937634 157.634528 
L 398.938281 156.436576 
L 399.271831 153.527985 
L 399.60538 155.283569 
L 400.272478 165.438474 
L 401.273126 165.553692 
L 401.606675 172.26464 
L 401.940224 161.65565 
L 402.273773 163.210596 
L 402.607323 162.890932 
L 403.60797 162.992907 
L 403.941519 169.112121 
L 404.275068 168.241614 
L 404.608618 164.603889 
L 404.942167 166.752803 
L 405.942814 167.091669 
L 406.276364 167.50652 
L 406.943462 164.085905 
L 407.277011 166.332654 
L 408.277659 169.810051 
L 408.944757 174.203148 
L 409.278306 171.713713 
L 409.611856 171.968649 
L 410.612503 173.796823 
L 410.946052 170.338547 
L 411.279601 170.844115 
L 411.613151 171.574822 
L 411.9467 175.799562 
L 412.947347 174.523723 
L 413.280897 173.170077 
L 413.614446 169.418955 
L 413.947995 168.190626 
L 414.281544 167.803173 
L 415.282192 168.896088 
L 415.615741 171.123883 
L 416.282839 167.620579 
L 417.950585 168.455081 
L 418.284134 167.076853 
L 418.617684 164.867433 
L 418.951233 164.748077 
L 419.95188 162.620683 
L 420.28543 160.198706 
L 420.952528 164.829358 
L 421.286077 164.856838 
L 422.620274 165.301156 
L 422.953823 172.128977 
L 423.287372 170.373145 
L 423.620922 165.620488 
L 424.621569 165.780817 
L 424.955118 160.273863 
L 425.622217 157.386048 
L 425.955766 152.613029 
L 426.956413 152.393767 
L 427.289963 155.568468 
L 427.623512 155.005457 
L 428.29061 149.299934 
L 429.291258 148.969262 
L 429.624807 150.167876 
L 429.958356 154.138673 
L 430.291905 153.32834 
L 430.625455 153.247059 
L 431.626102 155.074819 
L 432.2932 151.649817 
L 432.62675 149.90698 
L 432.960299 146.695611 
L 434.294496 148.545141 
L 434.628045 147.760798 
L 434.961594 145.698132 
L 435.295143 144.538834 
L 436.295791 145.172285 
L 436.62934 143.068067 
L 436.962889 139.781045 
L 437.296438 143.516689 
L 437.629988 143.699035 
L 438.630635 140.090694 
L 438.964184 139.749013 
L 439.297733 140.117015 
L 439.964832 142.978591 
L 440.965479 141.823101 
L 441.299029 142.59569 
L 441.632578 144.166694 
L 441.966127 146.862561 
L 442.299676 146.240534 
L 443.300324 149.754515 
L 443.633873 148.854954 
L 444.300971 142.850378 
L 444.634521 143.771708 
L 445.635168 141.940554 
L 445.968717 141.736522 
L 446.302267 140.719343 
L 446.635816 138.47698 
L 446.969365 140.363757 
L 447.970012 138.499494 
L 448.303562 140.456461 
L 448.637111 141.407836 
L 448.97066 144.4285 
L 449.304209 142.693857 
L 450.638406 145.572402 
L 451.305504 141.081551 
L 451.639054 141.727583 
L 452.97325 141.430681 
L 453.3068 139.323236 
L 453.973898 134.049946 
L 454.974545 131.86991 
L 455.641644 134.875592 
L 455.975193 132.864493 
L 456.308742 132.940643 
L 457.30939 133.016958 
L 457.642939 133.241103 
L 457.976488 132.279712 
L 458.310037 129.836297 
L 458.643587 131.641875 
L 459.644234 130.576606 
L 459.977783 126.234247 
L 460.311333 125.152009 
L 460.644882 123.48673 
L 460.978431 123.015594 
L 461.979078 122.301607 
L 462.312628 126.092294 
L 462.979726 122.345724 
L 463.313275 125.427804 
L 464.313923 127.535498 
L 464.647472 125.293714 
L 464.981021 124.112068 
L 465.31457 124.901295 
L 465.64812 126.447135 
L 466.648767 123.971439 
L 466.982316 122.473027 
L 467.315866 122.123648 
L 467.982964 120.411603 
L 468.983611 119.904296 
L 469.317161 121.651934 
L 469.65071 122.215111 
L 469.984259 122.205427 
L 470.317808 121.630827 
L 471.318456 122.216518 
L 471.652005 128.744127 
L 472.319103 129.800209 
L 472.652653 128.980771 
L 473.986849 123.866154 
L 474.320399 123.744728 
L 474.653948 124.131851 
L 474.987497 123.590939 
L 476.321694 122.847237 
L 476.988792 116.718752 
L 477.322341 115.702318 
L 478.322989 113.839876 
L 478.656538 115.578988 
L 478.990087 114.155401 
L 479.323636 114.019325 
L 479.657186 113.734508 
L 480.991382 111.427335 
L 481.324932 107.871802 
L 481.658481 107.468871 
L 481.99203 109.310288 
L 482.992677 107.538233 
L 483.326227 109.769587 
L 483.993325 105.314659 
L 484.326874 108.519489 
L 485.327522 105.596827 
L 485.661071 108.136009 
L 485.99462 105.544681 
L 486.328169 104.289948 
L 486.661719 111.229677 
L 487.662366 112.729828 
L 487.995915 113.669781 
L 488.329465 118.018016 
L 488.996563 112.516691 
L 489.99721 111.858409 
L 490.33076 110.246268 
L 490.664309 105.467704 
L 490.997858 106.863645 
L 491.331407 108.963724 
L 492.332055 111.320312 
L 492.665604 112.827663 
L 492.999153 116.328236 
L 493.332702 117.53281 
L 493.666252 121.546565 
L 494.666899 124.720356 
L 495.000448 126.761584 
L 495.333998 126.490342 
L 495.667547 120.22727 
L 496.001096 121.18444 
L 497.001743 126.620955 
L 497.335293 122.958233 
L 497.668842 121.22086 
L 498.002391 118.009077 
L 498.33594 117.668224 
L 499.336588 116.949684 
L 500.003686 116.101939 
L 500.337235 113.671602 
L 500.670785 114.604188 
L 502.338531 113.251371 
L 502.67208 113.352269 
L 503.005629 111.709172 
L 504.339826 111.160728 
L 504.673375 109.829514 
L 505.006924 107.796646 
L 505.340473 106.595135 
L 506.341121 105.694001 
L 507.008219 109.441895 
L 507.675318 107.566044 
L 508.675965 110.038843 
L 509.009514 109.169328 
L 509.343064 110.335579 
L 509.676613 109.336858 
L 511.344359 94.003519 
L 512.011457 102.982241 
L 512.345006 100.050309 
L 513.345654 102.415505 
L 513.679203 107.164106 
L 514.012752 104.994748 
L 514.346301 104.582877 
L 514.679851 106.956846 
L 515.680498 108.46337 
L 516.014047 116.436418 
L 516.347597 109.053945 
L 517.014695 120.458037 
L 518.015342 120.732011 
L 518.682441 119.348651 
L 519.01599 118.784563 
L 519.349539 113.682776 
L 520.350187 114.779664 
L 520.683736 117.587853 
L 521.017285 115.064481 
L 521.684384 121.122113 
L 522.685031 117.970588 
L 523.01858 119.280116 
L 523.685679 125.030915 
L 524.019228 131.889941 
L 525.019875 130.396081 
L 525.353425 123.039267 
L 525.686974 121.568169 
L 526.020523 117.558469 
L 526.354072 119.703327 
L 527.35472 116.300176 
L 527.688269 117.616078 
L 528.021818 115.732447 
L 529.689564 125.682823 
L 530.356663 121.148186 
L 530.690212 128.483314 
L 531.023761 131.880091 
L 532.024408 130.665999 
L 532.357958 128.895434 
L 532.691507 133.180101 
L 533.025056 129.243571 
L 534.692802 124.205766 
L 535.026351 129.106832 
L 535.3599 122.571028 
L 535.69345 123.421754 
L 536.694097 120.573752 
L 537.027646 124.082602 
L 537.361196 123.344694 
L 537.694745 120.374852 
L 538.028294 120.198714 
L 539.028941 120.65702 
L 539.362491 121.833038 
L 539.69604 116.765021 
L 540.029589 117.620796 
L 540.363138 122.092361 
L 541.363786 122.08756 
L 541.697335 123.995857 
L 542.030884 122.695765 
L 542.364433 120.913032 
L 542.697983 120.661655 
L 544.365729 123.359013 
L 544.699278 125.915411 
L 545.032827 123.802089 
L 546.033474 126.905855 
L 546.367024 130.02452 
L 546.700573 134.794559 
L 547.034122 133.536846 
L 547.367671 126.055543 
L 548.368319 118.119163 
L 548.701868 125.892318 
L 549.035417 126.627246 
L 549.368966 126.933087 
L 549.702516 133.282572 
L 551.036712 136.346442 
L 551.370262 144.162141 
L 551.703811 140.552476 
L 553.038007 144.848565 
L 553.371557 148.901472 
L 553.705106 149.288925 
L 554.372204 140.05535 
L 555.372852 129.777695 
L 555.706401 134.055409 
L 556.03995 130.083205 
L 556.373499 128.065318 
L 556.707049 133.552572 
L 557.707696 134.644577 
L 558.041245 136.782316 
L 558.374795 140.751376 
L 558.708344 134.245701 
L 559.041893 139.341198 
L 560.04254 143.757057 
L 560.37609 148.169689 
L 560.709639 144.765959 
L 561.043188 147.530693 
L 561.376737 144.657942 
L 562.377385 147.40488 
L 563.044483 143.078331 
L 563.378032 145.798285 
L 563.711582 138.6066 
L 564.712229 140.758328 
L 565.379328 134.695316 
L 565.712877 136.890085 
L 566.046426 141.519992 
L 567.047073 142.338685 
L 567.714172 147.418786 
L 568.047721 143.919207 
L 568.38127 142.628882 
L 569.381918 145.730247 
L 569.715467 150.00076 
L 570.049016 150.255862 
L 570.382565 146.965529 
L 570.716115 146.396972 
L 571.716762 146.773499 
L 572.383861 148.245508 
L 572.71741 142.768352 
L 573.050959 140.130176 
L 574.051606 140.232895 
L 574.385156 141.798684 
L 574.718705 137.944346 
L 575.052254 139.370168 
L 575.385803 133.373041 
L 576.386451 129.236121 
L 577.053549 131.765949 
L 577.387098 132.669566 
L 577.720648 138.246131 
L 578.721295 142.197891 
L 579.054844 139.612357 
L 579.388394 141.102741 
L 579.721943 135.748666 
L 580.055492 136.046892 
L 581.389689 131.323122 
L 581.723238 136.635066 
L 582.056787 138.121559 
L 582.390336 138.073386 
L 583.724533 132.885268 
L 584.058082 129.442553 
L 584.391631 129.523504 
L 584.725181 129.454638 
L 585.725828 131.619444 
L 586.059377 131.650483 
L 586.392927 130.266378 
L 586.726476 129.384944 
L 587.060025 129.814032 
L 588.060672 129.707174 
L 588.394222 136.585072 
L 588.727771 138.802272 
L 589.06132 138.372109 
L 589.394869 137.435715 
L 590.395517 141.15439 
L 591.062615 136.465384 
L 591.396164 138.551806 
L 591.729714 141.455844 
L 592.730361 141.430516 
L 593.06391 140.748975 
L 593.39746 139.696453 
L 593.731009 135.76224 
L 594.064558 129.967738 
L 595.065205 132.350896 
L 595.398755 132.406684 
L 595.732304 129.623988 
L 596.065853 130.172019 
L 596.399402 131.839699 
L 597.40005 133.306658 
L 597.733599 130.482329 
L 598.067148 132.867141 
L 598.400697 140.453812 
L 598.734247 136.784137 
L 599.734894 134.994121 
L 600.068443 127.697647 
L 600.401993 128.083031 
L 600.735542 127.372024 
L 601.069091 129.847554 
L 602.736837 135.916278 
L 603.070386 134.552204 
L 603.403935 140.180087 
L 604.404583 138.752196 
L 604.738132 135.982661 
L 605.071681 130.101828 
L 606.739427 124.807266 
L 607.072976 125.873943 
L 607.740075 117.204041 
L 608.073624 118.253749 
L 609.074271 122.211635 
L 609.407821 121.018152 
L 609.74137 113.875716 
L 610.074919 114.244794 
L 610.408468 112.11409 
L 611.409116 112.158621 
L 611.742665 114.349666 
L 612.076214 111.26204 
L 612.409763 110.781552 
L 612.743313 111.688728 
L 613.74396 109.880087 
L 614.077509 109.851862 
L 614.411059 109.400344 
L 615.078157 105.649801 
L 616.078804 101.755816 
L 616.412354 98.729276 
L 616.745903 101.00574 
L 617.079452 108.648116 
L 617.413001 111.649163 
L 618.413649 112.85862 
L 618.747198 107.711971 
L 619.080747 107.48857 
L 619.414296 106.209833 
L 619.747846 105.51447 
L 621.082042 110.895528 
L 621.415592 106.834924 
L 621.749141 109.926522 
L 622.08269 110.042816 
L 624.083985 114.778257 
L 625.418182 110.726592 
L 626.08528 108.756299 
L 626.418829 109.265012 
L 626.752379 105.353396 
L 627.753026 101.841484 
L 628.086575 99.852071 
L 628.420125 100.063552 
L 628.753674 99.9706 
L 629.087223 99.221021 
L 630.42142 101.586631 
L 631.422067 94.106984 
L 632.422715 99.157701 
L 632.756264 98.5783 
L 633.089813 99.778653 
L 633.756912 98.734656 
L 634.757559 95.527343 
L 635.091108 97.069459 
L 635.424658 99.412141 
L 635.758207 99.473474 
L 636.091756 98.498592 
L 637.092403 99.461804 
L 637.425953 102.628476 
L 637.759502 101.611462 
L 638.4266 109.000061 
L 639.427248 108.463122 
L 639.760797 102.515079 
L 640.427895 107.393962 
L 640.761445 105.06651 
L 641.762092 101.146866 
L 642.095641 101.916227 
L 642.429191 101.730902 
L 643.096289 99.812506 
L 644.096936 98.377662 
L 644.430486 99.775425 
L 644.764035 102.207252 
L 645.431133 105.142495 
L 646.76533 100.607941 
L 647.098879 97.558638 
L 647.765978 104.167612 
L 648.766625 99.771534 
L 649.100174 101.485319 
L 649.433724 99.20844 
L 649.767273 95.504912 
L 651.101469 89.297132 
L 651.768568 90.295853 
L 652.102117 90.367036 
L 652.435666 90.56635 
L 653.436314 93.268839 
L 653.769863 92.144802 
L 654.103412 95.660688 
L 654.436961 94.851927 
L 654.770511 92.618173 
L 656.104707 88.234842 
L 656.438257 88.395253 
L 656.771806 91.07316 
L 657.105355 91.309224 
L 658.106002 91.433547 
L 658.773101 88.131212 
L 659.10665 84.260403 
L 659.440199 82.214126 
L 660.440847 83.247279 
L 660.774396 83.161363 
L 661.107945 81.686292 
L 661.441494 83.29537 
L 663.10924 79.692161 
L 663.44279 77.060441 
L 663.776339 81.277732 
L 664.109888 81.190573 
L 665.110535 86.111836 
L 665.444085 85.695743 
L 666.111183 86.964548 
L 666.444732 91.860151 
L 667.44538 93.747424 
L 667.778929 97.577924 
L 668.112478 95.378189 
L 668.779577 97.713338 
L 669.780224 102.103208 
L 670.113773 105.854495 
L 670.447323 104.143525 
L 670.780872 104.168936 
L 671.114421 107.566375 
L 672.448618 110.064751 
L 672.782167 105.025042 
L 673.115716 106.466342 
L 673.449265 106.367844 
L 674.449913 104.834171 
L 674.783462 102.690885 
L 675.117011 98.969727 
L 675.45056 97.649935 
L 675.78411 99.071536 
L 676.784757 97.331762 
L 677.118306 96.978244 
L 677.785405 98.277592 
L 678.118954 96.957138 
L 679.453151 96.335607 
L 679.7867 101.652351 
L 680.120249 102.666468 
L 680.453798 101.686619 
L 681.454446 100.227274 
L 681.787995 98.920147 
L 682.121544 98.441479 
L 682.455093 100.144255 
L 682.788643 103.350078 
L 683.78929 102.622682 
L 684.122839 106.042304 
L 684.456389 106.017721 
L 684.789938 102.908906 
L 685.123487 104.243182 
L 686.457684 100.205505 
L 686.791233 98.40059 
L 687.124782 98.502068 
L 687.458331 98.140108 
L 688.458979 100.123065 
L 688.792528 103.84472 
L 689.126077 101.772618 
L 689.459626 100.434783 
L 689.793176 100.763634 
L 690.793823 100.550828 
L 691.460922 98.353328 
L 691.794471 95.939959 
L 692.12802 92.423825 
L 693.128667 95.480163 
L 693.462217 95.238387 
L 693.795766 95.766884 
L 694.129315 95.350957 
L 694.462864 98.56365 
L 695.463512 98.224618 
L 695.797061 99.570979 
L 696.13061 100.201532 
L 696.464159 102.629469 
L 696.797709 103.992385 
L 697.798356 107.413331 
L 698.131905 106.245591 
L 698.465455 104.208335 
L 698.799004 103.332116 
L 699.132553 101.461149 
L 700.1332 99.171938 
L 700.46675 100.575991 
L 700.800299 105.419283 
L 701.133848 106.400539 
L 701.467397 106.506238 
L 703.135143 109.466892 
L 703.468692 111.56515 
L 703.802242 110.531582 
L 704.802889 109.357137 
L 705.469988 117.261071 
L 706.137086 108.259173 
L 707.137733 108.976719 
L 707.471283 111.478405 
L 708.138381 105.057737 
L 708.47193 103.968795 
L 709.472578 102.542724 
L 709.806127 106.911322 
L 710.139676 104.87804 
L 710.473225 106.000918 
L 710.806775 104.194347 
L 711.807422 99.771452 
L 712.140971 101.616015 
L 712.474521 98.855337 
L 712.80807 98.921057 
L 713.141619 97.310158 
L 714.142267 99.931615 
L 714.475816 99.535718 
L 714.809365 101.970194 
L 715.142914 102.132757 
L 715.476463 99.182284 
L 716.477111 101.579016 
L 716.81066 105.624887 
L 717.144209 111.382556 
L 717.477758 110.299739 
L 717.811308 107.991076 
L 718.811955 108.177726 
L 719.145504 110.763839 
L 719.479054 110.324322 
L 719.812603 110.972175 
L 720.146152 103.802424 
L 721.1468 100.482128 
L 721.813898 103.205641 
L 722.147447 100.618949 
L 722.480996 99.715415 
L 723.481644 96.336269 
L 723.815193 91.275867 
L 724.482291 86.064739 
L 724.815841 88.681725 
L 725.816488 90.509486 
L 726.483587 83.406366 
L 726.817136 88.679904 
L 728.151333 83.233788 
L 728.484882 79.763592 
L 728.818431 79.309922 
L 729.15198 76.772313 
L 729.485529 78.069922 
L 730.486177 81.403544 
L 730.819726 77.648532 
L 731.153275 79.932943 
L 731.486824 79.916885 
L 732.821021 74.54129 
L 733.15457 76.601886 
L 733.48812 73.952205 
L 733.821669 76.307303 
L 734.155218 72.999919 
L 735.155866 70.843721 
L 735.489415 75.251221 
L 735.822964 76.759897 
L 736.156513 75.103143 
L 736.490062 75.889472 
L 737.49071 78.658593 
L 737.824259 81.324249 
L 738.157808 72.800688 
L 738.491357 71.93945 
L 738.824907 71.728962 
L 739.825554 68.145949 
L 740.159103 71.389434 
L 740.492653 68.451376 
L 740.826202 62.001821 
L 741.159751 58.877445 
L 742.160399 60.170584 
L 742.493948 64.876723 
L 742.827497 59.732888 
L 743.161046 57.350062 
L 743.494595 60.15047 
L 744.495243 57.020797 
L 746.830087 56.206656 
L 747.163636 55.8 
L 747.163636 55.8 
" clip-path="url(#peca17029d1)" style="fill: none; stroke: #1f77b4; stroke-width: 1.5; stroke-linecap: square"/>
   </g>
   <g id="patch_3">
    <path d="M 108 320.4 
L 108 43.2 
" style="fill: none; stroke: #000000; stroke-width: 0.8; stroke-linejoin: miter; stroke-linecap: square"/>
   </g>
   <g id="patch_4">
    <path d="M 777.6 320.4 
L 777.6 43.2 
" style="fill: none; stroke: #000000; stroke-width: 0.8; stroke-linejoin: miter; stroke-linecap: square"/>
   </g>
   <g id="patch_5">
    <path d="M 108 320.4 
L 777.6 320.4 
" style="fill: none; stroke: #000000; stroke-width: 0.8; stroke-linejoin: miter; stroke-linecap: square"/>
   </g>
   <g id="patch_6">
    <path d="M 108 43.2 
L 777.6 43.2 
" style="fill: none; stroke: #000000; stroke-width: 0.8; stroke-linejoin: miter; stroke-linecap: square"/>
   </g>
   <g id="text_16">
    <!-- Budapesti Értéktőzsde Indexe 2015-2019 -->
    <g transform="translate(318.724688 37.2) scale(0.12 -0.12)">
     <defs>
      <path id="DejaVuSans-75" d="M 544 1381 
L 544 3500 
L 1119 3500 
L 1119 1403 
Q 1119 906 1312 657 
Q 1506 409 1894 409 
Q 2359 409 2629 706 
Q 2900 1003 2900 1516 
L 2900 3500 
L 3475 3500 
L 3475 0 
L 2900 0 
L 2900 538 
Q 2691 219 2414 64 
Q 2138 -91 1772 -91 
Q 1169 -91 856 284 
Q 544 659 544 1381 
z
M 1991 3584 
L 1991 3584 
z
" transform="scale(0.015625)"/>
      <path id="DejaVuSans-61" d="M 2194 1759 
Q 1497 1759 1228 1600 
Q 959 1441 959 1056 
Q 959 750 1161 570 
Q 1363 391 1709 391 
Q 2188 391 2477 730 
Q 2766 1069 2766 1631 
L 2766 1759 
L 2194 1759 
z
M 3341 1997 
L 3341 0 
L 2766 0 
L 2766 531 
Q 2569 213 2275 61 
Q 1981 -91 1556 -91 
Q 1019 -91 701 211 
Q 384 513 384 1019 
Q 384 1609 779 1909 
Q 1175 2209 1959 2209 
L 2766 2209 
L 2766 2266 
Q 2766 2663 2505 2880 
Q 2244 3097 1772 3097 
Q 1472 3097 1187 3025 
Q 903 2953 641 2809 
L 641 3341 
Q 956 3463 1253 3523 
Q 1550 3584 1831 3584 
Q 2591 3584 2966 3190 
Q 3341 2797 3341 1997 
z
" transform="scale(0.015625)"/>
      <path id="DejaVuSans-70" d="M 1159 525 
L 1159 -1331 
L 581 -1331 
L 581 3500 
L 1159 3500 
L 1159 2969 
Q 1341 3281 1617 3432 
Q 1894 3584 2278 3584 
Q 2916 3584 3314 3078 
Q 3713 2572 3713 1747 
Q 3713 922 3314 415 
Q 2916 -91 2278 -91 
Q 1894 -91 1617 61 
Q 1341 213 1159 525 
z
M 3116 1747 
Q 3116 2381 2855 2742 
Q 2594 3103 2138 3103 
Q 1681 3103 1420 2742 
Q 1159 2381 1159 1747 
Q 1159 1113 1420 752 
Q 1681 391 2138 391 
Q 2594 391 2855 752 
Q 3116 1113 3116 1747 
z
" transform="scale(0.015625)"/>
      <path id="DejaVuSans-73" d="M 2834 3397 
L 2834 2853 
Q 2591 2978 2328 3040 
Q 2066 3103 1784 3103 
Q 1356 3103 1142 2972 
Q 928 2841 928 2578 
Q 928 2378 1081 2264 
Q 1234 2150 1697 2047 
L 1894 2003 
Q 2506 1872 2764 1633 
Q 3022 1394 3022 966 
Q 3022 478 2636 193 
Q 2250 -91 1575 -91 
Q 1294 -91 989 -36 
Q 684 19 347 128 
L 347 722 
Q 666 556 975 473 
Q 1284 391 1588 391 
Q 1994 391 2212 530 
Q 2431 669 2431 922 
Q 2431 1156 2273 1281 
Q 2116 1406 1581 1522 
L 1381 1569 
Q 847 1681 609 1914 
Q 372 2147 372 2553 
Q 372 3047 722 3315 
Q 1072 3584 1716 3584 
Q 2034 3584 2315 3537 
Q 2597 3491 2834 3397 
z
" transform="scale(0.015625)"/>
      <path id="DejaVuSans-74" d="M 1172 4494 
L 1172 3500 
L 2356 3500 
L 2356 3053 
L 1172 3053 
L 1172 1153 
Q 1172 725 1289 603 
Q 1406 481 1766 481 
L 2356 481 
L 2356 0 
L 1766 0 
Q 1100 0 847 248 
Q 594 497 594 1153 
L 594 3053 
L 172 3053 
L 172 3500 
L 594 3500 
L 594 4494 
L 1172 4494 
z
" transform="scale(0.015625)"/>
      <path id="DejaVuSans-69" d="M 603 3500 
L 1178 3500 
L 1178 0 
L 603 0 
L 603 3500 
z
M 603 4863 
L 1178 4863 
L 1178 4134 
L 603 4134 
L 603 4863 
z
" transform="scale(0.015625)"/>
      <path id="DejaVuSans-72" d="M 2631 2963 
Q 2534 3019 2420 3045 
Q 2306 3072 2169 3072 
Q 1681 3072 1420 2755 
Q 1159 2438 1159 1844 
L 1159 0 
L 581 0 
L 581 3500 
L 1159 3500 
L 1159 2956 
Q 1341 3275 1631 3429 
Q 1922 3584 2338 3584 
Q 2397 3584 2469 3576 
Q 2541 3569 2628 3553 
L 2631 2963 
z
" transform="scale(0.015625)"/>
      <path id="DejaVuSans-e9" d="M 3597 1894 
L 3597 1613 
L 953 1613 
Q 991 1019 1311 708 
Q 1631 397 2203 397 
Q 2534 397 2845 478 
Q 3156 559 3463 722 
L 3463 178 
Q 3153 47 2828 -22 
Q 2503 -91 2169 -91 
Q 1331 -91 842 396 
Q 353 884 353 1716 
Q 353 2575 817 3079 
Q 1281 3584 2069 3584 
Q 2775 3584 3186 3129 
Q 3597 2675 3597 1894 
z
M 3022 2063 
Q 3016 2534 2758 2815 
Q 2500 3097 2075 3097 
Q 1594 3097 1305 2825 
Q 1016 2553 972 2059 
L 3022 2063 
z
M 2466 5119 
L 3088 5119 
L 2070 3944 
L 1591 3944 
L 2466 5119 
z
" transform="scale(0.015625)"/>
      <path id="DejaVuSans-6b" d="M 581 4863 
L 1159 4863 
L 1159 1991 
L 2875 3500 
L 3609 3500 
L 1753 1863 
L 3688 0 
L 2938 0 
L 1159 1709 
L 1159 0 
L 581 0 
L 581 4863 
z
" transform="scale(0.015625)"/>
      <path id="DejaVuSans-151" d="M 2892 5119 
L 3448 5119 
L 2673 3944 
L 2251 3944 
L 2892 5119 
z
M 1848 5119 
L 2379 5119 
L 1682 3944 
L 1254 3944 
L 1848 5119 
z
M 1959 3097 
Q 1497 3097 1228 2736 
Q 959 2375 959 1747 
Q 959 1119 1226 758 
Q 1494 397 1959 397 
Q 2419 397 2687 759 
Q 2956 1122 2956 1747 
Q 2956 2369 2687 2733 
Q 2419 3097 1959 3097 
z
M 1959 3584 
Q 2709 3584 3137 3096 
Q 3566 2609 3566 1747 
Q 3566 888 3137 398 
Q 2709 -91 1959 -91 
Q 1206 -91 779 398 
Q 353 888 353 1747 
Q 353 2609 779 3096 
Q 1206 3584 1959 3584 
z
" transform="scale(0.015625)"/>
      <path id="DejaVuSans-7a" d="M 353 3500 
L 3084 3500 
L 3084 2975 
L 922 459 
L 3084 459 
L 3084 0 
L 275 0 
L 275 525 
L 2438 3041 
L 353 3041 
L 353 3500 
z
" transform="scale(0.015625)"/>
      <path id="DejaVuSans-2d" d="M 313 2009 
L 1997 2009 
L 1997 1497 
L 313 1497 
L 313 2009 
z
" transform="scale(0.015625)"/>
     </defs>
     <use xlink:href="#DejaVuSans-42"/>
     <use xlink:href="#DejaVuSans-75" transform="translate(68.603516 0)"/>
     <use xlink:href="#DejaVuSans-64" transform="translate(131.982422 0)"/>
     <use xlink:href="#DejaVuSans-61" transform="translate(195.458984 0)"/>
     <use xlink:href="#DejaVuSans-70" transform="translate(256.738281 0)"/>
     <use xlink:href="#DejaVuSans-65" transform="translate(320.214844 0)"/>
     <use xlink:href="#DejaVuSans-73" transform="translate(381.738281 0)"/>
     <use xlink:href="#DejaVuSans-74" transform="translate(433.837891 0)"/>
     <use xlink:href="#DejaVuSans-69" transform="translate(473.046875 0)"/>
     <use xlink:href="#DejaVuSans-20" transform="translate(500.830078 0)"/>
     <use xlink:href="#DejaVuSans-c9" transform="translate(532.617188 0)"/>
     <use xlink:href="#DejaVuSans-72" transform="translate(595.800781 0)"/>
     <use xlink:href="#DejaVuSans-74" transform="translate(636.914062 0)"/>
     <use xlink:href="#DejaVuSans-e9" transform="translate(676.123047 0)"/>
     <use xlink:href="#DejaVuSans-6b" transform="translate(737.646484 0)"/>
     <use xlink:href="#DejaVuSans-74" transform="translate(795.556641 0)"/>
     <use xlink:href="#DejaVuSans-151" transform="translate(834.765625 0)"/>
     <use xlink:href="#DejaVuSans-7a" transform="translate(895.947266 0)"/>
     <use xlink:href="#DejaVuSans-73" transform="translate(948.4375 0)"/>
     <use xlink:href="#DejaVuSans-64" transform="translate(1000.537109 0)"/>
     <use xlink:href="#DejaVuSans-65" transform="translate(1064.013672 0)"/>
     <use xlink:href="#DejaVuSans-20" transform="translate(1125.537109 0)"/>
     <use xlink:href="#DejaVuSans-49" transform="translate(1157.324219 0)"/>
     <use xlink:href="#DejaVuSans-6e" transform="translate(1186.816406 0)"/>
     <use xlink:href="#DejaVuSans-64" transform="translate(1250.195312 0)"/>
     <use xlink:href="#DejaVuSans-65" transform="translate(1313.671875 0)"/>
     <use xlink:href="#DejaVuSans-78" transform="translate(1373.445312 0)"/>
     <use xlink:href="#DejaVuSans-65" transform="translate(1429.5 0)"/>
     <use xlink:href="#DejaVuSans-20" transform="translate(1491.023438 0)"/>
     <use xlink:href="#DejaVuSans-32" transform="translate(1522.810547 0)"/>
     <use xlink:href="#DejaVuSans-30" transform="translate(1586.433594 0)"/>
     <use xlink:href="#DejaVuSans-31" transform="translate(1650.056641 0)"/>
     <use xlink:href="#DejaVuSans-35" transform="translate(1713.679688 0)"/>
     <use xlink:href="#DejaVuSans-2d" transform="translate(1777.302734 0)"/>
     <use xlink:href="#DejaVuSans-32" transform="translate(1813.386719 0)"/>
     <use xlink:href="#DejaVuSans-30" transform="translate(1877.009766 0)"/>
     <use xlink:href="#DejaVuSans-31" transform="translate(1940.632812 0)"/>
     <use xlink:href="#DejaVuSans-39" transform="translate(2004.255859 0)"/>
    </g>
   </g>
  </g>
 </g>
 <defs>
  <clipPath id="peca17029d1">
   <rect x="108" y="43.2" width="669.6" height="277.2"/>
  </clipPath>
 </defs>
</svg>
