<?xml version="1.0" encoding="utf-8" standalone="no"?>
<!DOCTYPE svg PUBLIC "-//W3C//DTD SVG 1.1//EN"
  "http://www.w3.org/Graphics/SVG/1.1/DTD/svg11.dtd">
<svg xmlns:xlink="http://www.w3.org/1999/xlink" width="864pt" height="360pt" viewBox="0 0 864 360" xmlns="http://www.w3.org/2000/svg" version="1.1">
 <metadata>
  <rdf:RDF xmlns:dc="http://purl.org/dc/elements/1.1/" xmlns:cc="http://creativecommons.org/ns#" xmlns:rdf="http://www.w3.org/1999/02/22-rdf-syntax-ns#">
   <cc:Work>
    <dc:type rdf:resource="http://purl.org/dc/dcmitype/StillImage"/>
    <dc:date>2025-06-11T19:39:21.690383</dc:date>
    <dc:format>image/svg+xml</dc:format>
    <dc:creator>
     <cc:Agent>
      <dc:title>Matplotlib v3.10.3, https://matplotlib.org/</dc:title>
     </cc:Agent>
    </dc:creator>
   </cc:Work>
  </rdf:RDF>
 </metadata>
 <defs>
  <style type="text/css">*{stroke-linejoin: round; stroke-linecap: butt}</style>
 </defs>
 <g id="figure_1">
  <g id="patch_1">
   <path d="M 0 360 
L 864 360 
L 864 0 
L 0 0 
z
" style="fill: #ffffff"/>
  </g>
  <g id="axes_1">
   <g id="patch_2">
    <path d="M 63.47 318.04 
L 853.2 318.04 
L 853.2 27.24 
L 63.47 27.24 
z
" style="fill: #ffffff"/>
   </g>
   <g id="matplotlib.axis_1">
    <g id="xtick_1">
     <g id="line2d_1">
      <path d="M 99.366818 318.04 
L 99.366818 27.24 
" clip-path="url(#pd00d60b838)" style="fill: none; stroke: #b0b0b0; stroke-opacity: 0.3; stroke-width: 0.8; stroke-linecap: square"/>
     </g>
     <g id="line2d_2">
      <defs>
       <path id="m9cba266278" d="M 0 0 
L 0 3.5 
" style="stroke: #000000; stroke-width: 0.8"/>
      </defs>
      <g>
       <use xlink:href="#m9cba266278" x="99.366818" y="318.04" style="stroke: #000000; stroke-width: 0.8"/>
      </g>
     </g>
     <g id="text_1">
      <!-- 2019-01 -->
      <g transform="translate(78.475412 332.638438) scale(0.1 -0.1)">
       <defs>
        <path id="DejaVuSans-32" d="M 1228 531 
L 3431 531 
L 3431 0 
L 469 0 
L 469 531 
Q 828 903 1448 1529 
Q 2069 2156 2228 2338 
Q 2531 2678 2651 2914 
Q 2772 3150 2772 3378 
Q 2772 3750 2511 3984 
Q 2250 4219 1831 4219 
Q 1534 4219 1204 4116 
Q 875 4013 500 3803 
L 500 4441 
Q 881 4594 1212 4672 
Q 1544 4750 1819 4750 
Q 2544 4750 2975 4387 
Q 3406 4025 3406 3419 
Q 3406 3131 3298 2873 
Q 3191 2616 2906 2266 
Q 2828 2175 2409 1742 
Q 1991 1309 1228 531 
z
" transform="scale(0.015625)"/>
        <path id="DejaVuSans-30" d="M 2034 4250 
Q 1547 4250 1301 3770 
Q 1056 3291 1056 2328 
Q 1056 1369 1301 889 
Q 1547 409 2034 409 
Q 2525 409 2770 889 
Q 3016 1369 3016 2328 
Q 3016 3291 2770 3770 
Q 2525 4250 2034 4250 
z
M 2034 4750 
Q 2819 4750 3233 4129 
Q 3647 3509 3647 2328 
Q 3647 1150 3233 529 
Q 2819 -91 2034 -91 
Q 1250 -91 836 529 
Q 422 1150 422 2328 
Q 422 3509 836 4129 
Q 1250 4750 2034 4750 
z
" transform="scale(0.015625)"/>
        <path id="DejaVuSans-31" d="M 794 531 
L 1825 531 
L 1825 4091 
L 703 3866 
L 703 4441 
L 1819 4666 
L 2450 4666 
L 2450 531 
L 3481 531 
L 3481 0 
L 794 0 
L 794 531 
z
" transform="scale(0.015625)"/>
        <path id="DejaVuSans-39" d="M 703 97 
L 703 672 
Q 941 559 1184 500 
Q 1428 441 1663 441 
Q 2288 441 2617 861 
Q 2947 1281 2994 2138 
Q 2813 1869 2534 1725 
Q 2256 1581 1919 1581 
Q 1219 1581 811 2004 
Q 403 2428 403 3163 
Q 403 3881 828 4315 
Q 1253 4750 1959 4750 
Q 2769 4750 3195 4129 
Q 3622 3509 3622 2328 
Q 3622 1225 3098 567 
Q 2575 -91 1691 -91 
Q 1453 -91 1209 -44 
Q 966 3 703 97 
z
M 1959 2075 
Q 2384 2075 2632 2365 
Q 2881 2656 2881 3163 
Q 2881 3666 2632 3958 
Q 2384 4250 1959 4250 
Q 1534 4250 1286 3958 
Q 1038 3666 1038 3163 
Q 1038 2656 1286 2365 
Q 1534 2075 1959 2075 
z
" transform="scale(0.015625)"/>
        <path id="DejaVuSans-2d" d="M 313 2009 
L 1997 2009 
L 1997 1497 
L 313 1497 
L 313 2009 
z
" transform="scale(0.015625)"/>
       </defs>
       <use xlink:href="#DejaVuSans-32"/>
       <use xlink:href="#DejaVuSans-30" transform="translate(63.623047 0)"/>
       <use xlink:href="#DejaVuSans-31" transform="translate(127.246094 0)"/>
       <use xlink:href="#DejaVuSans-39" transform="translate(190.869141 0)"/>
       <use xlink:href="#DejaVuSans-2d" transform="translate(254.492188 0)"/>
       <use xlink:href="#DejaVuSans-30" transform="translate(290.576172 0)"/>
       <use xlink:href="#DejaVuSans-31" transform="translate(354.199219 0)"/>
      </g>
     </g>
    </g>
    <g id="xtick_2">
     <g id="line2d_3">
      <path d="M 215.735624 318.04 
L 215.735624 27.24 
" clip-path="url(#pd00d60b838)" style="fill: none; stroke: #b0b0b0; stroke-opacity: 0.3; stroke-width: 0.8; stroke-linecap: square"/>
     </g>
     <g id="line2d_4">
      <g>
       <use xlink:href="#m9cba266278" x="215.735624" y="318.04" style="stroke: #000000; stroke-width: 0.8"/>
      </g>
     </g>
     <g id="text_2">
      <!-- 2019-03 -->
      <g transform="translate(194.844218 332.638438) scale(0.1 -0.1)">
       <defs>
        <path id="DejaVuSans-33" d="M 2597 2516 
Q 3050 2419 3304 2112 
Q 3559 1806 3559 1356 
Q 3559 666 3084 287 
Q 2609 -91 1734 -91 
Q 1441 -91 1130 -33 
Q 819 25 488 141 
L 488 750 
Q 750 597 1062 519 
Q 1375 441 1716 441 
Q 2309 441 2620 675 
Q 2931 909 2931 1356 
Q 2931 1769 2642 2001 
Q 2353 2234 1838 2234 
L 1294 2234 
L 1294 2753 
L 1863 2753 
Q 2328 2753 2575 2939 
Q 2822 3125 2822 3475 
Q 2822 3834 2567 4026 
Q 2313 4219 1838 4219 
Q 1578 4219 1281 4162 
Q 984 4106 628 3988 
L 628 4550 
Q 988 4650 1302 4700 
Q 1616 4750 1894 4750 
Q 2613 4750 3031 4423 
Q 3450 4097 3450 3541 
Q 3450 3153 3228 2886 
Q 3006 2619 2597 2516 
z
" transform="scale(0.015625)"/>
       </defs>
       <use xlink:href="#DejaVuSans-32"/>
       <use xlink:href="#DejaVuSans-30" transform="translate(63.623047 0)"/>
       <use xlink:href="#DejaVuSans-31" transform="translate(127.246094 0)"/>
       <use xlink:href="#DejaVuSans-39" transform="translate(190.869141 0)"/>
       <use xlink:href="#DejaVuSans-2d" transform="translate(254.492188 0)"/>
       <use xlink:href="#DejaVuSans-30" transform="translate(290.576172 0)"/>
       <use xlink:href="#DejaVuSans-33" transform="translate(354.199219 0)"/>
      </g>
     </g>
    </g>
    <g id="xtick_3">
     <g id="line2d_5">
      <path d="M 336.049136 318.04 
L 336.049136 27.24 
" clip-path="url(#pd00d60b838)" style="fill: none; stroke: #b0b0b0; stroke-opacity: 0.3; stroke-width: 0.8; stroke-linecap: square"/>
     </g>
     <g id="line2d_6">
      <g>
       <use xlink:href="#m9cba266278" x="336.049136" y="318.04" style="stroke: #000000; stroke-width: 0.8"/>
      </g>
     </g>
     <g id="text_3">
      <!-- 2019-05 -->
      <g transform="translate(315.15773 332.638438) scale(0.1 -0.1)">
       <defs>
        <path id="DejaVuSans-35" d="M 691 4666 
L 3169 4666 
L 3169 4134 
L 1269 4134 
L 1269 2991 
Q 1406 3038 1543 3061 
Q 1681 3084 1819 3084 
Q 2600 3084 3056 2656 
Q 3513 2228 3513 1497 
Q 3513 744 3044 326 
Q 2575 -91 1722 -91 
Q 1428 -91 1123 -41 
Q 819 9 494 109 
L 494 744 
Q 775 591 1075 516 
Q 1375 441 1709 441 
Q 2250 441 2565 725 
Q 2881 1009 2881 1497 
Q 2881 1984 2565 2268 
Q 2250 2553 1709 2553 
Q 1456 2553 1204 2497 
Q 953 2441 691 2322 
L 691 4666 
z
" transform="scale(0.015625)"/>
       </defs>
       <use xlink:href="#DejaVuSans-32"/>
       <use xlink:href="#DejaVuSans-30" transform="translate(63.623047 0)"/>
       <use xlink:href="#DejaVuSans-31" transform="translate(127.246094 0)"/>
       <use xlink:href="#DejaVuSans-39" transform="translate(190.869141 0)"/>
       <use xlink:href="#DejaVuSans-2d" transform="translate(254.492188 0)"/>
       <use xlink:href="#DejaVuSans-30" transform="translate(290.576172 0)"/>
       <use xlink:href="#DejaVuSans-35" transform="translate(354.199219 0)"/>
      </g>
     </g>
    </g>
    <g id="xtick_4">
     <g id="line2d_7">
      <path d="M 456.362647 318.04 
L 456.362647 27.24 
" clip-path="url(#pd00d60b838)" style="fill: none; stroke: #b0b0b0; stroke-opacity: 0.3; stroke-width: 0.8; stroke-linecap: square"/>
     </g>
     <g id="line2d_8">
      <g>
       <use xlink:href="#m9cba266278" x="456.362647" y="318.04" style="stroke: #000000; stroke-width: 0.8"/>
      </g>
     </g>
     <g id="text_4">
      <!-- 2019-07 -->
      <g transform="translate(435.471241 332.638438) scale(0.1 -0.1)">
       <defs>
        <path id="DejaVuSans-37" d="M 525 4666 
L 3525 4666 
L 3525 4397 
L 1831 0 
L 1172 0 
L 2766 4134 
L 525 4134 
L 525 4666 
z
" transform="scale(0.015625)"/>
       </defs>
       <use xlink:href="#DejaVuSans-32"/>
       <use xlink:href="#DejaVuSans-30" transform="translate(63.623047 0)"/>
       <use xlink:href="#DejaVuSans-31" transform="translate(127.246094 0)"/>
       <use xlink:href="#DejaVuSans-39" transform="translate(190.869141 0)"/>
       <use xlink:href="#DejaVuSans-2d" transform="translate(254.492188 0)"/>
       <use xlink:href="#DejaVuSans-30" transform="translate(290.576172 0)"/>
       <use xlink:href="#DejaVuSans-37" transform="translate(354.199219 0)"/>
      </g>
     </g>
    </g>
    <g id="xtick_5">
     <g id="line2d_9">
      <path d="M 578.648511 318.04 
L 578.648511 27.24 
" clip-path="url(#pd00d60b838)" style="fill: none; stroke: #b0b0b0; stroke-opacity: 0.3; stroke-width: 0.8; stroke-linecap: square"/>
     </g>
     <g id="line2d_10">
      <g>
       <use xlink:href="#m9cba266278" x="578.648511" y="318.04" style="stroke: #000000; stroke-width: 0.8"/>
      </g>
     </g>
     <g id="text_5">
      <!-- 2019-09 -->
      <g transform="translate(557.757105 332.638438) scale(0.1 -0.1)">
       <use xlink:href="#DejaVuSans-32"/>
       <use xlink:href="#DejaVuSans-30" transform="translate(63.623047 0)"/>
       <use xlink:href="#DejaVuSans-31" transform="translate(127.246094 0)"/>
       <use xlink:href="#DejaVuSans-39" transform="translate(190.869141 0)"/>
       <use xlink:href="#DejaVuSans-2d" transform="translate(254.492188 0)"/>
       <use xlink:href="#DejaVuSans-30" transform="translate(290.576172 0)"/>
       <use xlink:href="#DejaVuSans-39" transform="translate(354.199219 0)"/>
      </g>
     </g>
    </g>
    <g id="xtick_6">
     <g id="line2d_11">
      <path d="M 698.962023 318.04 
L 698.962023 27.24 
" clip-path="url(#pd00d60b838)" style="fill: none; stroke: #b0b0b0; stroke-opacity: 0.3; stroke-width: 0.8; stroke-linecap: square"/>
     </g>
     <g id="line2d_12">
      <g>
       <use xlink:href="#m9cba266278" x="698.962023" y="318.04" style="stroke: #000000; stroke-width: 0.8"/>
      </g>
     </g>
     <g id="text_6">
      <!-- 2019-11 -->
      <g transform="translate(678.070617 332.638438) scale(0.1 -0.1)">
       <use xlink:href="#DejaVuSans-32"/>
       <use xlink:href="#DejaVuSans-30" transform="translate(63.623047 0)"/>
       <use xlink:href="#DejaVuSans-31" transform="translate(127.246094 0)"/>
       <use xlink:href="#DejaVuSans-39" transform="translate(190.869141 0)"/>
       <use xlink:href="#DejaVuSans-2d" transform="translate(254.492188 0)"/>
       <use xlink:href="#DejaVuSans-31" transform="translate(290.576172 0)"/>
       <use xlink:href="#DejaVuSans-31" transform="translate(354.199219 0)"/>
      </g>
     </g>
    </g>
    <g id="xtick_7">
     <g id="line2d_13">
      <path d="M 819.275534 318.04 
L 819.275534 27.24 
" clip-path="url(#pd00d60b838)" style="fill: none; stroke: #b0b0b0; stroke-opacity: 0.3; stroke-width: 0.8; stroke-linecap: square"/>
     </g>
     <g id="line2d_14">
      <g>
       <use xlink:href="#m9cba266278" x="819.275534" y="318.04" style="stroke: #000000; stroke-width: 0.8"/>
      </g>
     </g>
     <g id="text_7">
      <!-- 2020-01 -->
      <g transform="translate(798.384128 332.638438) scale(0.1 -0.1)">
       <use xlink:href="#DejaVuSans-32"/>
       <use xlink:href="#DejaVuSans-30" transform="translate(63.623047 0)"/>
       <use xlink:href="#DejaVuSans-32" transform="translate(127.246094 0)"/>
       <use xlink:href="#DejaVuSans-30" transform="translate(190.869141 0)"/>
       <use xlink:href="#DejaVuSans-2d" transform="translate(254.492188 0)"/>
       <use xlink:href="#DejaVuSans-30" transform="translate(290.576172 0)"/>
       <use xlink:href="#DejaVuSans-31" transform="translate(354.199219 0)"/>
      </g>
     </g>
    </g>
    <g id="text_8">
     <!-- Év -->
     <g transform="translate(452.21625 346.316563) scale(0.1 -0.1)">
      <defs>
       <path id="DejaVuSans-c9" d="M 628 4666 
L 3578 4666 
L 3578 4134 
L 1259 4134 
L 1259 2753 
L 3481 2753 
L 3481 2222 
L 1259 2222 
L 1259 531 
L 3634 531 
L 3634 0 
L 628 0 
L 628 4666 
z
M 2268 5921 
L 2846 5921 
L 2134 5096 
L 1655 5096 
L 2268 5921 
z
" transform="scale(0.015625)"/>
       <path id="DejaVuSans-76" d="M 191 3500 
L 800 3500 
L 1894 563 
L 2988 3500 
L 3597 3500 
L 2284 0 
L 1503 0 
L 191 3500 
z
" transform="scale(0.015625)"/>
      </defs>
      <use xlink:href="#DejaVuSans-c9"/>
      <use xlink:href="#DejaVuSans-76" transform="translate(63.183594 0)"/>
     </g>
    </g>
   </g>
   <g id="matplotlib.axis_2">
    <g id="ytick_1">
     <g id="line2d_15">
      <path d="M 63.47 295.048653 
L 853.2 295.048653 
" clip-path="url(#pd00d60b838)" style="fill: none; stroke: #b0b0b0; stroke-opacity: 0.3; stroke-width: 0.8; stroke-linecap: square"/>
     </g>
     <g id="line2d_16">
      <defs>
       <path id="m03e444d46d" d="M 0 0 
L -3.5 0 
" style="stroke: #000000; stroke-width: 0.8"/>
      </defs>
      <g>
       <use xlink:href="#m03e444d46d" x="63.47" y="295.048653" style="stroke: #000000; stroke-width: 0.8"/>
      </g>
     </g>
     <g id="text_9">
      <!-- 39000 -->
      <g transform="translate(24.6575 298.847871) scale(0.1 -0.1)">
       <use xlink:href="#DejaVuSans-33"/>
       <use xlink:href="#DejaVuSans-39" transform="translate(63.623047 0)"/>
       <use xlink:href="#DejaVuSans-30" transform="translate(127.246094 0)"/>
       <use xlink:href="#DejaVuSans-30" transform="translate(190.869141 0)"/>
       <use xlink:href="#DejaVuSans-30" transform="translate(254.492188 0)"/>
      </g>
     </g>
    </g>
    <g id="ytick_2">
     <g id="line2d_17">
      <path d="M 63.47 261.743154 
L 853.2 261.743154 
" clip-path="url(#pd00d60b838)" style="fill: none; stroke: #b0b0b0; stroke-opacity: 0.3; stroke-width: 0.8; stroke-linecap: square"/>
     </g>
     <g id="line2d_18">
      <g>
       <use xlink:href="#m03e444d46d" x="63.47" y="261.743154" style="stroke: #000000; stroke-width: 0.8"/>
      </g>
     </g>
     <g id="text_10">
      <!-- 40000 -->
      <g transform="translate(24.6575 265.542373) scale(0.1 -0.1)">
       <defs>
        <path id="DejaVuSans-34" d="M 2419 4116 
L 825 1625 
L 2419 1625 
L 2419 4116 
z
M 2253 4666 
L 3047 4666 
L 3047 1625 
L 3713 1625 
L 3713 1100 
L 3047 1100 
L 3047 0 
L 2419 0 
L 2419 1100 
L 313 1100 
L 313 1709 
L 2253 4666 
z
" transform="scale(0.015625)"/>
       </defs>
       <use xlink:href="#DejaVuSans-34"/>
       <use xlink:href="#DejaVuSans-30" transform="translate(63.623047 0)"/>
       <use xlink:href="#DejaVuSans-30" transform="translate(127.246094 0)"/>
       <use xlink:href="#DejaVuSans-30" transform="translate(190.869141 0)"/>
       <use xlink:href="#DejaVuSans-30" transform="translate(254.492188 0)"/>
      </g>
     </g>
    </g>
    <g id="ytick_3">
     <g id="line2d_19">
      <path d="M 63.47 228.437656 
L 853.2 228.437656 
" clip-path="url(#pd00d60b838)" style="fill: none; stroke: #b0b0b0; stroke-opacity: 0.3; stroke-width: 0.8; stroke-linecap: square"/>
     </g>
     <g id="line2d_20">
      <g>
       <use xlink:href="#m03e444d46d" x="63.47" y="228.437656" style="stroke: #000000; stroke-width: 0.8"/>
      </g>
     </g>
     <g id="text_11">
      <!-- 41000 -->
      <g transform="translate(24.6575 232.236874) scale(0.1 -0.1)">
       <use xlink:href="#DejaVuSans-34"/>
       <use xlink:href="#DejaVuSans-31" transform="translate(63.623047 0)"/>
       <use xlink:href="#DejaVuSans-30" transform="translate(127.246094 0)"/>
       <use xlink:href="#DejaVuSans-30" transform="translate(190.869141 0)"/>
       <use xlink:href="#DejaVuSans-30" transform="translate(254.492188 0)"/>
      </g>
     </g>
    </g>
    <g id="ytick_4">
     <g id="line2d_21">
      <path d="M 63.47 195.132157 
L 853.2 195.132157 
" clip-path="url(#pd00d60b838)" style="fill: none; stroke: #b0b0b0; stroke-opacity: 0.3; stroke-width: 0.8; stroke-linecap: square"/>
     </g>
     <g id="line2d_22">
      <g>
       <use xlink:href="#m03e444d46d" x="63.47" y="195.132157" style="stroke: #000000; stroke-width: 0.8"/>
      </g>
     </g>
     <g id="text_12">
      <!-- 42000 -->
      <g transform="translate(24.6575 198.931376) scale(0.1 -0.1)">
       <use xlink:href="#DejaVuSans-34"/>
       <use xlink:href="#DejaVuSans-32" transform="translate(63.623047 0)"/>
       <use xlink:href="#DejaVuSans-30" transform="translate(127.246094 0)"/>
       <use xlink:href="#DejaVuSans-30" transform="translate(190.869141 0)"/>
       <use xlink:href="#DejaVuSans-30" transform="translate(254.492188 0)"/>
      </g>
     </g>
    </g>
    <g id="ytick_5">
     <g id="line2d_23">
      <path d="M 63.47 161.826659 
L 853.2 161.826659 
" clip-path="url(#pd00d60b838)" style="fill: none; stroke: #b0b0b0; stroke-opacity: 0.3; stroke-width: 0.8; stroke-linecap: square"/>
     </g>
     <g id="line2d_24">
      <g>
       <use xlink:href="#m03e444d46d" x="63.47" y="161.826659" style="stroke: #000000; stroke-width: 0.8"/>
      </g>
     </g>
     <g id="text_13">
      <!-- 43000 -->
      <g transform="translate(24.6575 165.625878) scale(0.1 -0.1)">
       <use xlink:href="#DejaVuSans-34"/>
       <use xlink:href="#DejaVuSans-33" transform="translate(63.623047 0)"/>
       <use xlink:href="#DejaVuSans-30" transform="translate(127.246094 0)"/>
       <use xlink:href="#DejaVuSans-30" transform="translate(190.869141 0)"/>
       <use xlink:href="#DejaVuSans-30" transform="translate(254.492188 0)"/>
      </g>
     </g>
    </g>
    <g id="ytick_6">
     <g id="line2d_25">
      <path d="M 63.47 128.52116 
L 853.2 128.52116 
" clip-path="url(#pd00d60b838)" style="fill: none; stroke: #b0b0b0; stroke-opacity: 0.3; stroke-width: 0.8; stroke-linecap: square"/>
     </g>
     <g id="line2d_26">
      <g>
       <use xlink:href="#m03e444d46d" x="63.47" y="128.52116" style="stroke: #000000; stroke-width: 0.8"/>
      </g>
     </g>
     <g id="text_14">
      <!-- 44000 -->
      <g transform="translate(24.6575 132.320379) scale(0.1 -0.1)">
       <use xlink:href="#DejaVuSans-34"/>
       <use xlink:href="#DejaVuSans-34" transform="translate(63.623047 0)"/>
       <use xlink:href="#DejaVuSans-30" transform="translate(127.246094 0)"/>
       <use xlink:href="#DejaVuSans-30" transform="translate(190.869141 0)"/>
       <use xlink:href="#DejaVuSans-30" transform="translate(254.492188 0)"/>
      </g>
     </g>
    </g>
    <g id="ytick_7">
     <g id="line2d_27">
      <path d="M 63.47 95.215662 
L 853.2 95.215662 
" clip-path="url(#pd00d60b838)" style="fill: none; stroke: #b0b0b0; stroke-opacity: 0.3; stroke-width: 0.8; stroke-linecap: square"/>
     </g>
     <g id="line2d_28">
      <g>
       <use xlink:href="#m03e444d46d" x="63.47" y="95.215662" style="stroke: #000000; stroke-width: 0.8"/>
      </g>
     </g>
     <g id="text_15">
      <!-- 45000 -->
      <g transform="translate(24.6575 99.014881) scale(0.1 -0.1)">
       <use xlink:href="#DejaVuSans-34"/>
       <use xlink:href="#DejaVuSans-35" transform="translate(63.623047 0)"/>
       <use xlink:href="#DejaVuSans-30" transform="translate(127.246094 0)"/>
       <use xlink:href="#DejaVuSans-30" transform="translate(190.869141 0)"/>
       <use xlink:href="#DejaVuSans-30" transform="translate(254.492188 0)"/>
      </g>
     </g>
    </g>
    <g id="ytick_8">
     <g id="line2d_29">
      <path d="M 63.47 61.910163 
L 853.2 61.910163 
" clip-path="url(#pd00d60b838)" style="fill: none; stroke: #b0b0b0; stroke-opacity: 0.3; stroke-width: 0.8; stroke-linecap: square"/>
     </g>
     <g id="line2d_30">
      <g>
       <use xlink:href="#m03e444d46d" x="63.47" y="61.910163" style="stroke: #000000; stroke-width: 0.8"/>
      </g>
     </g>
     <g id="text_16">
      <!-- 46000 -->
      <g transform="translate(24.6575 65.709382) scale(0.1 -0.1)">
       <defs>
        <path id="DejaVuSans-36" d="M 2113 2584 
Q 1688 2584 1439 2293 
Q 1191 2003 1191 1497 
Q 1191 994 1439 701 
Q 1688 409 2113 409 
Q 2538 409 2786 701 
Q 3034 994 3034 1497 
Q 3034 2003 2786 2293 
Q 2538 2584 2113 2584 
z
M 3366 4563 
L 3366 3988 
Q 3128 4100 2886 4159 
Q 2644 4219 2406 4219 
Q 1781 4219 1451 3797 
Q 1122 3375 1075 2522 
Q 1259 2794 1537 2939 
Q 1816 3084 2150 3084 
Q 2853 3084 3261 2657 
Q 3669 2231 3669 1497 
Q 3669 778 3244 343 
Q 2819 -91 2113 -91 
Q 1303 -91 875 529 
Q 447 1150 447 2328 
Q 447 3434 972 4092 
Q 1497 4750 2381 4750 
Q 2619 4750 2861 4703 
Q 3103 4656 3366 4563 
z
" transform="scale(0.015625)"/>
       </defs>
       <use xlink:href="#DejaVuSans-34"/>
       <use xlink:href="#DejaVuSans-36" transform="translate(63.623047 0)"/>
       <use xlink:href="#DejaVuSans-30" transform="translate(127.246094 0)"/>
       <use xlink:href="#DejaVuSans-30" transform="translate(190.869141 0)"/>
       <use xlink:href="#DejaVuSans-30" transform="translate(254.492188 0)"/>
      </g>
     </g>
    </g>
    <g id="ytick_9">
     <g id="line2d_31">
      <path d="M 63.47 28.604665 
L 853.2 28.604665 
" clip-path="url(#pd00d60b838)" style="fill: none; stroke: #b0b0b0; stroke-opacity: 0.3; stroke-width: 0.8; stroke-linecap: square"/>
     </g>
     <g id="line2d_32">
      <g>
       <use xlink:href="#m03e444d46d" x="63.47" y="28.604665" style="stroke: #000000; stroke-width: 0.8"/>
      </g>
     </g>
     <g id="text_17">
      <!-- 47000 -->
      <g transform="translate(24.6575 32.403884) scale(0.1 -0.1)">
       <use xlink:href="#DejaVuSans-34"/>
       <use xlink:href="#DejaVuSans-37" transform="translate(63.623047 0)"/>
       <use xlink:href="#DejaVuSans-30" transform="translate(127.246094 0)"/>
       <use xlink:href="#DejaVuSans-30" transform="translate(190.869141 0)"/>
       <use xlink:href="#DejaVuSans-30" transform="translate(254.492188 0)"/>
      </g>
     </g>
    </g>
    <g id="text_18">
     <!-- BUX index -->
     <g transform="translate(18.577812 198.424375) rotate(-90) scale(0.1 -0.1)">
      <defs>
       <path id="DejaVuSans-42" d="M 1259 2228 
L 1259 519 
L 2272 519 
Q 2781 519 3026 730 
Q 3272 941 3272 1375 
Q 3272 1813 3026 2020 
Q 2781 2228 2272 2228 
L 1259 2228 
z
M 1259 4147 
L 1259 2741 
L 2194 2741 
Q 2656 2741 2882 2914 
Q 3109 3088 3109 3444 
Q 3109 3797 2882 3972 
Q 2656 4147 2194 4147 
L 1259 4147 
z
M 628 4666 
L 2241 4666 
Q 2963 4666 3353 4366 
Q 3744 4066 3744 3513 
Q 3744 3084 3544 2831 
Q 3344 2578 2956 2516 
Q 3422 2416 3680 2098 
Q 3938 1781 3938 1306 
Q 3938 681 3513 340 
Q 3088 0 2303 0 
L 628 0 
L 628 4666 
z
" transform="scale(0.015625)"/>
       <path id="DejaVuSans-55" d="M 556 4666 
L 1191 4666 
L 1191 1831 
Q 1191 1081 1462 751 
Q 1734 422 2344 422 
Q 2950 422 3222 751 
Q 3494 1081 3494 1831 
L 3494 4666 
L 4128 4666 
L 4128 1753 
Q 4128 841 3676 375 
Q 3225 -91 2344 -91 
Q 1459 -91 1007 375 
Q 556 841 556 1753 
L 556 4666 
z
" transform="scale(0.015625)"/>
       <path id="DejaVuSans-58" d="M 403 4666 
L 1081 4666 
L 2241 2931 
L 3406 4666 
L 4084 4666 
L 2584 2425 
L 4184 0 
L 3506 0 
L 2194 1984 
L 872 0 
L 191 0 
L 1856 2491 
L 403 4666 
z
" transform="scale(0.015625)"/>
       <path id="DejaVuSans-20" transform="scale(0.015625)"/>
       <path id="DejaVuSans-69" d="M 603 3500 
L 1178 3500 
L 1178 0 
L 603 0 
L 603 3500 
z
M 603 4863 
L 1178 4863 
L 1178 4134 
L 603 4134 
L 603 4863 
z
" transform="scale(0.015625)"/>
       <path id="DejaVuSans-6e" d="M 3513 2113 
L 3513 0 
L 2938 0 
L 2938 2094 
Q 2938 2591 2744 2837 
Q 2550 3084 2163 3084 
Q 1697 3084 1428 2787 
Q 1159 2491 1159 1978 
L 1159 0 
L 581 0 
L 581 3500 
L 1159 3500 
L 1159 2956 
Q 1366 3272 1645 3428 
Q 1925 3584 2291 3584 
Q 2894 3584 3203 3211 
Q 3513 2838 3513 2113 
z
" transform="scale(0.015625)"/>
       <path id="DejaVuSans-64" d="M 2906 2969 
L 2906 4863 
L 3481 4863 
L 3481 0 
L 2906 0 
L 2906 525 
Q 2725 213 2448 61 
Q 2172 -91 1784 -91 
Q 1150 -91 751 415 
Q 353 922 353 1747 
Q 353 2572 751 3078 
Q 1150 3584 1784 3584 
Q 2172 3584 2448 3432 
Q 2725 3281 2906 2969 
z
M 947 1747 
Q 947 1113 1208 752 
Q 1469 391 1925 391 
Q 2381 391 2643 752 
Q 2906 1113 2906 1747 
Q 2906 2381 2643 2742 
Q 2381 3103 1925 3103 
Q 1469 3103 1208 2742 
Q 947 2381 947 1747 
z
" transform="scale(0.015625)"/>
       <path id="DejaVuSans-65" d="M 3597 1894 
L 3597 1613 
L 953 1613 
Q 991 1019 1311 708 
Q 1631 397 2203 397 
Q 2534 397 2845 478 
Q 3156 559 3463 722 
L 3463 178 
Q 3153 47 2828 -22 
Q 2503 -91 2169 -91 
Q 1331 -91 842 396 
Q 353 884 353 1716 
Q 353 2575 817 3079 
Q 1281 3584 2069 3584 
Q 2775 3584 3186 3129 
Q 3597 2675 3597 1894 
z
M 3022 2063 
Q 3016 2534 2758 2815 
Q 2500 3097 2075 3097 
Q 1594 3097 1305 2825 
Q 1016 2553 972 2059 
L 3022 2063 
z
" transform="scale(0.015625)"/>
       <path id="DejaVuSans-78" d="M 3513 3500 
L 2247 1797 
L 3578 0 
L 2900 0 
L 1881 1375 
L 863 0 
L 184 0 
L 1544 1831 
L 300 3500 
L 978 3500 
L 1906 2253 
L 2834 3500 
L 3513 3500 
z
" transform="scale(0.015625)"/>
      </defs>
      <use xlink:href="#DejaVuSans-42"/>
      <use xlink:href="#DejaVuSans-55" transform="translate(68.603516 0)"/>
      <use xlink:href="#DejaVuSans-58" transform="translate(141.796875 0)"/>
      <use xlink:href="#DejaVuSans-20" transform="translate(210.302734 0)"/>
      <use xlink:href="#DejaVuSans-69" transform="translate(242.089844 0)"/>
      <use xlink:href="#DejaVuSans-6e" transform="translate(269.873047 0)"/>
      <use xlink:href="#DejaVuSans-64" transform="translate(333.251953 0)"/>
      <use xlink:href="#DejaVuSans-65" transform="translate(396.728516 0)"/>
      <use xlink:href="#DejaVuSans-78" transform="translate(456.501953 0)"/>
     </g>
    </g>
   </g>
   <g id="line2d_33">
    <path d="M 99.366818 274.564439 
L 101.339171 270.600418 
L 103.311523 272.647374 
L 105.283876 256.907862 
L 111.200934 242.776672 
L 113.173287 234.771695 
L 115.145639 235.622651 
L 117.117992 235.24863 
L 119.090345 232.232484 
L 125.007403 239.506738 
L 126.979755 241.751196 
L 128.952108 230.667792 
L 130.924461 222.441001 
L 132.896813 211.654682 
L 138.813871 231.977697 
L 140.786224 229.646312 
L 142.758576 234.476276 
L 144.730929 232.069953 
L 146.703282 230.275453 
L 152.62034 217.369906 
L 154.592692 223.575053 
L 156.565045 233.001508 
L 158.537398 233.248302 
L 160.50975 229.32558 
L 166.426808 233.201341 
L 168.399161 245.943359 
L 170.371513 241.851112 
L 172.343866 255.95699 
L 174.316219 271.581265 
L 180.233277 269.420738 
L 182.205629 245.487073 
L 184.177982 254.376644 
L 186.150335 265.118666 
L 188.122687 255.753493 
L 194.039745 239.981675 
L 196.012098 243.077421 
L 197.984451 242.331711 
L 199.956803 237.713903 
L 201.929156 234.612495 
L 207.846214 228.838987 
L 209.818566 234.463287 
L 211.790919 244.248442 
L 213.763272 250.651091 
L 215.735624 256.059238 
L 221.652682 241.977007 
L 223.625035 237.813154 
L 225.597388 225.543408 
L 227.56974 240.917226 
L 229.542093 252.136516 
L 235.459151 234.447633 
L 237.431503 241.343536 
L 239.403856 232.18186 
L 241.376209 217.279648 
L 249.265619 192.300857 
L 251.237972 194.660551 
L 253.210325 196.319498 
L 255.182677 196.605926 
L 257.15503 197.407922 
L 263.072088 208.282167 
L 265.044441 203.759281 
L 267.016793 217.906457 
L 268.989146 214.652177 
L 270.961499 205.664022 
L 276.878556 193.222753 
L 278.850909 188.026429 
L 280.823262 188.67189 
L 282.795614 199.447218 
L 284.767967 200.39709 
L 290.685025 200.897339 
L 292.657378 193.002604 
L 294.62973 187.609444 
L 296.602083 172.034128 
L 298.574436 163.800343 
L 304.491494 167.957535 
L 306.463846 167.611824 
L 308.436199 161.676451 
L 310.408551 168.15104 
L 320.270315 153.65249 
L 322.242667 143.063007 
L 324.21502 160.032492 
L 326.187373 159.681785 
L 332.104431 179.483902 
L 334.076783 177.809634 
L 338.021489 182.915034 
L 339.993841 202.613904 
L 345.910899 210.207891 
L 347.883252 225.62101 
L 349.855604 216.76974 
L 353.80031 226.165888 
L 359.717368 243.829792 
L 361.68972 258.924177 
L 363.662073 252.039597 
L 365.634426 252.141845 
L 367.606778 265.81242 
L 373.523836 274.042542 
L 375.496189 275.865352 
L 377.468541 255.586633 
L 379.440894 261.386119 
L 381.413247 260.989784 
L 387.330305 254.818608 
L 389.302657 246.194482 
L 391.27501 231.221329 
L 393.247363 225.910768 
L 395.219715 231.630987 
L 401.136773 224.630504 
L 403.109126 223.208026 
L 405.081479 225.985705 
L 407.053831 228.436324 
L 409.026184 223.123097 
L 416.915594 220.622187 
L 418.887947 242.015641 
L 420.8603 246.096231 
L 422.832652 242.153526 
L 428.74971 236.281434 
L 430.722063 231.021829 
L 432.694416 229.095772 
L 434.666768 235.94738 
L 436.639121 248.846932 
L 442.556179 245.920045 
L 444.528531 259.679879 
L 446.500884 259.580961 
L 448.473237 247.071749 
L 450.445589 252.440595 
L 456.362647 241.157692 
L 458.335 236.19384 
L 460.307353 228.931243 
L 462.279705 229.339569 
L 464.252058 227.883119 
L 470.169116 235.862117 
L 472.141469 250.837269 
L 474.113821 242.49957 
L 476.086174 237.116403 
L 478.058526 238.43963 
L 483.975584 237.583346 
L 485.947937 232.474948 
L 487.92029 228.741069 
L 489.892642 219.030185 
L 491.864995 204.882009 
L 497.782053 217.180064 
L 499.754406 216.207211 
L 501.726758 218.333767 
L 503.699111 216.660165 
L 505.671464 229.587362 
L 511.588521 228.223168 
L 513.560874 233.640641 
L 515.533227 236.177854 
L 517.505579 245.947355 
L 519.477932 251.431439 
L 525.39499 265.196601 
L 527.367343 260.497862 
L 529.339695 252.300379 
L 531.312048 248.774659 
L 533.284401 241.246284 
L 539.201459 232.034983 
L 541.173811 237.684594 
L 543.146164 257.172974 
L 545.118516 261.121341 
L 547.090869 261.546652 
L 556.952632 273.459696 
L 558.924985 281.902639 
L 560.897338 277.743782 
L 566.814396 273.018065 
L 568.786748 291.453657 
L 570.759101 304.821818 
L 574.703806 268.60009 
L 580.620864 271.487344 
L 582.593217 281.553598 
L 584.565569 269.953293 
L 586.537922 255.71819 
L 588.510275 251.336518 
L 594.427333 245.598314 
L 596.399685 263.176623 
L 598.372038 254.995127 
L 600.344391 259.513351 
L 602.316743 252.244093 
L 608.233801 234.4473 
L 610.206154 241.86943 
L 612.178506 230.761047 
L 614.150859 231.025493 
L 616.123212 224.543577 
L 622.04027 235.091761 
L 624.012622 233.498759 
L 625.984975 243.294573 
L 627.957328 243.948692 
L 629.92968 232.076615 
L 635.846738 241.720555 
L 637.819091 258.000282 
L 639.791444 281.16792 
L 641.763796 276.810895 
L 643.736149 267.521325 
L 649.653207 268.272364 
L 651.625559 278.678334 
L 653.597912 276.909812 
L 655.570265 279.516633 
L 657.542617 250.667078 
L 663.459675 237.30691 
L 665.432028 242.486581 
L 667.404381 248.265751 
L 669.376733 237.85745 
L 671.349086 234.221822 
L 677.266144 220.624852 
L 679.238497 200.262869 
L 683.183202 179.294394 
L 685.155554 189.824593 
L 691.072612 197.179113 
L 693.044965 180.039438 
L 695.017318 168.597667 
L 696.98967 189.817266 
L 704.879081 167.903247 
L 706.851434 153.939917 
L 708.823786 152.114442 
L 710.796139 141.903643 
L 712.768492 147.124946 
L 718.685549 160.538735 
L 720.657902 145.429363 
L 722.630255 154.621347 
L 724.602607 154.556735 
L 726.57496 149.016365 
L 732.492018 132.926479 
L 734.464371 141.217882 
L 736.436723 130.556126 
L 738.409076 140.03254 
L 740.381429 126.724329 
L 746.298487 118.048246 
L 748.270839 135.783091 
L 750.243192 141.853684 
L 752.215544 135.187256 
L 754.187897 138.351278 
L 760.104955 149.493633 
L 762.077308 160.219668 
L 764.04966 125.922665 
L 766.022013 122.457228 
L 767.994366 121.610269 
L 773.911424 107.192985 
L 775.883776 120.244078 
L 777.856129 108.421958 
L 779.828482 82.470314 
L 781.800834 69.898487 
L 787.717892 75.101805 
L 789.690245 94.038312 
L 791.662597 73.34061 
L 793.63495 63.752624 
L 795.607303 75.020873 
L 801.524361 62.427731 
L 815.330829 59.151802 
L 817.303182 57.515503 
L 817.303182 57.515503 
" clip-path="url(#pd00d60b838)" style="fill: none; stroke: #0000ff; stroke-linecap: square"/>
   </g>
   <g id="line2d_34">
    <path d="M 99.366818 241.562234 
L 101.339171 253.058402 
L 103.311523 267.346414 
L 105.283876 287.343122 
L 111.200934 283.901765 
L 113.173287 257.91991 
L 115.145639 244.142815 
L 117.117992 242.326745 
L 119.090345 238.472933 
L 125.007403 244.505338 
L 126.979755 238.330978 
L 128.952108 250.881261 
L 130.924461 233.975224 
L 132.896813 235.893652 
L 138.813871 236.036304 
L 140.786224 239.659707 
L 142.758576 231.958616 
L 144.730929 225.273915 
L 146.703282 229.381075 
L 152.62034 223.598993 
L 154.592692 218.853059 
L 156.565045 236.894671 
L 158.537398 218.936493 
L 160.50975 220.438613 
L 166.426808 226.619479 
L 168.399161 235.082549 
L 170.371513 237.665353 
L 172.343866 225.699986 
L 174.316219 237.229741 
L 180.233277 241.622139 
L 182.205629 251.65125 
L 184.177982 232.097649 
L 186.150335 250.05083 
L 188.122687 247.488351 
L 194.039745 251.573283 
L 196.012098 267.520267 
L 197.984451 249.608947 
L 199.956803 258.946681 
L 201.929156 238.621701 
L 207.846214 242.027843 
L 209.818566 230.971956 
L 211.790919 237.570218 
L 213.763272 260.62337 
L 215.735624 240.134607 
L 221.652682 250.37406 
L 223.625035 253.327986 
L 225.597388 261.28372 
L 227.56974 245.190708 
L 229.542093 249.368561 
L 235.459151 245.104321 
L 237.431503 223.009813 
L 239.403856 230.807304 
L 241.376209 231.571847 
L 243.348561 232.165599 
L 249.265619 210.237615 
L 251.237972 207.134907 
L 253.210325 225.950824 
L 255.182677 209.757835 
L 257.15503 209.828102 
L 263.072088 191.890808 
L 265.044441 202.843135 
L 267.016793 202.043412 
L 268.989146 215.193539 
L 270.961499 220.34034 
L 276.878556 195.452029 
L 278.850909 184.319318 
L 280.823262 202.962684 
L 282.795614 205.674069 
L 290.685025 185.647408 
L 294.62973 173.21578 
L 296.602083 173.830858 
L 298.574436 181.205313 
L 304.491494 177.416354 
L 306.463846 166.760408 
L 308.436199 180.123077 
L 310.408551 185.226556 
L 312.380904 171.799468 
L 318.297962 169.732058 
L 320.270315 151.760125 
L 322.242667 154.528425 
L 324.21502 149.786294 
L 326.187373 161.33877 
L 332.104431 165.02381 
L 334.076783 158.689258 
L 336.049136 161.167014 
L 338.021489 180.364233 
L 339.993841 178.899691 
L 345.910899 172.767165 
L 347.883252 170.991953 
L 349.855604 177.101306 
L 351.827957 172.899868 
L 353.80031 175.077845 
L 359.717368 203.531756 
L 361.68972 222.61942 
L 363.662073 226.49419 
L 365.634426 246.310933 
L 367.606778 256.272204 
L 373.523836 256.936113 
L 375.496189 276.029554 
L 377.468541 267.578781 
L 379.440894 269.222488 
L 381.413247 267.326734 
L 387.330305 262.955676 
L 389.302657 280.386997 
L 391.27501 262.972321 
L 393.247363 266.520807 
L 395.219715 279.096336 
L 401.136773 270.805176 
L 403.109126 255.116432 
L 405.081479 248.655458 
L 407.053831 244.338888 
L 409.026184 248.011257 
L 414.943242 228.829388 
L 416.915594 237.146686 
L 418.887947 221.686273 
L 420.8603 223.827416 
L 422.832652 234.397995 
L 428.74971 234.364716 
L 430.722063 220.486471 
L 432.694416 234.672589 
L 434.666768 228.05321 
L 436.639121 239.114946 
L 442.556179 240.62972 
L 444.528531 242.113087 
L 446.500884 243.011979 
L 448.473237 232.304951 
L 450.445589 241.517351 
L 456.362647 259.238319 
L 458.335 244.299388 
L 460.307353 239.789139 
L 462.279705 247.077649 
L 464.252058 242.700422 
L 470.169116 241.974581 
L 472.141469 245.275917 
L 474.113821 263.504746 
L 476.086174 242.88181 
L 478.058526 230.174145 
L 483.975584 230.358464 
L 485.947937 228.991693 
L 487.92029 232.802038 
L 489.892642 237.489614 
L 491.864995 231.745126 
L 497.782053 223.203459 
L 499.754406 210.729275 
L 501.726758 218.024069 
L 503.699111 220.081349 
L 505.671464 208.320255 
L 511.588521 219.554192 
L 513.560874 220.023627 
L 515.533227 223.120155 
L 517.505579 229.340802 
L 519.477932 245.966405 
L 525.39499 245.693869 
L 527.367343 248.545098 
L 529.339695 245.068121 
L 531.312048 244.405619 
L 533.284401 239.385179 
L 539.201459 233.403423 
L 541.173811 230.984675 
L 543.146164 241.119897 
L 545.118516 254.695095 
L 547.090869 255.688494 
L 553.007927 259.879355 
L 554.98028 274.316795 
L 556.952632 260.438676 
L 558.924985 271.68084 
L 560.897338 270.593476 
L 566.814396 270.874633 
L 568.786748 272.031082 
L 570.759101 287.506153 
L 572.731454 297.749377 
L 574.703806 289.111312 
L 580.620864 280.049445 
L 582.593217 288.449581 
L 584.565569 283.483517 
L 586.537922 281.188479 
L 588.510275 277.220483 
L 594.427333 267.812891 
L 596.399685 278.819878 
L 598.372038 270.443204 
L 600.344391 272.668158 
L 602.316743 261.887248 
L 608.233801 249.147959 
L 610.206154 247.244394 
L 612.178506 253.588823 
L 614.150859 232.324165 
L 616.123212 234.560788 
L 622.04027 233.047108 
L 624.012622 245.286058 
L 625.984975 238.889852 
L 627.957328 231.041476 
L 629.92968 229.269603 
L 635.846738 221.639602 
L 637.819091 234.787726 
L 639.791444 246.192923 
L 641.763796 237.955357 
L 643.736149 244.739467 
L 649.653207 244.593031 
L 651.625559 249.731082 
L 653.597912 277.116244 
L 655.570265 257.280405 
L 657.542617 287.866269 
L 663.459675 258.181395 
L 665.432028 253.734272 
L 667.404381 267.473688 
L 669.376733 249.443116 
L 671.349086 244.995102 
L 677.266144 236.826868 
L 679.238497 240.79989 
L 681.210849 238.201388 
L 683.183202 221.42182 
L 685.155554 210.137925 
L 691.072612 220.840181 
L 693.044965 220.24777 
L 695.017318 214.582225 
L 696.98967 194.289032 
L 698.962023 177.742061 
L 704.879081 177.424258 
L 706.851434 163.306243 
L 708.823786 145.22793 
L 710.796139 156.589283 
L 712.768492 132.286581 
L 718.685549 159.038177 
L 720.657902 152.391416 
L 722.630255 141.433482 
L 724.602607 152.915594 
L 726.57496 136.468538 
L 732.492018 149.480634 
L 734.464371 130.051791 
L 736.436723 124.645535 
L 738.409076 126.141868 
L 740.381429 137.792424 
L 746.298487 123.659025 
L 748.270839 133.582951 
L 750.243192 127.618288 
L 752.215544 134.997399 
L 754.187897 136.38718 
L 760.104955 116.535439 
L 762.077308 127.903852 
L 764.04966 133.403721 
L 766.022013 116.128707 
L 767.994366 118.451918 
L 773.911424 122.780365 
L 775.883776 130.173359 
L 777.856129 135.757096 
L 779.828482 115.114464 
L 781.800834 96.736358 
L 787.717892 81.011058 
L 789.690245 81.818533 
L 791.662597 94.343005 
L 793.63495 71.573146 
L 795.607303 73.692449 
L 801.524361 84.501447 
L 803.496713 77.595829 
L 805.469066 97.022244 
L 807.441419 67.774146 
L 809.413771 66.362484 
L 815.330829 71.322452 
L 817.303182 40.458182 
L 817.303182 40.458182 
" clip-path="url(#pd00d60b838)" style="fill: none; stroke: #008000; stroke-linecap: square"/>
   </g>
   <g id="patch_3">
    <path d="M 63.47 318.04 
L 63.47 27.24 
" style="fill: none; stroke: #000000; stroke-width: 0.8; stroke-linejoin: miter; stroke-linecap: square"/>
   </g>
   <g id="patch_4">
    <path d="M 853.2 318.04 
L 853.2 27.24 
" style="fill: none; stroke: #000000; stroke-width: 0.8; stroke-linejoin: miter; stroke-linecap: square"/>
   </g>
   <g id="patch_5">
    <path d="M 63.47 318.04 
L 853.2 318.04 
" style="fill: none; stroke: #000000; stroke-width: 0.8; stroke-linejoin: miter; stroke-linecap: square"/>
   </g>
   <g id="patch_6">
    <path d="M 63.47 27.24 
L 853.2 27.24 
" style="fill: none; stroke: #000000; stroke-width: 0.8; stroke-linejoin: miter; stroke-linecap: square"/>
   </g>
   <g id="text_19">
    <!-- BUX index valós és előrejelzett alakulása 2019-ben -->
    <g transform="translate(304.73125 21.24) scale(0.12 -0.12)">
     <defs>
      <path id="DejaVuSans-61" d="M 2194 1759 
Q 1497 1759 1228 1600 
Q 959 1441 959 1056 
Q 959 750 1161 570 
Q 1363 391 1709 391 
Q 2188 391 2477 730 
Q 2766 1069 2766 1631 
L 2766 1759 
L 2194 1759 
z
M 3341 1997 
L 3341 0 
L 2766 0 
L 2766 531 
Q 2569 213 2275 61 
Q 1981 -91 1556 -91 
Q 1019 -91 701 211 
Q 384 513 384 1019 
Q 384 1609 779 1909 
Q 1175 2209 1959 2209 
L 2766 2209 
L 2766 2266 
Q 2766 2663 2505 2880 
Q 2244 3097 1772 3097 
Q 1472 3097 1187 3025 
Q 903 2953 641 2809 
L 641 3341 
Q 956 3463 1253 3523 
Q 1550 3584 1831 3584 
Q 2591 3584 2966 3190 
Q 3341 2797 3341 1997 
z
" transform="scale(0.015625)"/>
      <path id="DejaVuSans-6c" d="M 603 4863 
L 1178 4863 
L 1178 0 
L 603 0 
L 603 4863 
z
" transform="scale(0.015625)"/>
      <path id="DejaVuSans-f3" d="M 1959 3097 
Q 1497 3097 1228 2736 
Q 959 2375 959 1747 
Q 959 1119 1226 758 
Q 1494 397 1959 397 
Q 2419 397 2687 759 
Q 2956 1122 2956 1747 
Q 2956 2369 2687 2733 
Q 2419 3097 1959 3097 
z
M 1959 3584 
Q 2709 3584 3137 3096 
Q 3566 2609 3566 1747 
Q 3566 888 3137 398 
Q 2709 -91 1959 -91 
Q 1206 -91 779 398 
Q 353 888 353 1747 
Q 353 2609 779 3096 
Q 1206 3584 1959 3584 
z
M 2394 5119 
L 3016 5119 
L 1998 3944 
L 1519 3944 
L 2394 5119 
z
" transform="scale(0.015625)"/>
      <path id="DejaVuSans-73" d="M 2834 3397 
L 2834 2853 
Q 2591 2978 2328 3040 
Q 2066 3103 1784 3103 
Q 1356 3103 1142 2972 
Q 928 2841 928 2578 
Q 928 2378 1081 2264 
Q 1234 2150 1697 2047 
L 1894 2003 
Q 2506 1872 2764 1633 
Q 3022 1394 3022 966 
Q 3022 478 2636 193 
Q 2250 -91 1575 -91 
Q 1294 -91 989 -36 
Q 684 19 347 128 
L 347 722 
Q 666 556 975 473 
Q 1284 391 1588 391 
Q 1994 391 2212 530 
Q 2431 669 2431 922 
Q 2431 1156 2273 1281 
Q 2116 1406 1581 1522 
L 1381 1569 
Q 847 1681 609 1914 
Q 372 2147 372 2553 
Q 372 3047 722 3315 
Q 1072 3584 1716 3584 
Q 2034 3584 2315 3537 
Q 2597 3491 2834 3397 
z
" transform="scale(0.015625)"/>
      <path id="DejaVuSans-e9" d="M 3597 1894 
L 3597 1613 
L 953 1613 
Q 991 1019 1311 708 
Q 1631 397 2203 397 
Q 2534 397 2845 478 
Q 3156 559 3463 722 
L 3463 178 
Q 3153 47 2828 -22 
Q 2503 -91 2169 -91 
Q 1331 -91 842 396 
Q 353 884 353 1716 
Q 353 2575 817 3079 
Q 1281 3584 2069 3584 
Q 2775 3584 3186 3129 
Q 3597 2675 3597 1894 
z
M 3022 2063 
Q 3016 2534 2758 2815 
Q 2500 3097 2075 3097 
Q 1594 3097 1305 2825 
Q 1016 2553 972 2059 
L 3022 2063 
z
M 2466 5119 
L 3088 5119 
L 2070 3944 
L 1591 3944 
L 2466 5119 
z
" transform="scale(0.015625)"/>
      <path id="DejaVuSans-151" d="M 2892 5119 
L 3448 5119 
L 2673 3944 
L 2251 3944 
L 2892 5119 
z
M 1848 5119 
L 2379 5119 
L 1682 3944 
L 1254 3944 
L 1848 5119 
z
M 1959 3097 
Q 1497 3097 1228 2736 
Q 959 2375 959 1747 
Q 959 1119 1226 758 
Q 1494 397 1959 397 
Q 2419 397 2687 759 
Q 2956 1122 2956 1747 
Q 2956 2369 2687 2733 
Q 2419 3097 1959 3097 
z
M 1959 3584 
Q 2709 3584 3137 3096 
Q 3566 2609 3566 1747 
Q 3566 888 3137 398 
Q 2709 -91 1959 -91 
Q 1206 -91 779 398 
Q 353 888 353 1747 
Q 353 2609 779 3096 
Q 1206 3584 1959 3584 
z
" transform="scale(0.015625)"/>
      <path id="DejaVuSans-72" d="M 2631 2963 
Q 2534 3019 2420 3045 
Q 2306 3072 2169 3072 
Q 1681 3072 1420 2755 
Q 1159 2438 1159 1844 
L 1159 0 
L 581 0 
L 581 3500 
L 1159 3500 
L 1159 2956 
Q 1341 3275 1631 3429 
Q 1922 3584 2338 3584 
Q 2397 3584 2469 3576 
Q 2541 3569 2628 3553 
L 2631 2963 
z
" transform="scale(0.015625)"/>
      <path id="DejaVuSans-6a" d="M 603 3500 
L 1178 3500 
L 1178 -63 
Q 1178 -731 923 -1031 
Q 669 -1331 103 -1331 
L -116 -1331 
L -116 -844 
L 38 -844 
Q 366 -844 484 -692 
Q 603 -541 603 -63 
L 603 3500 
z
M 603 4863 
L 1178 4863 
L 1178 4134 
L 603 4134 
L 603 4863 
z
" transform="scale(0.015625)"/>
      <path id="DejaVuSans-7a" d="M 353 3500 
L 3084 3500 
L 3084 2975 
L 922 459 
L 3084 459 
L 3084 0 
L 275 0 
L 275 525 
L 2438 3041 
L 353 3041 
L 353 3500 
z
" transform="scale(0.015625)"/>
      <path id="DejaVuSans-74" d="M 1172 4494 
L 1172 3500 
L 2356 3500 
L 2356 3053 
L 1172 3053 
L 1172 1153 
Q 1172 725 1289 603 
Q 1406 481 1766 481 
L 2356 481 
L 2356 0 
L 1766 0 
Q 1100 0 847 248 
Q 594 497 594 1153 
L 594 3053 
L 172 3053 
L 172 3500 
L 594 3500 
L 594 4494 
L 1172 4494 
z
" transform="scale(0.015625)"/>
      <path id="DejaVuSans-6b" d="M 581 4863 
L 1159 4863 
L 1159 1991 
L 2875 3500 
L 3609 3500 
L 1753 1863 
L 3688 0 
L 2938 0 
L 1159 1709 
L 1159 0 
L 581 0 
L 581 4863 
z
" transform="scale(0.015625)"/>
      <path id="DejaVuSans-75" d="M 544 1381 
L 544 3500 
L 1119 3500 
L 1119 1403 
Q 1119 906 1312 657 
Q 1506 409 1894 409 
Q 2359 409 2629 706 
Q 2900 1003 2900 1516 
L 2900 3500 
L 3475 3500 
L 3475 0 
L 2900 0 
L 2900 538 
Q 2691 219 2414 64 
Q 2138 -91 1772 -91 
Q 1169 -91 856 284 
Q 544 659 544 1381 
z
M 1991 3584 
L 1991 3584 
z
" transform="scale(0.015625)"/>
      <path id="DejaVuSans-e1" d="M 2194 1759 
Q 1497 1759 1228 1600 
Q 959 1441 959 1056 
Q 959 750 1161 570 
Q 1363 391 1709 391 
Q 2188 391 2477 730 
Q 2766 1069 2766 1631 
L 2766 1759 
L 2194 1759 
z
M 3341 1997 
L 3341 0 
L 2766 0 
L 2766 531 
Q 2569 213 2275 61 
Q 1981 -91 1556 -91 
Q 1019 -91 701 211 
Q 384 513 384 1019 
Q 384 1609 779 1909 
Q 1175 2209 1959 2209 
L 2766 2209 
L 2766 2266 
Q 2766 2663 2505 2880 
Q 2244 3097 1772 3097 
Q 1472 3097 1187 3025 
Q 903 2953 641 2809 
L 641 3341 
Q 956 3463 1253 3523 
Q 1550 3584 1831 3584 
Q 2591 3584 2966 3190 
Q 3341 2797 3341 1997 
z
M 2290 5119 
L 2912 5119 
L 1894 3944 
L 1415 3944 
L 2290 5119 
z
" transform="scale(0.015625)"/>
      <path id="DejaVuSans-62" d="M 3116 1747 
Q 3116 2381 2855 2742 
Q 2594 3103 2138 3103 
Q 1681 3103 1420 2742 
Q 1159 2381 1159 1747 
Q 1159 1113 1420 752 
Q 1681 391 2138 391 
Q 2594 391 2855 752 
Q 3116 1113 3116 1747 
z
M 1159 2969 
Q 1341 3281 1617 3432 
Q 1894 3584 2278 3584 
Q 2916 3584 3314 3078 
Q 3713 2572 3713 1747 
Q 3713 922 3314 415 
Q 2916 -91 2278 -91 
Q 1894 -91 1617 61 
Q 1341 213 1159 525 
L 1159 0 
L 581 0 
L 581 4863 
L 1159 4863 
L 1159 2969 
z
" transform="scale(0.015625)"/>
     </defs>
     <use xlink:href="#DejaVuSans-42"/>
     <use xlink:href="#DejaVuSans-55" transform="translate(68.603516 0)"/>
     <use xlink:href="#DejaVuSans-58" transform="translate(141.796875 0)"/>
     <use xlink:href="#DejaVuSans-20" transform="translate(210.302734 0)"/>
     <use xlink:href="#DejaVuSans-69" transform="translate(242.089844 0)"/>
     <use xlink:href="#DejaVuSans-6e" transform="translate(269.873047 0)"/>
     <use xlink:href="#DejaVuSans-64" transform="translate(333.251953 0)"/>
     <use xlink:href="#DejaVuSans-65" transform="translate(396.728516 0)"/>
     <use xlink:href="#DejaVuSans-78" transform="translate(456.501953 0)"/>
     <use xlink:href="#DejaVuSans-20" transform="translate(515.681641 0)"/>
     <use xlink:href="#DejaVuSans-76" transform="translate(547.46875 0)"/>
     <use xlink:href="#DejaVuSans-61" transform="translate(606.648438 0)"/>
     <use xlink:href="#DejaVuSans-6c" transform="translate(667.927734 0)"/>
     <use xlink:href="#DejaVuSans-f3" transform="translate(695.710938 0)"/>
     <use xlink:href="#DejaVuSans-73" transform="translate(756.892578 0)"/>
     <use xlink:href="#DejaVuSans-20" transform="translate(808.992188 0)"/>
     <use xlink:href="#DejaVuSans-e9" transform="translate(840.779297 0)"/>
     <use xlink:href="#DejaVuSans-73" transform="translate(902.302734 0)"/>
     <use xlink:href="#DejaVuSans-20" transform="translate(954.402344 0)"/>
     <use xlink:href="#DejaVuSans-65" transform="translate(986.189453 0)"/>
     <use xlink:href="#DejaVuSans-6c" transform="translate(1047.712891 0)"/>
     <use xlink:href="#DejaVuSans-151" transform="translate(1075.496094 0)"/>
     <use xlink:href="#DejaVuSans-72" transform="translate(1136.677734 0)"/>
     <use xlink:href="#DejaVuSans-65" transform="translate(1175.541016 0)"/>
     <use xlink:href="#DejaVuSans-6a" transform="translate(1237.064453 0)"/>
     <use xlink:href="#DejaVuSans-65" transform="translate(1264.847656 0)"/>
     <use xlink:href="#DejaVuSans-6c" transform="translate(1326.371094 0)"/>
     <use xlink:href="#DejaVuSans-7a" transform="translate(1354.154297 0)"/>
     <use xlink:href="#DejaVuSans-65" transform="translate(1406.644531 0)"/>
     <use xlink:href="#DejaVuSans-74" transform="translate(1468.167969 0)"/>
     <use xlink:href="#DejaVuSans-74" transform="translate(1507.376953 0)"/>
     <use xlink:href="#DejaVuSans-20" transform="translate(1546.585938 0)"/>
     <use xlink:href="#DejaVuSans-61" transform="translate(1578.373047 0)"/>
     <use xlink:href="#DejaVuSans-6c" transform="translate(1639.652344 0)"/>
     <use xlink:href="#DejaVuSans-61" transform="translate(1667.435547 0)"/>
     <use xlink:href="#DejaVuSans-6b" transform="translate(1728.714844 0)"/>
     <use xlink:href="#DejaVuSans-75" transform="translate(1783.5 0)"/>
     <use xlink:href="#DejaVuSans-6c" transform="translate(1846.878906 0)"/>
     <use xlink:href="#DejaVuSans-e1" transform="translate(1874.662109 0)"/>
     <use xlink:href="#DejaVuSans-73" transform="translate(1935.941406 0)"/>
     <use xlink:href="#DejaVuSans-61" transform="translate(1988.041016 0)"/>
     <use xlink:href="#DejaVuSans-20" transform="translate(2049.320312 0)"/>
     <use xlink:href="#DejaVuSans-32" transform="translate(2081.107422 0)"/>
     <use xlink:href="#DejaVuSans-30" transform="translate(2144.730469 0)"/>
     <use xlink:href="#DejaVuSans-31" transform="translate(2208.353516 0)"/>
     <use xlink:href="#DejaVuSans-39" transform="translate(2271.976562 0)"/>
     <use xlink:href="#DejaVuSans-2d" transform="translate(2335.599609 0)"/>
     <use xlink:href="#DejaVuSans-62" transform="translate(2371.683594 0)"/>
     <use xlink:href="#DejaVuSans-65" transform="translate(2435.160156 0)"/>
     <use xlink:href="#DejaVuSans-6e" transform="translate(2496.683594 0)"/>
    </g>
   </g>
   <g id="legend_1">
    <g id="patch_7">
     <path d="M 70.47 65.39625 
L 212.190313 65.39625 
Q 214.190313 65.39625 214.190313 63.39625 
L 214.190313 34.24 
Q 214.190313 32.24 212.190313 32.24 
L 70.47 32.24 
Q 68.47 32.24 68.47 34.24 
L 68.47 63.39625 
Q 68.47 65.39625 70.47 65.39625 
z
" style="fill: #ffffff; opacity: 0.8; stroke: #cccccc; stroke-linejoin: miter"/>
    </g>
    <g id="line2d_35">
     <path d="M 72.47 40.738438 
L 82.47 40.738438 
L 92.47 40.738438 
" style="fill: none; stroke: #0000ff; stroke-linecap: square"/>
    </g>
    <g id="text_20">
     <!-- BUX - Tényadat -->
     <g transform="translate(100.47 44.238438) scale(0.1 -0.1)">
      <defs>
       <path id="DejaVuSans-54" d="M -19 4666 
L 3928 4666 
L 3928 4134 
L 2272 4134 
L 2272 0 
L 1638 0 
L 1638 4134 
L -19 4134 
L -19 4666 
z
" transform="scale(0.015625)"/>
       <path id="DejaVuSans-79" d="M 2059 -325 
Q 1816 -950 1584 -1140 
Q 1353 -1331 966 -1331 
L 506 -1331 
L 506 -850 
L 844 -850 
Q 1081 -850 1212 -737 
Q 1344 -625 1503 -206 
L 1606 56 
L 191 3500 
L 800 3500 
L 1894 763 
L 2988 3500 
L 3597 3500 
L 2059 -325 
z
" transform="scale(0.015625)"/>
      </defs>
      <use xlink:href="#DejaVuSans-42"/>
      <use xlink:href="#DejaVuSans-55" transform="translate(68.603516 0)"/>
      <use xlink:href="#DejaVuSans-58" transform="translate(141.796875 0)"/>
      <use xlink:href="#DejaVuSans-20" transform="translate(210.302734 0)"/>
      <use xlink:href="#DejaVuSans-2d" transform="translate(242.089844 0)"/>
      <use xlink:href="#DejaVuSans-20" transform="translate(278.173828 0)"/>
      <use xlink:href="#DejaVuSans-54" transform="translate(309.960938 0)"/>
      <use xlink:href="#DejaVuSans-e9" transform="translate(354.044922 0)"/>
      <use xlink:href="#DejaVuSans-6e" transform="translate(415.568359 0)"/>
      <use xlink:href="#DejaVuSans-79" transform="translate(478.947266 0)"/>
      <use xlink:href="#DejaVuSans-61" transform="translate(538.126953 0)"/>
      <use xlink:href="#DejaVuSans-64" transform="translate(599.40625 0)"/>
      <use xlink:href="#DejaVuSans-61" transform="translate(662.882812 0)"/>
      <use xlink:href="#DejaVuSans-74" transform="translate(724.162109 0)"/>
     </g>
    </g>
    <g id="line2d_36">
     <path d="M 72.47 55.816563 
L 82.47 55.816563 
L 92.47 55.816563 
" style="fill: none; stroke: #008000; stroke-linecap: square"/>
    </g>
    <g id="text_21">
     <!-- BUX Előrejelzett érték -->
     <g transform="translate(100.47 59.316563) scale(0.1 -0.1)">
      <defs>
       <path id="DejaVuSans-45" d="M 628 4666 
L 3578 4666 
L 3578 4134 
L 1259 4134 
L 1259 2753 
L 3481 2753 
L 3481 2222 
L 1259 2222 
L 1259 531 
L 3634 531 
L 3634 0 
L 628 0 
L 628 4666 
z
" transform="scale(0.015625)"/>
      </defs>
      <use xlink:href="#DejaVuSans-42"/>
      <use xlink:href="#DejaVuSans-55" transform="translate(68.603516 0)"/>
      <use xlink:href="#DejaVuSans-58" transform="translate(141.796875 0)"/>
      <use xlink:href="#DejaVuSans-20" transform="translate(210.302734 0)"/>
      <use xlink:href="#DejaVuSans-45" transform="translate(242.089844 0)"/>
      <use xlink:href="#DejaVuSans-6c" transform="translate(305.273438 0)"/>
      <use xlink:href="#DejaVuSans-151" transform="translate(333.056641 0)"/>
      <use xlink:href="#DejaVuSans-72" transform="translate(394.238281 0)"/>
      <use xlink:href="#DejaVuSans-65" transform="translate(433.101562 0)"/>
      <use xlink:href="#DejaVuSans-6a" transform="translate(494.625 0)"/>
      <use xlink:href="#DejaVuSans-65" transform="translate(522.408203 0)"/>
      <use xlink:href="#DejaVuSans-6c" transform="translate(583.931641 0)"/>
      <use xlink:href="#DejaVuSans-7a" transform="translate(611.714844 0)"/>
      <use xlink:href="#DejaVuSans-65" transform="translate(664.205078 0)"/>
      <use xlink:href="#DejaVuSans-74" transform="translate(725.728516 0)"/>
      <use xlink:href="#DejaVuSans-74" transform="translate(764.9375 0)"/>
      <use xlink:href="#DejaVuSans-20" transform="translate(804.146484 0)"/>
      <use xlink:href="#DejaVuSans-e9" transform="translate(835.933594 0)"/>
      <use xlink:href="#DejaVuSans-72" transform="translate(897.457031 0)"/>
      <use xlink:href="#DejaVuSans-74" transform="translate(938.570312 0)"/>
      <use xlink:href="#DejaVuSans-e9" transform="translate(977.779297 0)"/>
      <use xlink:href="#DejaVuSans-6b" transform="translate(1039.302734 0)"/>
     </g>
    </g>
   </g>
  </g>
 </g>
 <defs>
  <clipPath id="pd00d60b838">
   <rect x="63.47" y="27.24" width="789.73" height="290.8"/>
  </clipPath>
 </defs>
</svg>
