<?xml version="1.0" encoding="utf-8" standalone="no"?>
<!DOCTYPE svg PUBLIC "-//W3C//DTD SVG 1.1//EN"
  "http://www.w3.org/Graphics/SVG/1.1/DTD/svg11.dtd">
<svg xmlns:xlink="http://www.w3.org/1999/xlink" width="864pt" height="360pt" viewBox="0 0 864 360" xmlns="http://www.w3.org/2000/svg" version="1.1">
 <metadata>
  <rdf:RDF xmlns:dc="http://purl.org/dc/elements/1.1/" xmlns:cc="http://creativecommons.org/ns#" xmlns:rdf="http://www.w3.org/1999/02/22-rdf-syntax-ns#">
   <cc:Work>
    <dc:type rdf:resource="http://purl.org/dc/dcmitype/StillImage"/>
    <dc:date>2025-06-11T17:26:15.921179</dc:date>
    <dc:format>image/svg+xml</dc:format>
    <dc:creator>
     <cc:Agent>
      <dc:title>Matplotlib v3.10.3, https://matplotlib.org/</dc:title>
     </cc:Agent>
    </dc:creator>
   </cc:Work>
  </rdf:RDF>
 </metadata>
 <defs>
  <style type="text/css">*{stroke-linejoin: round; stroke-linecap: butt}</style>
 </defs>
 <g id="figure_1">
  <g id="patch_1">
   <path d="M 0 360 
L 864 360 
L 864 0 
L 0 0 
z
" style="fill: #ffffff"/>
  </g>
  <g id="axes_1">
   <g id="patch_2">
    <path d="M 51.32 318.04 
L 853.2 318.04 
L 853.2 27.24 
L 51.32 27.24 
z
" style="fill: #ffffff"/>
   </g>
   <g id="matplotlib.axis_1">
    <g id="xtick_1">
     <g id="line2d_1">
      <path d="M 87.769091 318.04 
L 87.769091 27.24 
" clip-path="url(#p765b8e7506)" style="fill: none; stroke: #b0b0b0; stroke-opacity: 0.3; stroke-width: 0.8; stroke-linecap: square"/>
     </g>
     <g id="line2d_2">
      <defs>
       <path id="m0be03fbf4c" d="M 0 0 
L 0 3.5 
" style="stroke: #000000; stroke-width: 0.8"/>
      </defs>
      <g>
       <use xlink:href="#m0be03fbf4c" x="87.769091" y="318.04" style="stroke: #000000; stroke-width: 0.8"/>
      </g>
     </g>
     <g id="text_1">
      <!-- 2019-01 -->
      <g transform="translate(66.877685 332.638438) scale(0.1 -0.1)">
       <defs>
        <path id="DejaVuSans-32" d="M 1228 531 
L 3431 531 
L 3431 0 
L 469 0 
L 469 531 
Q 828 903 1448 1529 
Q 2069 2156 2228 2338 
Q 2531 2678 2651 2914 
Q 2772 3150 2772 3378 
Q 2772 3750 2511 3984 
Q 2250 4219 1831 4219 
Q 1534 4219 1204 4116 
Q 875 4013 500 3803 
L 500 4441 
Q 881 4594 1212 4672 
Q 1544 4750 1819 4750 
Q 2544 4750 2975 4387 
Q 3406 4025 3406 3419 
Q 3406 3131 3298 2873 
Q 3191 2616 2906 2266 
Q 2828 2175 2409 1742 
Q 1991 1309 1228 531 
z
" transform="scale(0.015625)"/>
        <path id="DejaVuSans-30" d="M 2034 4250 
Q 1547 4250 1301 3770 
Q 1056 3291 1056 2328 
Q 1056 1369 1301 889 
Q 1547 409 2034 409 
Q 2525 409 2770 889 
Q 3016 1369 3016 2328 
Q 3016 3291 2770 3770 
Q 2525 4250 2034 4250 
z
M 2034 4750 
Q 2819 4750 3233 4129 
Q 3647 3509 3647 2328 
Q 3647 1150 3233 529 
Q 2819 -91 2034 -91 
Q 1250 -91 836 529 
Q 422 1150 422 2328 
Q 422 3509 836 4129 
Q 1250 4750 2034 4750 
z
" transform="scale(0.015625)"/>
        <path id="DejaVuSans-31" d="M 794 531 
L 1825 531 
L 1825 4091 
L 703 3866 
L 703 4441 
L 1819 4666 
L 2450 4666 
L 2450 531 
L 3481 531 
L 3481 0 
L 794 0 
L 794 531 
z
" transform="scale(0.015625)"/>
        <path id="DejaVuSans-39" d="M 703 97 
L 703 672 
Q 941 559 1184 500 
Q 1428 441 1663 441 
Q 2288 441 2617 861 
Q 2947 1281 2994 2138 
Q 2813 1869 2534 1725 
Q 2256 1581 1919 1581 
Q 1219 1581 811 2004 
Q 403 2428 403 3163 
Q 403 3881 828 4315 
Q 1253 4750 1959 4750 
Q 2769 4750 3195 4129 
Q 3622 3509 3622 2328 
Q 3622 1225 3098 567 
Q 2575 -91 1691 -91 
Q 1453 -91 1209 -44 
Q 966 3 703 97 
z
M 1959 2075 
Q 2384 2075 2632 2365 
Q 2881 2656 2881 3163 
Q 2881 3666 2632 3958 
Q 2384 4250 1959 4250 
Q 1534 4250 1286 3958 
Q 1038 3666 1038 3163 
Q 1038 2656 1286 2365 
Q 1534 2075 1959 2075 
z
" transform="scale(0.015625)"/>
        <path id="DejaVuSans-2d" d="M 313 2009 
L 1997 2009 
L 1997 1497 
L 313 1497 
L 313 2009 
z
" transform="scale(0.015625)"/>
       </defs>
       <use xlink:href="#DejaVuSans-32"/>
       <use xlink:href="#DejaVuSans-30" transform="translate(63.623047 0)"/>
       <use xlink:href="#DejaVuSans-31" transform="translate(127.246094 0)"/>
       <use xlink:href="#DejaVuSans-39" transform="translate(190.869141 0)"/>
       <use xlink:href="#DejaVuSans-2d" transform="translate(254.492188 0)"/>
       <use xlink:href="#DejaVuSans-30" transform="translate(290.576172 0)"/>
       <use xlink:href="#DejaVuSans-31" transform="translate(354.199219 0)"/>
      </g>
     </g>
    </g>
    <g id="xtick_2">
     <g id="line2d_3">
      <path d="M 205.928232 318.04 
L 205.928232 27.24 
" clip-path="url(#p765b8e7506)" style="fill: none; stroke: #b0b0b0; stroke-opacity: 0.3; stroke-width: 0.8; stroke-linecap: square"/>
     </g>
     <g id="line2d_4">
      <g>
       <use xlink:href="#m0be03fbf4c" x="205.928232" y="318.04" style="stroke: #000000; stroke-width: 0.8"/>
      </g>
     </g>
     <g id="text_2">
      <!-- 2019-03 -->
      <g transform="translate(185.036826 332.638438) scale(0.1 -0.1)">
       <defs>
        <path id="DejaVuSans-33" d="M 2597 2516 
Q 3050 2419 3304 2112 
Q 3559 1806 3559 1356 
Q 3559 666 3084 287 
Q 2609 -91 1734 -91 
Q 1441 -91 1130 -33 
Q 819 25 488 141 
L 488 750 
Q 750 597 1062 519 
Q 1375 441 1716 441 
Q 2309 441 2620 675 
Q 2931 909 2931 1356 
Q 2931 1769 2642 2001 
Q 2353 2234 1838 2234 
L 1294 2234 
L 1294 2753 
L 1863 2753 
Q 2328 2753 2575 2939 
Q 2822 3125 2822 3475 
Q 2822 3834 2567 4026 
Q 2313 4219 1838 4219 
Q 1578 4219 1281 4162 
Q 984 4106 628 3988 
L 628 4550 
Q 988 4650 1302 4700 
Q 1616 4750 1894 4750 
Q 2613 4750 3031 4423 
Q 3450 4097 3450 3541 
Q 3450 3153 3228 2886 
Q 3006 2619 2597 2516 
z
" transform="scale(0.015625)"/>
       </defs>
       <use xlink:href="#DejaVuSans-32"/>
       <use xlink:href="#DejaVuSans-30" transform="translate(63.623047 0)"/>
       <use xlink:href="#DejaVuSans-31" transform="translate(127.246094 0)"/>
       <use xlink:href="#DejaVuSans-39" transform="translate(190.869141 0)"/>
       <use xlink:href="#DejaVuSans-2d" transform="translate(254.492188 0)"/>
       <use xlink:href="#DejaVuSans-30" transform="translate(290.576172 0)"/>
       <use xlink:href="#DejaVuSans-33" transform="translate(354.199219 0)"/>
      </g>
     </g>
    </g>
    <g id="xtick_3">
     <g id="line2d_5">
      <path d="M 328.092767 318.04 
L 328.092767 27.24 
" clip-path="url(#p765b8e7506)" style="fill: none; stroke: #b0b0b0; stroke-opacity: 0.3; stroke-width: 0.8; stroke-linecap: square"/>
     </g>
     <g id="line2d_6">
      <g>
       <use xlink:href="#m0be03fbf4c" x="328.092767" y="318.04" style="stroke: #000000; stroke-width: 0.8"/>
      </g>
     </g>
     <g id="text_3">
      <!-- 2019-05 -->
      <g transform="translate(307.201361 332.638438) scale(0.1 -0.1)">
       <defs>
        <path id="DejaVuSans-35" d="M 691 4666 
L 3169 4666 
L 3169 4134 
L 1269 4134 
L 1269 2991 
Q 1406 3038 1543 3061 
Q 1681 3084 1819 3084 
Q 2600 3084 3056 2656 
Q 3513 2228 3513 1497 
Q 3513 744 3044 326 
Q 2575 -91 1722 -91 
Q 1428 -91 1123 -41 
Q 819 9 494 109 
L 494 744 
Q 775 591 1075 516 
Q 1375 441 1709 441 
Q 2250 441 2565 725 
Q 2881 1009 2881 1497 
Q 2881 1984 2565 2268 
Q 2250 2553 1709 2553 
Q 1456 2553 1204 2497 
Q 953 2441 691 2322 
L 691 4666 
z
" transform="scale(0.015625)"/>
       </defs>
       <use xlink:href="#DejaVuSans-32"/>
       <use xlink:href="#DejaVuSans-30" transform="translate(63.623047 0)"/>
       <use xlink:href="#DejaVuSans-31" transform="translate(127.246094 0)"/>
       <use xlink:href="#DejaVuSans-39" transform="translate(190.869141 0)"/>
       <use xlink:href="#DejaVuSans-2d" transform="translate(254.492188 0)"/>
       <use xlink:href="#DejaVuSans-30" transform="translate(290.576172 0)"/>
       <use xlink:href="#DejaVuSans-35" transform="translate(354.199219 0)"/>
      </g>
     </g>
    </g>
    <g id="xtick_4">
     <g id="line2d_7">
      <path d="M 450.257303 318.04 
L 450.257303 27.24 
" clip-path="url(#p765b8e7506)" style="fill: none; stroke: #b0b0b0; stroke-opacity: 0.3; stroke-width: 0.8; stroke-linecap: square"/>
     </g>
     <g id="line2d_8">
      <g>
       <use xlink:href="#m0be03fbf4c" x="450.257303" y="318.04" style="stroke: #000000; stroke-width: 0.8"/>
      </g>
     </g>
     <g id="text_4">
      <!-- 2019-07 -->
      <g transform="translate(429.365896 332.638438) scale(0.1 -0.1)">
       <defs>
        <path id="DejaVuSans-37" d="M 525 4666 
L 3525 4666 
L 3525 4397 
L 1831 0 
L 1172 0 
L 2766 4134 
L 525 4134 
L 525 4666 
z
" transform="scale(0.015625)"/>
       </defs>
       <use xlink:href="#DejaVuSans-32"/>
       <use xlink:href="#DejaVuSans-30" transform="translate(63.623047 0)"/>
       <use xlink:href="#DejaVuSans-31" transform="translate(127.246094 0)"/>
       <use xlink:href="#DejaVuSans-39" transform="translate(190.869141 0)"/>
       <use xlink:href="#DejaVuSans-2d" transform="translate(254.492188 0)"/>
       <use xlink:href="#DejaVuSans-30" transform="translate(290.576172 0)"/>
       <use xlink:href="#DejaVuSans-37" transform="translate(354.199219 0)"/>
      </g>
     </g>
    </g>
    <g id="xtick_5">
     <g id="line2d_9">
      <path d="M 574.424535 318.04 
L 574.424535 27.24 
" clip-path="url(#p765b8e7506)" style="fill: none; stroke: #b0b0b0; stroke-opacity: 0.3; stroke-width: 0.8; stroke-linecap: square"/>
     </g>
     <g id="line2d_10">
      <g>
       <use xlink:href="#m0be03fbf4c" x="574.424535" y="318.04" style="stroke: #000000; stroke-width: 0.8"/>
      </g>
     </g>
     <g id="text_5">
      <!-- 2019-09 -->
      <g transform="translate(553.533129 332.638438) scale(0.1 -0.1)">
       <use xlink:href="#DejaVuSans-32"/>
       <use xlink:href="#DejaVuSans-30" transform="translate(63.623047 0)"/>
       <use xlink:href="#DejaVuSans-31" transform="translate(127.246094 0)"/>
       <use xlink:href="#DejaVuSans-39" transform="translate(190.869141 0)"/>
       <use xlink:href="#DejaVuSans-2d" transform="translate(254.492188 0)"/>
       <use xlink:href="#DejaVuSans-30" transform="translate(290.576172 0)"/>
       <use xlink:href="#DejaVuSans-39" transform="translate(354.199219 0)"/>
      </g>
     </g>
    </g>
    <g id="xtick_6">
     <g id="line2d_11">
      <path d="M 696.589071 318.04 
L 696.589071 27.24 
" clip-path="url(#p765b8e7506)" style="fill: none; stroke: #b0b0b0; stroke-opacity: 0.3; stroke-width: 0.8; stroke-linecap: square"/>
     </g>
     <g id="line2d_12">
      <g>
       <use xlink:href="#m0be03fbf4c" x="696.589071" y="318.04" style="stroke: #000000; stroke-width: 0.8"/>
      </g>
     </g>
     <g id="text_6">
      <!-- 2019-11 -->
      <g transform="translate(675.697665 332.638438) scale(0.1 -0.1)">
       <use xlink:href="#DejaVuSans-32"/>
       <use xlink:href="#DejaVuSans-30" transform="translate(63.623047 0)"/>
       <use xlink:href="#DejaVuSans-31" transform="translate(127.246094 0)"/>
       <use xlink:href="#DejaVuSans-39" transform="translate(190.869141 0)"/>
       <use xlink:href="#DejaVuSans-2d" transform="translate(254.492188 0)"/>
       <use xlink:href="#DejaVuSans-31" transform="translate(290.576172 0)"/>
       <use xlink:href="#DejaVuSans-31" transform="translate(354.199219 0)"/>
      </g>
     </g>
    </g>
    <g id="xtick_7">
     <g id="line2d_13">
      <path d="M 818.753606 318.04 
L 818.753606 27.24 
" clip-path="url(#p765b8e7506)" style="fill: none; stroke: #b0b0b0; stroke-opacity: 0.3; stroke-width: 0.8; stroke-linecap: square"/>
     </g>
     <g id="line2d_14">
      <g>
       <use xlink:href="#m0be03fbf4c" x="818.753606" y="318.04" style="stroke: #000000; stroke-width: 0.8"/>
      </g>
     </g>
     <g id="text_7">
      <!-- 2020-01 -->
      <g transform="translate(797.8622 332.638438) scale(0.1 -0.1)">
       <use xlink:href="#DejaVuSans-32"/>
       <use xlink:href="#DejaVuSans-30" transform="translate(63.623047 0)"/>
       <use xlink:href="#DejaVuSans-32" transform="translate(127.246094 0)"/>
       <use xlink:href="#DejaVuSans-30" transform="translate(190.869141 0)"/>
       <use xlink:href="#DejaVuSans-2d" transform="translate(254.492188 0)"/>
       <use xlink:href="#DejaVuSans-30" transform="translate(290.576172 0)"/>
       <use xlink:href="#DejaVuSans-31" transform="translate(354.199219 0)"/>
      </g>
     </g>
    </g>
    <g id="text_8">
     <!-- Év -->
     <g transform="translate(446.14125 346.316563) scale(0.1 -0.1)">
      <defs>
       <path id="DejaVuSans-c9" d="M 628 4666 
L 3578 4666 
L 3578 4134 
L 1259 4134 
L 1259 2753 
L 3481 2753 
L 3481 2222 
L 1259 2222 
L 1259 531 
L 3634 531 
L 3634 0 
L 628 0 
L 628 4666 
z
M 2268 5921 
L 2846 5921 
L 2134 5096 
L 1655 5096 
L 2268 5921 
z
" transform="scale(0.015625)"/>
       <path id="DejaVuSans-76" d="M 191 3500 
L 800 3500 
L 1894 563 
L 2988 3500 
L 3597 3500 
L 2284 0 
L 1503 0 
L 191 3500 
z
" transform="scale(0.015625)"/>
      </defs>
      <use xlink:href="#DejaVuSans-c9"/>
      <use xlink:href="#DejaVuSans-76" transform="translate(63.183594 0)"/>
     </g>
    </g>
   </g>
   <g id="matplotlib.axis_2">
    <g id="ytick_1">
     <g id="line2d_15">
      <path d="M 51.32 282.417321 
L 853.2 282.417321 
" clip-path="url(#p765b8e7506)" style="fill: none; stroke: #b0b0b0; stroke-opacity: 0.3; stroke-width: 0.8; stroke-linecap: square"/>
     </g>
     <g id="line2d_16">
      <defs>
       <path id="mf57915fd47" d="M 0 0 
L -3.5 0 
" style="stroke: #000000; stroke-width: 0.8"/>
      </defs>
      <g>
       <use xlink:href="#mf57915fd47" x="51.32" y="282.417321" style="stroke: #000000; stroke-width: 0.8"/>
      </g>
     </g>
     <g id="text_9">
      <!-- 100 -->
      <g transform="translate(25.2325 286.21654) scale(0.1 -0.1)">
       <use xlink:href="#DejaVuSans-31"/>
       <use xlink:href="#DejaVuSans-30" transform="translate(63.623047 0)"/>
       <use xlink:href="#DejaVuSans-30" transform="translate(127.246094 0)"/>
      </g>
     </g>
    </g>
    <g id="ytick_2">
     <g id="line2d_17">
      <path d="M 51.32 238.051981 
L 853.2 238.051981 
" clip-path="url(#p765b8e7506)" style="fill: none; stroke: #b0b0b0; stroke-opacity: 0.3; stroke-width: 0.8; stroke-linecap: square"/>
     </g>
     <g id="line2d_18">
      <g>
       <use xlink:href="#mf57915fd47" x="51.32" y="238.051981" style="stroke: #000000; stroke-width: 0.8"/>
      </g>
     </g>
     <g id="text_10">
      <!-- 110 -->
      <g transform="translate(25.2325 241.851199) scale(0.1 -0.1)">
       <use xlink:href="#DejaVuSans-31"/>
       <use xlink:href="#DejaVuSans-31" transform="translate(63.623047 0)"/>
       <use xlink:href="#DejaVuSans-30" transform="translate(127.246094 0)"/>
      </g>
     </g>
    </g>
    <g id="ytick_3">
     <g id="line2d_19">
      <path d="M 51.32 193.68664 
L 853.2 193.68664 
" clip-path="url(#p765b8e7506)" style="fill: none; stroke: #b0b0b0; stroke-opacity: 0.3; stroke-width: 0.8; stroke-linecap: square"/>
     </g>
     <g id="line2d_20">
      <g>
       <use xlink:href="#mf57915fd47" x="51.32" y="193.68664" style="stroke: #000000; stroke-width: 0.8"/>
      </g>
     </g>
     <g id="text_11">
      <!-- 120 -->
      <g transform="translate(25.2325 197.485859) scale(0.1 -0.1)">
       <use xlink:href="#DejaVuSans-31"/>
       <use xlink:href="#DejaVuSans-32" transform="translate(63.623047 0)"/>
       <use xlink:href="#DejaVuSans-30" transform="translate(127.246094 0)"/>
      </g>
     </g>
    </g>
    <g id="ytick_4">
     <g id="line2d_21">
      <path d="M 51.32 149.321299 
L 853.2 149.321299 
" clip-path="url(#p765b8e7506)" style="fill: none; stroke: #b0b0b0; stroke-opacity: 0.3; stroke-width: 0.8; stroke-linecap: square"/>
     </g>
     <g id="line2d_22">
      <g>
       <use xlink:href="#mf57915fd47" x="51.32" y="149.321299" style="stroke: #000000; stroke-width: 0.8"/>
      </g>
     </g>
     <g id="text_12">
      <!-- 130 -->
      <g transform="translate(25.2325 153.120518) scale(0.1 -0.1)">
       <use xlink:href="#DejaVuSans-31"/>
       <use xlink:href="#DejaVuSans-33" transform="translate(63.623047 0)"/>
       <use xlink:href="#DejaVuSans-30" transform="translate(127.246094 0)"/>
      </g>
     </g>
    </g>
    <g id="ytick_5">
     <g id="line2d_23">
      <path d="M 51.32 104.955959 
L 853.2 104.955959 
" clip-path="url(#p765b8e7506)" style="fill: none; stroke: #b0b0b0; stroke-opacity: 0.3; stroke-width: 0.8; stroke-linecap: square"/>
     </g>
     <g id="line2d_24">
      <g>
       <use xlink:href="#mf57915fd47" x="51.32" y="104.955959" style="stroke: #000000; stroke-width: 0.8"/>
      </g>
     </g>
     <g id="text_13">
      <!-- 140 -->
      <g transform="translate(25.2325 108.755178) scale(0.1 -0.1)">
       <defs>
        <path id="DejaVuSans-34" d="M 2419 4116 
L 825 1625 
L 2419 1625 
L 2419 4116 
z
M 2253 4666 
L 3047 4666 
L 3047 1625 
L 3713 1625 
L 3713 1100 
L 3047 1100 
L 3047 0 
L 2419 0 
L 2419 1100 
L 313 1100 
L 313 1709 
L 2253 4666 
z
" transform="scale(0.015625)"/>
       </defs>
       <use xlink:href="#DejaVuSans-31"/>
       <use xlink:href="#DejaVuSans-34" transform="translate(63.623047 0)"/>
       <use xlink:href="#DejaVuSans-30" transform="translate(127.246094 0)"/>
      </g>
     </g>
    </g>
    <g id="ytick_6">
     <g id="line2d_25">
      <path d="M 51.32 60.590618 
L 853.2 60.590618 
" clip-path="url(#p765b8e7506)" style="fill: none; stroke: #b0b0b0; stroke-opacity: 0.3; stroke-width: 0.8; stroke-linecap: square"/>
     </g>
     <g id="line2d_26">
      <g>
       <use xlink:href="#mf57915fd47" x="51.32" y="60.590618" style="stroke: #000000; stroke-width: 0.8"/>
      </g>
     </g>
     <g id="text_14">
      <!-- 150 -->
      <g transform="translate(25.2325 64.389837) scale(0.1 -0.1)">
       <use xlink:href="#DejaVuSans-31"/>
       <use xlink:href="#DejaVuSans-35" transform="translate(63.623047 0)"/>
       <use xlink:href="#DejaVuSans-30" transform="translate(127.246094 0)"/>
      </g>
     </g>
    </g>
    <g id="text_15">
     <!-- Elektromos energiafogyasztás -->
     <g transform="translate(19.152813 248.038438) rotate(-90) scale(0.1 -0.1)">
      <defs>
       <path id="DejaVuSans-45" d="M 628 4666 
L 3578 4666 
L 3578 4134 
L 1259 4134 
L 1259 2753 
L 3481 2753 
L 3481 2222 
L 1259 2222 
L 1259 531 
L 3634 531 
L 3634 0 
L 628 0 
L 628 4666 
z
" transform="scale(0.015625)"/>
       <path id="DejaVuSans-6c" d="M 603 4863 
L 1178 4863 
L 1178 0 
L 603 0 
L 603 4863 
z
" transform="scale(0.015625)"/>
       <path id="DejaVuSans-65" d="M 3597 1894 
L 3597 1613 
L 953 1613 
Q 991 1019 1311 708 
Q 1631 397 2203 397 
Q 2534 397 2845 478 
Q 3156 559 3463 722 
L 3463 178 
Q 3153 47 2828 -22 
Q 2503 -91 2169 -91 
Q 1331 -91 842 396 
Q 353 884 353 1716 
Q 353 2575 817 3079 
Q 1281 3584 2069 3584 
Q 2775 3584 3186 3129 
Q 3597 2675 3597 1894 
z
M 3022 2063 
Q 3016 2534 2758 2815 
Q 2500 3097 2075 3097 
Q 1594 3097 1305 2825 
Q 1016 2553 972 2059 
L 3022 2063 
z
" transform="scale(0.015625)"/>
       <path id="DejaVuSans-6b" d="M 581 4863 
L 1159 4863 
L 1159 1991 
L 2875 3500 
L 3609 3500 
L 1753 1863 
L 3688 0 
L 2938 0 
L 1159 1709 
L 1159 0 
L 581 0 
L 581 4863 
z
" transform="scale(0.015625)"/>
       <path id="DejaVuSans-74" d="M 1172 4494 
L 1172 3500 
L 2356 3500 
L 2356 3053 
L 1172 3053 
L 1172 1153 
Q 1172 725 1289 603 
Q 1406 481 1766 481 
L 2356 481 
L 2356 0 
L 1766 0 
Q 1100 0 847 248 
Q 594 497 594 1153 
L 594 3053 
L 172 3053 
L 172 3500 
L 594 3500 
L 594 4494 
L 1172 4494 
z
" transform="scale(0.015625)"/>
       <path id="DejaVuSans-72" d="M 2631 2963 
Q 2534 3019 2420 3045 
Q 2306 3072 2169 3072 
Q 1681 3072 1420 2755 
Q 1159 2438 1159 1844 
L 1159 0 
L 581 0 
L 581 3500 
L 1159 3500 
L 1159 2956 
Q 1341 3275 1631 3429 
Q 1922 3584 2338 3584 
Q 2397 3584 2469 3576 
Q 2541 3569 2628 3553 
L 2631 2963 
z
" transform="scale(0.015625)"/>
       <path id="DejaVuSans-6f" d="M 1959 3097 
Q 1497 3097 1228 2736 
Q 959 2375 959 1747 
Q 959 1119 1226 758 
Q 1494 397 1959 397 
Q 2419 397 2687 759 
Q 2956 1122 2956 1747 
Q 2956 2369 2687 2733 
Q 2419 3097 1959 3097 
z
M 1959 3584 
Q 2709 3584 3137 3096 
Q 3566 2609 3566 1747 
Q 3566 888 3137 398 
Q 2709 -91 1959 -91 
Q 1206 -91 779 398 
Q 353 888 353 1747 
Q 353 2609 779 3096 
Q 1206 3584 1959 3584 
z
" transform="scale(0.015625)"/>
       <path id="DejaVuSans-6d" d="M 3328 2828 
Q 3544 3216 3844 3400 
Q 4144 3584 4550 3584 
Q 5097 3584 5394 3201 
Q 5691 2819 5691 2113 
L 5691 0 
L 5113 0 
L 5113 2094 
Q 5113 2597 4934 2840 
Q 4756 3084 4391 3084 
Q 3944 3084 3684 2787 
Q 3425 2491 3425 1978 
L 3425 0 
L 2847 0 
L 2847 2094 
Q 2847 2600 2669 2842 
Q 2491 3084 2119 3084 
Q 1678 3084 1418 2786 
Q 1159 2488 1159 1978 
L 1159 0 
L 581 0 
L 581 3500 
L 1159 3500 
L 1159 2956 
Q 1356 3278 1631 3431 
Q 1906 3584 2284 3584 
Q 2666 3584 2933 3390 
Q 3200 3197 3328 2828 
z
" transform="scale(0.015625)"/>
       <path id="DejaVuSans-73" d="M 2834 3397 
L 2834 2853 
Q 2591 2978 2328 3040 
Q 2066 3103 1784 3103 
Q 1356 3103 1142 2972 
Q 928 2841 928 2578 
Q 928 2378 1081 2264 
Q 1234 2150 1697 2047 
L 1894 2003 
Q 2506 1872 2764 1633 
Q 3022 1394 3022 966 
Q 3022 478 2636 193 
Q 2250 -91 1575 -91 
Q 1294 -91 989 -36 
Q 684 19 347 128 
L 347 722 
Q 666 556 975 473 
Q 1284 391 1588 391 
Q 1994 391 2212 530 
Q 2431 669 2431 922 
Q 2431 1156 2273 1281 
Q 2116 1406 1581 1522 
L 1381 1569 
Q 847 1681 609 1914 
Q 372 2147 372 2553 
Q 372 3047 722 3315 
Q 1072 3584 1716 3584 
Q 2034 3584 2315 3537 
Q 2597 3491 2834 3397 
z
" transform="scale(0.015625)"/>
       <path id="DejaVuSans-20" transform="scale(0.015625)"/>
       <path id="DejaVuSans-6e" d="M 3513 2113 
L 3513 0 
L 2938 0 
L 2938 2094 
Q 2938 2591 2744 2837 
Q 2550 3084 2163 3084 
Q 1697 3084 1428 2787 
Q 1159 2491 1159 1978 
L 1159 0 
L 581 0 
L 581 3500 
L 1159 3500 
L 1159 2956 
Q 1366 3272 1645 3428 
Q 1925 3584 2291 3584 
Q 2894 3584 3203 3211 
Q 3513 2838 3513 2113 
z
" transform="scale(0.015625)"/>
       <path id="DejaVuSans-67" d="M 2906 1791 
Q 2906 2416 2648 2759 
Q 2391 3103 1925 3103 
Q 1463 3103 1205 2759 
Q 947 2416 947 1791 
Q 947 1169 1205 825 
Q 1463 481 1925 481 
Q 2391 481 2648 825 
Q 2906 1169 2906 1791 
z
M 3481 434 
Q 3481 -459 3084 -895 
Q 2688 -1331 1869 -1331 
Q 1566 -1331 1297 -1286 
Q 1028 -1241 775 -1147 
L 775 -588 
Q 1028 -725 1275 -790 
Q 1522 -856 1778 -856 
Q 2344 -856 2625 -561 
Q 2906 -266 2906 331 
L 2906 616 
Q 2728 306 2450 153 
Q 2172 0 1784 0 
Q 1141 0 747 490 
Q 353 981 353 1791 
Q 353 2603 747 3093 
Q 1141 3584 1784 3584 
Q 2172 3584 2450 3431 
Q 2728 3278 2906 2969 
L 2906 3500 
L 3481 3500 
L 3481 434 
z
" transform="scale(0.015625)"/>
       <path id="DejaVuSans-69" d="M 603 3500 
L 1178 3500 
L 1178 0 
L 603 0 
L 603 3500 
z
M 603 4863 
L 1178 4863 
L 1178 4134 
L 603 4134 
L 603 4863 
z
" transform="scale(0.015625)"/>
       <path id="DejaVuSans-61" d="M 2194 1759 
Q 1497 1759 1228 1600 
Q 959 1441 959 1056 
Q 959 750 1161 570 
Q 1363 391 1709 391 
Q 2188 391 2477 730 
Q 2766 1069 2766 1631 
L 2766 1759 
L 2194 1759 
z
M 3341 1997 
L 3341 0 
L 2766 0 
L 2766 531 
Q 2569 213 2275 61 
Q 1981 -91 1556 -91 
Q 1019 -91 701 211 
Q 384 513 384 1019 
Q 384 1609 779 1909 
Q 1175 2209 1959 2209 
L 2766 2209 
L 2766 2266 
Q 2766 2663 2505 2880 
Q 2244 3097 1772 3097 
Q 1472 3097 1187 3025 
Q 903 2953 641 2809 
L 641 3341 
Q 956 3463 1253 3523 
Q 1550 3584 1831 3584 
Q 2591 3584 2966 3190 
Q 3341 2797 3341 1997 
z
" transform="scale(0.015625)"/>
       <path id="DejaVuSans-66" d="M 2375 4863 
L 2375 4384 
L 1825 4384 
Q 1516 4384 1395 4259 
Q 1275 4134 1275 3809 
L 1275 3500 
L 2222 3500 
L 2222 3053 
L 1275 3053 
L 1275 0 
L 697 0 
L 697 3053 
L 147 3053 
L 147 3500 
L 697 3500 
L 697 3744 
Q 697 4328 969 4595 
Q 1241 4863 1831 4863 
L 2375 4863 
z
" transform="scale(0.015625)"/>
       <path id="DejaVuSans-79" d="M 2059 -325 
Q 1816 -950 1584 -1140 
Q 1353 -1331 966 -1331 
L 506 -1331 
L 506 -850 
L 844 -850 
Q 1081 -850 1212 -737 
Q 1344 -625 1503 -206 
L 1606 56 
L 191 3500 
L 800 3500 
L 1894 763 
L 2988 3500 
L 3597 3500 
L 2059 -325 
z
" transform="scale(0.015625)"/>
       <path id="DejaVuSans-7a" d="M 353 3500 
L 3084 3500 
L 3084 2975 
L 922 459 
L 3084 459 
L 3084 0 
L 275 0 
L 275 525 
L 2438 3041 
L 353 3041 
L 353 3500 
z
" transform="scale(0.015625)"/>
       <path id="DejaVuSans-e1" d="M 2194 1759 
Q 1497 1759 1228 1600 
Q 959 1441 959 1056 
Q 959 750 1161 570 
Q 1363 391 1709 391 
Q 2188 391 2477 730 
Q 2766 1069 2766 1631 
L 2766 1759 
L 2194 1759 
z
M 3341 1997 
L 3341 0 
L 2766 0 
L 2766 531 
Q 2569 213 2275 61 
Q 1981 -91 1556 -91 
Q 1019 -91 701 211 
Q 384 513 384 1019 
Q 384 1609 779 1909 
Q 1175 2209 1959 2209 
L 2766 2209 
L 2766 2266 
Q 2766 2663 2505 2880 
Q 2244 3097 1772 3097 
Q 1472 3097 1187 3025 
Q 903 2953 641 2809 
L 641 3341 
Q 956 3463 1253 3523 
Q 1550 3584 1831 3584 
Q 2591 3584 2966 3190 
Q 3341 2797 3341 1997 
z
M 2290 5119 
L 2912 5119 
L 1894 3944 
L 1415 3944 
L 2290 5119 
z
" transform="scale(0.015625)"/>
      </defs>
      <use xlink:href="#DejaVuSans-45"/>
      <use xlink:href="#DejaVuSans-6c" transform="translate(63.183594 0)"/>
      <use xlink:href="#DejaVuSans-65" transform="translate(90.966797 0)"/>
      <use xlink:href="#DejaVuSans-6b" transform="translate(152.490234 0)"/>
      <use xlink:href="#DejaVuSans-74" transform="translate(210.400391 0)"/>
      <use xlink:href="#DejaVuSans-72" transform="translate(249.609375 0)"/>
      <use xlink:href="#DejaVuSans-6f" transform="translate(288.472656 0)"/>
      <use xlink:href="#DejaVuSans-6d" transform="translate(349.654297 0)"/>
      <use xlink:href="#DejaVuSans-6f" transform="translate(447.066406 0)"/>
      <use xlink:href="#DejaVuSans-73" transform="translate(508.248047 0)"/>
      <use xlink:href="#DejaVuSans-20" transform="translate(560.347656 0)"/>
      <use xlink:href="#DejaVuSans-65" transform="translate(592.134766 0)"/>
      <use xlink:href="#DejaVuSans-6e" transform="translate(653.658203 0)"/>
      <use xlink:href="#DejaVuSans-65" transform="translate(717.037109 0)"/>
      <use xlink:href="#DejaVuSans-72" transform="translate(778.560547 0)"/>
      <use xlink:href="#DejaVuSans-67" transform="translate(817.923828 0)"/>
      <use xlink:href="#DejaVuSans-69" transform="translate(881.400391 0)"/>
      <use xlink:href="#DejaVuSans-61" transform="translate(909.183594 0)"/>
      <use xlink:href="#DejaVuSans-66" transform="translate(970.462891 0)"/>
      <use xlink:href="#DejaVuSans-6f" transform="translate(1005.667969 0)"/>
      <use xlink:href="#DejaVuSans-67" transform="translate(1066.849609 0)"/>
      <use xlink:href="#DejaVuSans-79" transform="translate(1130.326172 0)"/>
      <use xlink:href="#DejaVuSans-61" transform="translate(1189.505859 0)"/>
      <use xlink:href="#DejaVuSans-73" transform="translate(1250.785156 0)"/>
      <use xlink:href="#DejaVuSans-7a" transform="translate(1302.884766 0)"/>
      <use xlink:href="#DejaVuSans-74" transform="translate(1355.375 0)"/>
      <use xlink:href="#DejaVuSans-e1" transform="translate(1394.583984 0)"/>
      <use xlink:href="#DejaVuSans-73" transform="translate(1455.863281 0)"/>
     </g>
    </g>
   </g>
   <g id="line2d_27">
    <path d="M 87.769091 261.121958 
L 89.771788 171.415239 
L 91.774486 124.254882 
L 93.777183 110.767818 
L 97.782577 171.149047 
L 99.785275 97.946235 
L 101.787972 69.33059 
L 103.790669 78.159293 
L 105.793367 79.135331 
L 107.796064 80.95431 
L 109.798761 128.469589 
L 111.801459 168.354031 
L 113.804156 108.416455 
L 115.806853 87.964033 
L 117.80955 93.953354 
L 119.812248 101.761654 
L 121.814945 95.594872 
L 123.817642 142.045384 
L 125.82034 162.009787 
L 127.823037 96.349083 
L 129.825734 68.088361 
L 131.828432 64.139846 
L 133.831129 68.354553 
L 135.833826 71.149569 
L 137.836523 126.694976 
L 139.839221 158.771117 
L 141.841918 89.783012 
L 143.844615 92.888586 
L 145.847313 81.353598 
L 147.85001 84.015518 
L 149.852707 92.045645 
L 151.855405 154.64514 
L 153.858102 183.393881 
L 155.860799 114.583238 
L 157.863497 94.485738 
L 159.866194 101.628558 
L 161.868891 98.168062 
L 163.871588 100.164502 
L 165.874286 150.164241 
L 167.876983 178.158771 
L 169.87968 115.159987 
L 171.882378 106.553111 
L 173.885075 101.539828 
L 175.887772 112.631163 
L 177.89047 120.528193 
L 179.893167 174.432082 
L 181.895864 204.023764 
L 183.898561 139.161636 
L 185.901259 131.708259 
L 187.903956 125.364016 
L 189.906653 125.009093 
L 191.909351 120.794385 
L 193.912048 161.743595 
L 195.914745 178.779886 
L 197.917443 126.916802 
L 199.92014 124.742901 
L 203.925534 142.26721 
L 205.928232 140.004578 
L 207.930929 188.185338 
L 209.933626 210.678565 
L 211.936324 160.013347 
L 213.939021 155.621178 
L 215.941718 157.307061 
L 217.944416 141.734826 
L 219.947113 150.829721 
L 221.94981 202.116055 
L 223.952507 221.592439 
L 225.955205 157.972541 
L 227.957902 148.300897 
L 229.960599 127.449187 
L 231.963297 139.60529 
L 233.965994 228.424702 
L 235.968691 227.226837 
L 237.971389 239.560402 
L 239.974086 153.269815 
L 241.976783 134.858198 
L 243.979481 145.594611 
L 245.982178 141.557365 
L 247.984875 148.877646 
L 249.987572 207.084973 
L 251.99027 235.656252 
L 253.992967 161.078115 
L 255.995664 152.027585 
L 257.998362 150.208606 
L 260.001059 147.324859 
L 262.003756 159.21477 
L 266.009151 258.460037 
L 268.011848 179.179174 
L 272.017243 159.303501 
L 276.022637 157.706349 
L 278.025335 209.835624 
L 280.028032 243.597648 
L 282.030729 181.353075 
L 284.033427 177.049637 
L 286.036124 169.463164 
L 288.038821 152.781796 
L 290.041518 146.348822 
L 292.044216 192.488776 
L 294.046913 226.295165 
L 296.04961 155.709908 
L 298.052308 168.620223 
L 300.055005 159.79152 
L 302.057702 170.084279 
L 304.0604 255.398829 
L 306.063097 272.302024 
L 308.065794 304.821818 
L 310.068492 304.733088 
L 312.071189 186.055801 
L 314.073886 172.657469 
L 316.076583 173.899698 
L 318.079281 175.541216 
L 320.081978 218.930519 
L 322.084675 250.074988 
L 324.087373 183.704438 
L 326.09007 173.145487 
L 328.092767 265.558492 
L 330.095465 201.450575 
L 332.098162 184.902303 
L 334.100859 219.68473 
L 336.103556 232.107025 
L 338.106254 155.22189 
L 340.108951 166.446321 
L 342.111648 173.899698 
L 344.114346 146.925571 
L 346.117043 170.217375 
L 348.11974 228.957086 
L 350.122438 251.317217 
L 352.125135 184.414284 
L 354.127832 152.249412 
L 356.130529 143.021421 
L 358.133227 156.685946 
L 360.135924 168.753319 
L 362.138621 231.175353 
L 364.141319 257.661461 
L 366.144016 194.618312 
L 370.149411 169.995548 
L 372.152108 174.032794 
L 374.154805 185.87834 
L 376.157502 243.287091 
L 378.1602 270.172487 
L 380.162897 194.707043 
L 382.165594 186.144532 
L 384.168292 176.117965 
L 386.170989 169.773721 
L 388.173686 194.085928 
L 390.176384 246.392665 
L 392.179081 268.486604 
L 394.181778 199.853422 
L 396.184476 181.663633 
L 398.187173 176.605984 
L 400.18987 177.493291 
L 402.192567 178.912982 
L 404.195265 236.63229 
L 406.197962 284.768684 
L 408.200659 274.121002 
L 410.203357 166.401956 
L 412.206054 132.994854 
L 414.208751 116.091659 
L 416.211449 115.248718 
L 418.214146 169.906817 
L 420.216843 205.265994 
L 422.21954 159.79152 
L 424.222238 144.130555 
L 426.224935 134.059622 
L 428.227632 135.70114 
L 430.23033 141.646096 
L 432.233027 195.283792 
L 434.235724 234.414023 
L 436.238422 161.388672 
L 438.241119 129.090704 
L 440.243816 106.819303 
L 442.246513 99.277195 
L 444.249211 151.273374 
L 446.251908 211.565872 
L 448.254605 228.557798 
L 450.257303 130.776587 
L 452.26 111.699491 
L 454.262697 132.151913 
L 456.265395 144.529843 
L 458.268092 150.829721 
L 460.270789 199.764692 
L 462.273487 226.871915 
L 464.276184 181.619267 
L 466.278881 172.16945 
L 468.281578 178.513694 
L 470.284276 174.520813 
L 472.286973 180.909422 
L 474.28967 231.707737 
L 476.292368 269.28518 
L 478.295065 209.835624 
L 480.297762 195.68308 
L 482.30046 192.843699 
L 484.303157 187.652954 
L 486.305854 187.652954 
L 488.308551 228.779624 
L 490.311249 249.232046 
L 492.313946 184.458649 
L 494.316643 168.664588 
L 496.319341 169.196972 
L 498.322038 162.719632 
L 500.324735 166.490686 
L 502.327433 234.325292 
L 504.33013 267.022548 
L 506.332827 204.689244 
L 508.335524 180.022115 
L 510.338222 167.422358 
L 512.340919 178.957347 
L 514.343616 191.645834 
L 516.346314 256.862885 
L 518.349011 288.362277 
L 520.351708 212.275718 
L 522.354406 182.772766 
L 524.357103 167.644185 
L 526.3598 173.589141 
L 528.362498 169.729356 
L 530.365195 188.673357 
L 532.367892 226.472627 
L 534.370589 147.191763 
L 536.373287 161.299941 
L 538.375984 189.161375 
L 540.378681 200.607633 
L 542.381379 202.16042 
L 544.384076 247.146875 
L 546.386773 268.841527 
L 548.389471 256.729789 
L 550.392168 268.575335 
L 552.394865 190.714162 
L 554.397562 171.459604 
L 556.40026 158.771117 
L 558.402957 196.526022 
L 560.405654 223.278322 
L 562.408352 156.730311 
L 564.411049 137.120831 
L 566.413746 128.380859 
L 568.416444 125.186554 
L 570.419141 128.203397 
L 572.421838 190.403605 
L 574.424535 220.394575 
L 576.427233 159.924616 
L 578.42993 172.16945 
L 580.432627 182.728401 
L 582.435325 178.469328 
L 584.438022 180.731961 
L 586.440719 229.267643 
L 588.443417 259.879728 
L 590.446114 190.359239 
L 592.448811 192.932429 
L 594.451508 182.595305 
L 596.454206 173.944063 
L 598.456903 178.025675 
L 600.4596 232.417582 
L 602.462298 265.558492 
L 604.464995 187.78605 
L 606.467692 169.551895 
L 608.47039 184.636111 
L 610.473087 178.203136 
L 612.475784 180.953787 
L 614.478482 231.574641 
L 616.481179 256.685424 
L 618.483876 173.234218 
L 620.486573 164.804803 
L 622.489271 159.702789 
L 624.491968 168.309665 
L 626.494665 184.503015 
L 628.497363 220.084018 
L 630.50006 250.696103 
L 632.502757 183.793169 
L 634.505455 177.360195 
L 636.508152 166.712513 
L 638.510849 157.528887 
L 640.513546 163.651304 
L 642.516244 201.006921 
L 644.518941 234.414023 
L 646.521638 167.156166 
L 648.524336 149.055107 
L 650.527033 153.092353 
L 652.52973 142.666498 
L 654.532428 162.009787 
L 656.535125 208.549029 
L 658.537822 234.547119 
L 660.540519 170.705394 
L 662.543217 159.658424 
L 664.545914 150.918452 
L 666.548611 151.717028 
L 668.551309 155.177524 
L 670.554006 206.242031 
L 672.556703 236.366098 
L 674.559401 172.213815 
L 676.562098 165.869571 
L 678.564795 248.699662 
L 680.567493 181.663633 
L 682.57019 162.985824 
L 684.572887 210.323643 
L 686.575584 216.978444 
L 688.578282 159.347866 
L 690.580979 128.647051 
L 692.583676 127.937205 
L 694.586374 137.653215 
L 696.589071 232.683774 
L 698.591768 217.910116 
L 700.594466 225.807147 
L 702.597163 147.369224 
L 704.59986 130.332934 
L 706.602557 134.45891 
L 708.605255 128.913243 
L 710.607952 133.039219 
L 712.610649 184.857937 
L 714.613347 203.180823 
L 716.616044 148.788915 
L 718.618741 116.269121 
L 720.621439 120.971847 
L 722.624136 124.476709 
L 724.626833 123.766863 
L 726.62953 183.349516 
L 728.632228 218.265039 
L 730.634925 147.058667 
L 732.637622 132.595566 
L 734.64032 115.337449 
L 736.643017 126.340053 
L 738.645714 128.025936 
L 740.648412 177.626387 
L 742.651109 203.801938 
L 744.653806 132.684297 
L 746.656503 118.531753 
L 748.659201 113.296643 
L 750.661898 112.143144 
L 752.664595 124.210517 
L 754.667293 174.787005 
L 756.66999 186.055801 
L 758.672687 90.847781 
L 760.675385 85.52394 
L 762.678082 47.14792 
L 764.680779 53.891452 
L 766.683477 58.638543 
L 768.686174 105.976362 
L 770.688871 162.675267 
L 772.691568 95.594872 
L 774.694266 91.335799 
L 776.696963 97.103294 
L 778.69966 77.626909 
L 780.702358 91.646357 
L 782.705055 139.294732 
L 784.707752 179.001712 
L 786.71045 125.807669 
L 790.715844 146.215726 
L 792.718541 142.26721 
L 794.721239 168.487127 
L 796.723936 226.428261 
L 798.726633 217.555193 
L 800.729331 203.713207 
L 802.732028 246.658857 
L 804.734725 276.117443 
L 806.737423 275.851251 
L 808.74012 239.382941 
L 810.742817 229.134547 
L 812.745514 225.851512 
L 814.748212 206.863146 
L 816.750909 215.913676 
L 816.750909 215.913676 
" clip-path="url(#p765b8e7506)" style="fill: none; stroke: #0000ff; stroke-linecap: square"/>
   </g>
   <g id="line2d_28">
    <path d="M 87.769091 247.721679 
L 89.771788 120.918411 
L 91.774486 153.430051 
L 93.777183 173.979099 
L 95.77988 108.972637 
L 97.782577 82.554193 
L 99.785275 134.336473 
L 101.787972 101.073002 
L 103.790669 47.342644 
L 105.793367 101.47988 
L 107.796064 113.895757 
L 109.798761 85.442395 
L 111.801459 83.758083 
L 113.804156 158.380774 
L 115.806853 121.090233 
L 117.80955 89.70258 
L 119.812248 143.422924 
L 121.814945 147.418501 
L 123.817642 113.545897 
L 125.82034 90.362711 
L 127.823037 163.688797 
L 129.825734 121.755449 
L 131.828432 87.3559 
L 133.831129 126.684492 
L 135.833826 117.4026 
L 137.836523 93.244712 
L 139.839221 92.720344 
L 141.841918 183.184249 
L 143.844615 98.558369 
L 145.847313 94.377287 
L 147.85001 122.008856 
L 149.852707 117.207481 
L 151.855405 107.757625 
L 153.858102 106.786027 
L 155.860799 192.882192 
L 157.863497 140.408602 
L 159.866194 154.676635 
L 161.868891 250.528483 
L 163.871588 136.458377 
L 165.874286 115.100124 
L 167.876983 122.137362 
L 169.87968 211.483977 
L 171.882378 124.59933 
L 173.885075 152.345154 
L 175.887772 261.950748 
L 177.89047 199.700604 
L 179.893167 177.730438 
L 181.895864 167.140578 
L 183.898561 252.808012 
L 185.901259 171.540814 
L 187.903956 194.471529 
L 189.906653 248.500197 
L 191.909351 206.834073 
L 193.912048 208.463907 
L 195.914745 179.463924 
L 197.917443 240.140898 
L 199.92014 158.343468 
L 201.922837 189.749708 
L 203.925534 252.941307 
L 205.928232 196.147996 
L 207.930929 294.823133 
L 209.933626 223.933734 
L 211.936324 266.203258 
L 213.939021 190.088359 
L 215.941718 203.967709 
L 217.944416 254.415387 
L 219.947113 200.839154 
L 221.94981 187.692813 
L 223.952507 219.372289 
L 225.955205 279.36055 
L 227.957902 263.338573 
L 229.960599 181.956442 
L 231.963297 233.867268 
L 233.965994 184.00668 
L 235.968691 139.764779 
L 237.971389 174.507757 
L 239.974086 241.674486 
L 241.976783 172.405351 
L 243.979481 183.10727 
L 245.982178 247.448136 
L 247.984875 198.066419 
L 249.987572 152.062784 
L 251.99027 212.696486 
L 253.992967 261.479825 
L 255.995664 176.264116 
L 257.998362 149.875767 
L 260.001059 228.160662 
L 262.003756 180.295749 
L 264.006454 169.661858 
L 266.009151 165.914126 
L 268.011848 253.487972 
L 270.014545 172.55153 
L 272.017243 142.555117 
L 274.01994 208.544384 
L 276.022637 162.064595 
L 278.025335 152.262463 
L 280.028032 189.338587 
L 282.030729 277.105433 
L 284.033427 188.422774 
L 286.036124 206.192605 
L 288.038821 241.45533 
L 290.041518 192.282637 
L 292.044216 182.805022 
L 294.046913 192.493143 
L 296.04961 253.943334 
L 298.052308 141.938892 
L 300.055005 139.676738 
L 302.057702 192.125209 
L 304.0604 158.329709 
L 306.063097 180.458238 
L 308.065794 190.806002 
L 310.068492 270.98506 
L 312.071189 204.068362 
L 314.073886 183.681247 
L 316.076583 240.6435 
L 318.079281 188.769858 
L 320.081978 151.416891 
L 322.084675 162.293518 
L 324.087373 242.490098 
L 326.09007 155.411668 
L 328.092767 155.063497 
L 330.095465 215.38579 
L 332.098162 210.210759 
L 334.100859 167.960461 
L 336.103556 175.442033 
L 338.106254 239.401165 
L 340.108951 145.945971 
L 342.111648 162.421683 
L 344.114346 212.176014 
L 346.117043 196.098083 
L 348.11974 185.340334 
L 350.122438 165.250505 
L 352.125135 239.677613 
L 354.127832 166.327643 
L 356.130529 157.113721 
L 358.133227 218.639442 
L 360.135924 183.451406 
L 362.138621 153.476511 
L 364.141319 157.629627 
L 366.144016 241.979778 
L 368.146713 148.387249 
L 370.149411 134.421456 
L 372.152108 214.315652 
L 374.154805 184.310087 
L 376.157502 168.671526 
L 378.1602 164.180036 
L 380.162897 253.611091 
L 382.165594 194.394453 
L 384.168292 190.196551 
L 386.170989 217.992287 
L 388.173686 160.305884 
L 390.176384 155.31251 
L 392.179081 286.879732 
L 394.181778 284.289834 
L 396.184476 162.157913 
L 398.187173 154.465696 
L 400.18987 200.678331 
L 402.192567 151.555815 
L 404.195265 116.058125 
L 406.197962 125.044623 
L 408.200659 225.800984 
L 410.203357 128.800853 
L 412.206054 104.067258 
L 414.208751 182.227127 
L 416.211449 161.664607 
L 418.214146 70.053877 
L 420.216843 55.708174 
L 422.21954 158.256184 
L 424.222238 75.084597 
L 426.224935 52.22679 
L 428.227632 134.384769 
L 430.23033 150.666258 
L 432.233027 73.534809 
L 434.235724 78.649784 
L 436.238422 168.523499 
L 438.241119 69.784497 
L 440.243816 56.932127 
L 442.246513 154.965236 
L 444.249211 162.362527 
L 446.251908 211.820642 
L 448.254605 228.184241 
L 450.257303 279.143278 
L 452.26 163.481932 
L 454.262697 116.100044 
L 456.265395 171.935724 
L 458.268092 132.064842 
L 460.270789 40.458182 
L 462.273487 83.801035 
L 464.276184 168.789182 
L 466.278881 80.381521 
L 468.281578 68.907035 
L 470.284276 164.42974 
L 472.286973 117.104518 
L 474.28967 58.306091 
L 476.292368 76.791115 
L 478.295065 159.01698 
L 480.297762 75.380199 
L 482.30046 80.434067 
L 484.303157 141.660139 
L 486.305854 112.085887 
L 488.308551 88.913007 
L 490.311249 92.710724 
L 492.313946 166.473583 
L 494.316643 89.59505 
L 496.319341 81.94385 
L 498.322038 140.907857 
L 500.324735 110.080217 
L 502.327433 109.53524 
L 504.33013 111.746385 
L 506.332827 183.424608 
L 508.335524 109.769231 
L 510.338222 117.626094 
L 512.340919 163.623543 
L 514.343616 142.212882 
L 516.346314 141.203754 
L 518.349011 150.638092 
L 520.351708 224.994763 
L 522.354406 148.236052 
L 524.357103 152.820928 
L 526.3598 288.032527 
L 528.362498 180.977473 
L 530.365195 114.052087 
L 532.367892 137.074217 
L 534.370589 212.384186 
L 536.373287 127.227629 
L 538.375984 133.944608 
L 540.378681 191.255262 
L 542.381379 184.871954 
L 544.384076 213.172761 
L 546.386773 181.251376 
L 548.389471 247.562159 
L 550.392168 206.944396 
L 552.394865 187.761829 
L 554.397562 225.258497 
L 556.40026 210.489206 
L 558.402957 173.417208 
L 560.405654 180.351816 
L 562.408352 255.938673 
L 564.411049 244.740028 
L 566.413746 146.644264 
L 568.416444 198.537757 
L 572.421838 159.730566 
L 574.424535 193.487794 
L 576.427233 243.699146 
L 578.42993 157.431801 
L 580.432627 159.306734 
L 582.435325 216.589658 
L 584.438022 197.588749 
L 586.440719 173.715918 
L 588.443417 171.278088 
L 590.446114 257.37495 
L 592.448811 209.801613 
L 594.451508 180.563461 
L 596.454206 214.355789 
L 598.456903 195.399468 
L 600.4596 183.688022 
L 602.462298 171.010621 
L 604.464995 251.080938 
L 606.467692 183.36229 
L 608.47039 181.115227 
L 610.473087 230.442912 
L 612.475784 198.426235 
L 616.481179 149.781925 
L 618.483876 220.976866 
L 620.486573 155.679513 
L 622.489271 141.306208 
L 624.491968 182.750726 
L 626.494665 156.703538 
L 628.497363 144.436666 
L 630.50006 134.606951 
L 632.502757 238.8774 
L 634.505455 138.075934 
L 636.508152 159.960193 
L 638.510849 218.599443 
L 640.513546 160.436689 
L 642.516244 163.280688 
L 644.518941 174.591496 
L 646.521638 256.347742 
L 648.524336 187.820934 
L 650.527033 191.68733 
L 652.52973 239.080785 
L 654.532428 174.287672 
L 656.535125 178.000489 
L 658.537822 184.278735 
L 660.540519 265.081723 
L 662.543217 168.618145 
L 664.545914 145.916485 
L 666.548611 221.827904 
L 668.551309 189.167311 
L 670.554006 160.495253 
L 672.556703 175.649702 
L 674.559401 213.457613 
L 676.562098 145.682056 
L 678.564795 165.257667 
L 680.567493 228.960055 
L 682.57019 176.198904 
L 684.572887 251.48858 
L 686.575584 168.442502 
L 688.578282 214.710934 
L 690.580979 148.538009 
L 692.583676 144.507917 
L 694.586374 201.260937 
L 696.589071 161.524993 
L 698.591768 143.489753 
L 700.594466 175.691543 
L 702.597163 227.471821 
L 704.59986 148.950462 
L 706.602557 158.289456 
L 708.605255 210.95117 
L 710.607952 186.807679 
L 712.610649 169.126381 
L 714.613347 193.630606 
L 716.616044 245.883698 
L 718.618741 150.271915 
L 720.621439 157.128919 
L 722.624136 221.890162 
L 724.626833 182.531643 
L 726.62953 168.791987 
L 728.632228 173.12765 
L 730.634925 236.631169 
L 732.637622 150.296002 
L 734.64032 158.129339 
L 736.643017 220.671784 
L 738.645714 186.294607 
L 740.648412 171.484812 
L 742.651109 175.314715 
L 744.653806 235.652018 
L 746.656503 153.801663 
L 748.659201 259.935154 
L 750.661898 207.065646 
L 752.664595 162.036414 
L 754.667293 143.856412 
L 756.66999 171.414868 
L 758.672687 290.788307 
L 760.675385 154.129944 
L 762.678082 142.328153 
L 764.680779 190.391022 
L 766.683477 123.570833 
L 768.686174 99.04678 
L 770.688871 126.081947 
L 772.691568 215.602717 
L 774.694266 122.505328 
L 776.696963 100.969429 
L 778.69966 174.661189 
L 780.702358 131.853751 
L 782.705055 113.4304 
L 784.707752 110.057785 
L 786.71045 196.461481 
L 788.713147 93.562217 
L 790.715844 64.75509 
L 792.718541 142.267151 
L 794.721239 112.733177 
L 796.723936 122.321575 
L 798.726633 100.511821 
L 800.729331 154.696878 
L 802.732028 141.781925 
L 804.734725 105.774273 
L 806.737423 179.187952 
L 808.74012 145.94156 
L 810.742817 226.669297 
L 812.745514 273.513078 
L 816.750909 208.381129 
L 816.750909 208.381129 
" clip-path="url(#p765b8e7506)" style="fill: none; stroke: #008000; stroke-linecap: square"/>
   </g>
   <g id="patch_3">
    <path d="M 51.32 318.04 
L 51.32 27.24 
" style="fill: none; stroke: #000000; stroke-width: 0.8; stroke-linejoin: miter; stroke-linecap: square"/>
   </g>
   <g id="patch_4">
    <path d="M 853.2 318.04 
L 853.2 27.24 
" style="fill: none; stroke: #000000; stroke-width: 0.8; stroke-linejoin: miter; stroke-linecap: square"/>
   </g>
   <g id="patch_5">
    <path d="M 51.32 318.04 
L 853.2 318.04 
" style="fill: none; stroke: #000000; stroke-width: 0.8; stroke-linejoin: miter; stroke-linecap: square"/>
   </g>
   <g id="patch_6">
    <path d="M 51.32 27.24 
L 853.2 27.24 
" style="fill: none; stroke: #000000; stroke-width: 0.8; stroke-linejoin: miter; stroke-linecap: square"/>
   </g>
   <g id="text_16">
    <!-- Teljes bruttó villamosenergia-felhasználás előrejelzés 2019-re -->
    <g transform="translate(267.278125 21.24) scale(0.12 -0.12)">
     <defs>
      <path id="DejaVuSans-54" d="M -19 4666 
L 3928 4666 
L 3928 4134 
L 2272 4134 
L 2272 0 
L 1638 0 
L 1638 4134 
L -19 4134 
L -19 4666 
z
" transform="scale(0.015625)"/>
      <path id="DejaVuSans-6a" d="M 603 3500 
L 1178 3500 
L 1178 -63 
Q 1178 -731 923 -1031 
Q 669 -1331 103 -1331 
L -116 -1331 
L -116 -844 
L 38 -844 
Q 366 -844 484 -692 
Q 603 -541 603 -63 
L 603 3500 
z
M 603 4863 
L 1178 4863 
L 1178 4134 
L 603 4134 
L 603 4863 
z
" transform="scale(0.015625)"/>
      <path id="DejaVuSans-62" d="M 3116 1747 
Q 3116 2381 2855 2742 
Q 2594 3103 2138 3103 
Q 1681 3103 1420 2742 
Q 1159 2381 1159 1747 
Q 1159 1113 1420 752 
Q 1681 391 2138 391 
Q 2594 391 2855 752 
Q 3116 1113 3116 1747 
z
M 1159 2969 
Q 1341 3281 1617 3432 
Q 1894 3584 2278 3584 
Q 2916 3584 3314 3078 
Q 3713 2572 3713 1747 
Q 3713 922 3314 415 
Q 2916 -91 2278 -91 
Q 1894 -91 1617 61 
Q 1341 213 1159 525 
L 1159 0 
L 581 0 
L 581 4863 
L 1159 4863 
L 1159 2969 
z
" transform="scale(0.015625)"/>
      <path id="DejaVuSans-75" d="M 544 1381 
L 544 3500 
L 1119 3500 
L 1119 1403 
Q 1119 906 1312 657 
Q 1506 409 1894 409 
Q 2359 409 2629 706 
Q 2900 1003 2900 1516 
L 2900 3500 
L 3475 3500 
L 3475 0 
L 2900 0 
L 2900 538 
Q 2691 219 2414 64 
Q 2138 -91 1772 -91 
Q 1169 -91 856 284 
Q 544 659 544 1381 
z
M 1991 3584 
L 1991 3584 
z
" transform="scale(0.015625)"/>
      <path id="DejaVuSans-f3" d="M 1959 3097 
Q 1497 3097 1228 2736 
Q 959 2375 959 1747 
Q 959 1119 1226 758 
Q 1494 397 1959 397 
Q 2419 397 2687 759 
Q 2956 1122 2956 1747 
Q 2956 2369 2687 2733 
Q 2419 3097 1959 3097 
z
M 1959 3584 
Q 2709 3584 3137 3096 
Q 3566 2609 3566 1747 
Q 3566 888 3137 398 
Q 2709 -91 1959 -91 
Q 1206 -91 779 398 
Q 353 888 353 1747 
Q 353 2609 779 3096 
Q 1206 3584 1959 3584 
z
M 2394 5119 
L 3016 5119 
L 1998 3944 
L 1519 3944 
L 2394 5119 
z
" transform="scale(0.015625)"/>
      <path id="DejaVuSans-68" d="M 3513 2113 
L 3513 0 
L 2938 0 
L 2938 2094 
Q 2938 2591 2744 2837 
Q 2550 3084 2163 3084 
Q 1697 3084 1428 2787 
Q 1159 2491 1159 1978 
L 1159 0 
L 581 0 
L 581 4863 
L 1159 4863 
L 1159 2956 
Q 1366 3272 1645 3428 
Q 1925 3584 2291 3584 
Q 2894 3584 3203 3211 
Q 3513 2838 3513 2113 
z
" transform="scale(0.015625)"/>
      <path id="DejaVuSans-151" d="M 2892 5119 
L 3448 5119 
L 2673 3944 
L 2251 3944 
L 2892 5119 
z
M 1848 5119 
L 2379 5119 
L 1682 3944 
L 1254 3944 
L 1848 5119 
z
M 1959 3097 
Q 1497 3097 1228 2736 
Q 959 2375 959 1747 
Q 959 1119 1226 758 
Q 1494 397 1959 397 
Q 2419 397 2687 759 
Q 2956 1122 2956 1747 
Q 2956 2369 2687 2733 
Q 2419 3097 1959 3097 
z
M 1959 3584 
Q 2709 3584 3137 3096 
Q 3566 2609 3566 1747 
Q 3566 888 3137 398 
Q 2709 -91 1959 -91 
Q 1206 -91 779 398 
Q 353 888 353 1747 
Q 353 2609 779 3096 
Q 1206 3584 1959 3584 
z
" transform="scale(0.015625)"/>
      <path id="DejaVuSans-e9" d="M 3597 1894 
L 3597 1613 
L 953 1613 
Q 991 1019 1311 708 
Q 1631 397 2203 397 
Q 2534 397 2845 478 
Q 3156 559 3463 722 
L 3463 178 
Q 3153 47 2828 -22 
Q 2503 -91 2169 -91 
Q 1331 -91 842 396 
Q 353 884 353 1716 
Q 353 2575 817 3079 
Q 1281 3584 2069 3584 
Q 2775 3584 3186 3129 
Q 3597 2675 3597 1894 
z
M 3022 2063 
Q 3016 2534 2758 2815 
Q 2500 3097 2075 3097 
Q 1594 3097 1305 2825 
Q 1016 2553 972 2059 
L 3022 2063 
z
M 2466 5119 
L 3088 5119 
L 2070 3944 
L 1591 3944 
L 2466 5119 
z
" transform="scale(0.015625)"/>
     </defs>
     <use xlink:href="#DejaVuSans-54"/>
     <use xlink:href="#DejaVuSans-65" transform="translate(44.083984 0)"/>
     <use xlink:href="#DejaVuSans-6c" transform="translate(105.607422 0)"/>
     <use xlink:href="#DejaVuSans-6a" transform="translate(133.390625 0)"/>
     <use xlink:href="#DejaVuSans-65" transform="translate(161.173828 0)"/>
     <use xlink:href="#DejaVuSans-73" transform="translate(222.697266 0)"/>
     <use xlink:href="#DejaVuSans-20" transform="translate(274.796875 0)"/>
     <use xlink:href="#DejaVuSans-62" transform="translate(306.583984 0)"/>
     <use xlink:href="#DejaVuSans-72" transform="translate(370.060547 0)"/>
     <use xlink:href="#DejaVuSans-75" transform="translate(411.173828 0)"/>
     <use xlink:href="#DejaVuSans-74" transform="translate(474.552734 0)"/>
     <use xlink:href="#DejaVuSans-74" transform="translate(513.761719 0)"/>
     <use xlink:href="#DejaVuSans-f3" transform="translate(552.970703 0)"/>
     <use xlink:href="#DejaVuSans-20" transform="translate(614.152344 0)"/>
     <use xlink:href="#DejaVuSans-76" transform="translate(645.939453 0)"/>
     <use xlink:href="#DejaVuSans-69" transform="translate(705.119141 0)"/>
     <use xlink:href="#DejaVuSans-6c" transform="translate(732.902344 0)"/>
     <use xlink:href="#DejaVuSans-6c" transform="translate(760.685547 0)"/>
     <use xlink:href="#DejaVuSans-61" transform="translate(788.46875 0)"/>
     <use xlink:href="#DejaVuSans-6d" transform="translate(849.748047 0)"/>
     <use xlink:href="#DejaVuSans-6f" transform="translate(947.160156 0)"/>
     <use xlink:href="#DejaVuSans-73" transform="translate(1008.341797 0)"/>
     <use xlink:href="#DejaVuSans-65" transform="translate(1060.441406 0)"/>
     <use xlink:href="#DejaVuSans-6e" transform="translate(1121.964844 0)"/>
     <use xlink:href="#DejaVuSans-65" transform="translate(1185.34375 0)"/>
     <use xlink:href="#DejaVuSans-72" transform="translate(1246.867188 0)"/>
     <use xlink:href="#DejaVuSans-67" transform="translate(1286.230469 0)"/>
     <use xlink:href="#DejaVuSans-69" transform="translate(1349.707031 0)"/>
     <use xlink:href="#DejaVuSans-61" transform="translate(1377.490234 0)"/>
     <use xlink:href="#DejaVuSans-2d" transform="translate(1438.769531 0)"/>
     <use xlink:href="#DejaVuSans-66" transform="translate(1474.853516 0)"/>
     <use xlink:href="#DejaVuSans-65" transform="translate(1510.058594 0)"/>
     <use xlink:href="#DejaVuSans-6c" transform="translate(1571.582031 0)"/>
     <use xlink:href="#DejaVuSans-68" transform="translate(1599.365234 0)"/>
     <use xlink:href="#DejaVuSans-61" transform="translate(1662.744141 0)"/>
     <use xlink:href="#DejaVuSans-73" transform="translate(1724.023438 0)"/>
     <use xlink:href="#DejaVuSans-7a" transform="translate(1776.123047 0)"/>
     <use xlink:href="#DejaVuSans-6e" transform="translate(1828.613281 0)"/>
     <use xlink:href="#DejaVuSans-e1" transform="translate(1891.992188 0)"/>
     <use xlink:href="#DejaVuSans-6c" transform="translate(1953.271484 0)"/>
     <use xlink:href="#DejaVuSans-e1" transform="translate(1981.054688 0)"/>
     <use xlink:href="#DejaVuSans-73" transform="translate(2042.333984 0)"/>
     <use xlink:href="#DejaVuSans-20" transform="translate(2094.433594 0)"/>
     <use xlink:href="#DejaVuSans-65" transform="translate(2126.220703 0)"/>
     <use xlink:href="#DejaVuSans-6c" transform="translate(2187.744141 0)"/>
     <use xlink:href="#DejaVuSans-151" transform="translate(2215.527344 0)"/>
     <use xlink:href="#DejaVuSans-72" transform="translate(2276.708984 0)"/>
     <use xlink:href="#DejaVuSans-65" transform="translate(2315.572266 0)"/>
     <use xlink:href="#DejaVuSans-6a" transform="translate(2377.095703 0)"/>
     <use xlink:href="#DejaVuSans-65" transform="translate(2404.878906 0)"/>
     <use xlink:href="#DejaVuSans-6c" transform="translate(2466.402344 0)"/>
     <use xlink:href="#DejaVuSans-7a" transform="translate(2494.185547 0)"/>
     <use xlink:href="#DejaVuSans-e9" transform="translate(2546.675781 0)"/>
     <use xlink:href="#DejaVuSans-73" transform="translate(2608.199219 0)"/>
     <use xlink:href="#DejaVuSans-20" transform="translate(2660.298828 0)"/>
     <use xlink:href="#DejaVuSans-32" transform="translate(2692.085938 0)"/>
     <use xlink:href="#DejaVuSans-30" transform="translate(2755.708984 0)"/>
     <use xlink:href="#DejaVuSans-31" transform="translate(2819.332031 0)"/>
     <use xlink:href="#DejaVuSans-39" transform="translate(2882.955078 0)"/>
     <use xlink:href="#DejaVuSans-2d" transform="translate(2946.578125 0)"/>
     <use xlink:href="#DejaVuSans-72" transform="translate(2982.662109 0)"/>
     <use xlink:href="#DejaVuSans-65" transform="translate(3021.525391 0)"/>
    </g>
   </g>
   <g id="legend_1">
    <g id="patch_7">
     <path d="M 58.32 313.04 
L 175.8325 313.04 
Q 177.8325 313.04 177.8325 311.04 
L 177.8325 281.88375 
Q 177.8325 279.88375 175.8325 279.88375 
L 58.32 279.88375 
Q 56.32 279.88375 56.32 281.88375 
L 56.32 311.04 
Q 56.32 313.04 58.32 313.04 
z
" style="fill: #ffffff; opacity: 0.8; stroke: #cccccc; stroke-linejoin: miter"/>
    </g>
    <g id="line2d_29">
     <path d="M 60.32 288.382187 
L 70.32 288.382187 
L 80.32 288.382187 
" style="fill: none; stroke: #0000ff; stroke-linecap: square"/>
    </g>
    <g id="text_17">
     <!-- Tényadat -->
     <g transform="translate(88.32 291.882187) scale(0.1 -0.1)">
      <defs>
       <path id="DejaVuSans-64" d="M 2906 2969 
L 2906 4863 
L 3481 4863 
L 3481 0 
L 2906 0 
L 2906 525 
Q 2725 213 2448 61 
Q 2172 -91 1784 -91 
Q 1150 -91 751 415 
Q 353 922 353 1747 
Q 353 2572 751 3078 
Q 1150 3584 1784 3584 
Q 2172 3584 2448 3432 
Q 2725 3281 2906 2969 
z
M 947 1747 
Q 947 1113 1208 752 
Q 1469 391 1925 391 
Q 2381 391 2643 752 
Q 2906 1113 2906 1747 
Q 2906 2381 2643 2742 
Q 2381 3103 1925 3103 
Q 1469 3103 1208 2742 
Q 947 2381 947 1747 
z
" transform="scale(0.015625)"/>
      </defs>
      <use xlink:href="#DejaVuSans-54"/>
      <use xlink:href="#DejaVuSans-e9" transform="translate(44.083984 0)"/>
      <use xlink:href="#DejaVuSans-6e" transform="translate(105.607422 0)"/>
      <use xlink:href="#DejaVuSans-79" transform="translate(168.986328 0)"/>
      <use xlink:href="#DejaVuSans-61" transform="translate(228.166016 0)"/>
      <use xlink:href="#DejaVuSans-64" transform="translate(289.445312 0)"/>
      <use xlink:href="#DejaVuSans-61" transform="translate(352.921875 0)"/>
      <use xlink:href="#DejaVuSans-74" transform="translate(414.201172 0)"/>
     </g>
    </g>
    <g id="line2d_30">
     <path d="M 60.32 303.460312 
L 70.32 303.460312 
L 80.32 303.460312 
" style="fill: none; stroke: #008000; stroke-linecap: square"/>
    </g>
    <g id="text_18">
     <!-- Előrejelzett érték -->
     <g transform="translate(88.32 306.960312) scale(0.1 -0.1)">
      <use xlink:href="#DejaVuSans-45"/>
      <use xlink:href="#DejaVuSans-6c" transform="translate(63.183594 0)"/>
      <use xlink:href="#DejaVuSans-151" transform="translate(90.966797 0)"/>
      <use xlink:href="#DejaVuSans-72" transform="translate(152.148438 0)"/>
      <use xlink:href="#DejaVuSans-65" transform="translate(191.011719 0)"/>
      <use xlink:href="#DejaVuSans-6a" transform="translate(252.535156 0)"/>
      <use xlink:href="#DejaVuSans-65" transform="translate(280.318359 0)"/>
      <use xlink:href="#DejaVuSans-6c" transform="translate(341.841797 0)"/>
      <use xlink:href="#DejaVuSans-7a" transform="translate(369.625 0)"/>
      <use xlink:href="#DejaVuSans-65" transform="translate(422.115234 0)"/>
      <use xlink:href="#DejaVuSans-74" transform="translate(483.638672 0)"/>
      <use xlink:href="#DejaVuSans-74" transform="translate(522.847656 0)"/>
      <use xlink:href="#DejaVuSans-20" transform="translate(562.056641 0)"/>
      <use xlink:href="#DejaVuSans-e9" transform="translate(593.84375 0)"/>
      <use xlink:href="#DejaVuSans-72" transform="translate(655.367188 0)"/>
      <use xlink:href="#DejaVuSans-74" transform="translate(696.480469 0)"/>
      <use xlink:href="#DejaVuSans-e9" transform="translate(735.689453 0)"/>
      <use xlink:href="#DejaVuSans-6b" transform="translate(797.212891 0)"/>
     </g>
    </g>
   </g>
  </g>
 </g>
 <defs>
  <clipPath id="p765b8e7506">
   <rect x="51.32" y="27.24" width="801.88" height="290.8"/>
  </clipPath>
 </defs>
</svg>
