<?xml version="1.0" encoding="utf-8" standalone="no"?>
<!DOCTYPE svg PUBLIC "-//W3C//DTD SVG 1.1//EN"
  "http://www.w3.org/Graphics/SVG/1.1/DTD/svg11.dtd">
<svg xmlns:xlink="http://www.w3.org/1999/xlink" width="864pt" height="360pt" viewBox="0 0 864 360" xmlns="http://www.w3.org/2000/svg" version="1.1">
 <metadata>
  <rdf:RDF xmlns:dc="http://purl.org/dc/elements/1.1/" xmlns:cc="http://creativecommons.org/ns#" xmlns:rdf="http://www.w3.org/1999/02/22-rdf-syntax-ns#">
   <cc:Work>
    <dc:type rdf:resource="http://purl.org/dc/dcmitype/StillImage"/>
    <dc:date>2025-06-11T18:42:46.213668</dc:date>
    <dc:format>image/svg+xml</dc:format>
    <dc:creator>
     <cc:Agent>
      <dc:title>Matplotlib v3.10.3, https://matplotlib.org/</dc:title>
     </cc:Agent>
    </dc:creator>
   </cc:Work>
  </rdf:RDF>
 </metadata>
 <defs>
  <style type="text/css">*{stroke-linejoin: round; stroke-linecap: butt}</style>
 </defs>
 <g id="figure_1">
  <g id="patch_1">
   <path d="M 0 360 
L 864 360 
L 864 0 
L 0 0 
z
" style="fill: #ffffff"/>
  </g>
  <g id="axes_1">
   <g id="patch_2">
    <path d="M 108 320.4 
L 777.6 320.4 
L 777.6 43.2 
L 108 43.2 
z
" style="fill: #ffffff"/>
   </g>
   <g id="matplotlib.axis_1">
    <g id="xtick_1">
     <g id="line2d_1">
      <path d="M 138.436364 320.4 
L 138.436364 43.2 
" clip-path="url(#pbcd4dc781c)" style="fill: none; stroke: #b0b0b0; stroke-width: 0.8; stroke-linecap: square"/>
     </g>
     <g id="line2d_2">
      <defs>
       <path id="m8153ced0ac" d="M 0 0 
L 0 3.5 
" style="stroke: #000000; stroke-width: 0.8"/>
      </defs>
      <g>
       <use xlink:href="#m8153ced0ac" x="138.436364" y="320.4" style="stroke: #000000; stroke-width: 0.8"/>
      </g>
     </g>
     <g id="text_1">
      <!-- 2015 -->
      <g transform="translate(125.711364 334.998438) scale(0.1 -0.1)">
       <defs>
        <path id="DejaVuSans-32" d="M 1228 531 
L 3431 531 
L 3431 0 
L 469 0 
L 469 531 
Q 828 903 1448 1529 
Q 2069 2156 2228 2338 
Q 2531 2678 2651 2914 
Q 2772 3150 2772 3378 
Q 2772 3750 2511 3984 
Q 2250 4219 1831 4219 
Q 1534 4219 1204 4116 
Q 875 4013 500 3803 
L 500 4441 
Q 881 4594 1212 4672 
Q 1544 4750 1819 4750 
Q 2544 4750 2975 4387 
Q 3406 4025 3406 3419 
Q 3406 3131 3298 2873 
Q 3191 2616 2906 2266 
Q 2828 2175 2409 1742 
Q 1991 1309 1228 531 
z
" transform="scale(0.015625)"/>
        <path id="DejaVuSans-30" d="M 2034 4250 
Q 1547 4250 1301 3770 
Q 1056 3291 1056 2328 
Q 1056 1369 1301 889 
Q 1547 409 2034 409 
Q 2525 409 2770 889 
Q 3016 1369 3016 2328 
Q 3016 3291 2770 3770 
Q 2525 4250 2034 4250 
z
M 2034 4750 
Q 2819 4750 3233 4129 
Q 3647 3509 3647 2328 
Q 3647 1150 3233 529 
Q 2819 -91 2034 -91 
Q 1250 -91 836 529 
Q 422 1150 422 2328 
Q 422 3509 836 4129 
Q 1250 4750 2034 4750 
z
" transform="scale(0.015625)"/>
        <path id="DejaVuSans-31" d="M 794 531 
L 1825 531 
L 1825 4091 
L 703 3866 
L 703 4441 
L 1819 4666 
L 2450 4666 
L 2450 531 
L 3481 531 
L 3481 0 
L 794 0 
L 794 531 
z
" transform="scale(0.015625)"/>
        <path id="DejaVuSans-35" d="M 691 4666 
L 3169 4666 
L 3169 4134 
L 1269 4134 
L 1269 2991 
Q 1406 3038 1543 3061 
Q 1681 3084 1819 3084 
Q 2600 3084 3056 2656 
Q 3513 2228 3513 1497 
Q 3513 744 3044 326 
Q 2575 -91 1722 -91 
Q 1428 -91 1123 -41 
Q 819 9 494 109 
L 494 744 
Q 775 591 1075 516 
Q 1375 441 1709 441 
Q 2250 441 2565 725 
Q 2881 1009 2881 1497 
Q 2881 1984 2565 2268 
Q 2250 2553 1709 2553 
Q 1456 2553 1204 2497 
Q 953 2441 691 2322 
L 691 4666 
z
" transform="scale(0.015625)"/>
       </defs>
       <use xlink:href="#DejaVuSans-32"/>
       <use xlink:href="#DejaVuSans-30" transform="translate(63.623047 0)"/>
       <use xlink:href="#DejaVuSans-31" transform="translate(127.246094 0)"/>
       <use xlink:href="#DejaVuSans-35" transform="translate(190.869141 0)"/>
      </g>
     </g>
    </g>
    <g id="xtick_2">
     <g id="line2d_3">
      <path d="M 260.181818 320.4 
L 260.181818 43.2 
" clip-path="url(#pbcd4dc781c)" style="fill: none; stroke: #b0b0b0; stroke-width: 0.8; stroke-linecap: square"/>
     </g>
     <g id="line2d_4">
      <g>
       <use xlink:href="#m8153ced0ac" x="260.181818" y="320.4" style="stroke: #000000; stroke-width: 0.8"/>
      </g>
     </g>
     <g id="text_2">
      <!-- 2016 -->
      <g transform="translate(247.456818 334.998438) scale(0.1 -0.1)">
       <defs>
        <path id="DejaVuSans-36" d="M 2113 2584 
Q 1688 2584 1439 2293 
Q 1191 2003 1191 1497 
Q 1191 994 1439 701 
Q 1688 409 2113 409 
Q 2538 409 2786 701 
Q 3034 994 3034 1497 
Q 3034 2003 2786 2293 
Q 2538 2584 2113 2584 
z
M 3366 4563 
L 3366 3988 
Q 3128 4100 2886 4159 
Q 2644 4219 2406 4219 
Q 1781 4219 1451 3797 
Q 1122 3375 1075 2522 
Q 1259 2794 1537 2939 
Q 1816 3084 2150 3084 
Q 2853 3084 3261 2657 
Q 3669 2231 3669 1497 
Q 3669 778 3244 343 
Q 2819 -91 2113 -91 
Q 1303 -91 875 529 
Q 447 1150 447 2328 
Q 447 3434 972 4092 
Q 1497 4750 2381 4750 
Q 2619 4750 2861 4703 
Q 3103 4656 3366 4563 
z
" transform="scale(0.015625)"/>
       </defs>
       <use xlink:href="#DejaVuSans-32"/>
       <use xlink:href="#DejaVuSans-30" transform="translate(63.623047 0)"/>
       <use xlink:href="#DejaVuSans-31" transform="translate(127.246094 0)"/>
       <use xlink:href="#DejaVuSans-36" transform="translate(190.869141 0)"/>
      </g>
     </g>
    </g>
    <g id="xtick_3">
     <g id="line2d_5">
      <path d="M 382.260822 320.4 
L 382.260822 43.2 
" clip-path="url(#pbcd4dc781c)" style="fill: none; stroke: #b0b0b0; stroke-width: 0.8; stroke-linecap: square"/>
     </g>
     <g id="line2d_6">
      <g>
       <use xlink:href="#m8153ced0ac" x="382.260822" y="320.4" style="stroke: #000000; stroke-width: 0.8"/>
      </g>
     </g>
     <g id="text_3">
      <!-- 2017 -->
      <g transform="translate(369.535822 334.998438) scale(0.1 -0.1)">
       <defs>
        <path id="DejaVuSans-37" d="M 525 4666 
L 3525 4666 
L 3525 4397 
L 1831 0 
L 1172 0 
L 2766 4134 
L 525 4134 
L 525 4666 
z
" transform="scale(0.015625)"/>
       </defs>
       <use xlink:href="#DejaVuSans-32"/>
       <use xlink:href="#DejaVuSans-30" transform="translate(63.623047 0)"/>
       <use xlink:href="#DejaVuSans-31" transform="translate(127.246094 0)"/>
       <use xlink:href="#DejaVuSans-37" transform="translate(190.869141 0)"/>
      </g>
     </g>
    </g>
    <g id="xtick_4">
     <g id="line2d_7">
      <path d="M 504.006276 320.4 
L 504.006276 43.2 
" clip-path="url(#pbcd4dc781c)" style="fill: none; stroke: #b0b0b0; stroke-width: 0.8; stroke-linecap: square"/>
     </g>
     <g id="line2d_8">
      <g>
       <use xlink:href="#m8153ced0ac" x="504.006276" y="320.4" style="stroke: #000000; stroke-width: 0.8"/>
      </g>
     </g>
     <g id="text_4">
      <!-- 2018 -->
      <g transform="translate(491.281276 334.998438) scale(0.1 -0.1)">
       <defs>
        <path id="DejaVuSans-38" d="M 2034 2216 
Q 1584 2216 1326 1975 
Q 1069 1734 1069 1313 
Q 1069 891 1326 650 
Q 1584 409 2034 409 
Q 2484 409 2743 651 
Q 3003 894 3003 1313 
Q 3003 1734 2745 1975 
Q 2488 2216 2034 2216 
z
M 1403 2484 
Q 997 2584 770 2862 
Q 544 3141 544 3541 
Q 544 4100 942 4425 
Q 1341 4750 2034 4750 
Q 2731 4750 3128 4425 
Q 3525 4100 3525 3541 
Q 3525 3141 3298 2862 
Q 3072 2584 2669 2484 
Q 3125 2378 3379 2068 
Q 3634 1759 3634 1313 
Q 3634 634 3220 271 
Q 2806 -91 2034 -91 
Q 1263 -91 848 271 
Q 434 634 434 1313 
Q 434 1759 690 2068 
Q 947 2378 1403 2484 
z
M 1172 3481 
Q 1172 3119 1398 2916 
Q 1625 2713 2034 2713 
Q 2441 2713 2670 2916 
Q 2900 3119 2900 3481 
Q 2900 3844 2670 4047 
Q 2441 4250 2034 4250 
Q 1625 4250 1398 4047 
Q 1172 3844 1172 3481 
z
" transform="scale(0.015625)"/>
       </defs>
       <use xlink:href="#DejaVuSans-32"/>
       <use xlink:href="#DejaVuSans-30" transform="translate(63.623047 0)"/>
       <use xlink:href="#DejaVuSans-31" transform="translate(127.246094 0)"/>
       <use xlink:href="#DejaVuSans-38" transform="translate(190.869141 0)"/>
      </g>
     </g>
    </g>
    <g id="xtick_5">
     <g id="line2d_9">
      <path d="M 625.751731 320.4 
L 625.751731 43.2 
" clip-path="url(#pbcd4dc781c)" style="fill: none; stroke: #b0b0b0; stroke-width: 0.8; stroke-linecap: square"/>
     </g>
     <g id="line2d_10">
      <g>
       <use xlink:href="#m8153ced0ac" x="625.751731" y="320.4" style="stroke: #000000; stroke-width: 0.8"/>
      </g>
     </g>
     <g id="text_5">
      <!-- 2019 -->
      <g transform="translate(613.026731 334.998438) scale(0.1 -0.1)">
       <defs>
        <path id="DejaVuSans-39" d="M 703 97 
L 703 672 
Q 941 559 1184 500 
Q 1428 441 1663 441 
Q 2288 441 2617 861 
Q 2947 1281 2994 2138 
Q 2813 1869 2534 1725 
Q 2256 1581 1919 1581 
Q 1219 1581 811 2004 
Q 403 2428 403 3163 
Q 403 3881 828 4315 
Q 1253 4750 1959 4750 
Q 2769 4750 3195 4129 
Q 3622 3509 3622 2328 
Q 3622 1225 3098 567 
Q 2575 -91 1691 -91 
Q 1453 -91 1209 -44 
Q 966 3 703 97 
z
M 1959 2075 
Q 2384 2075 2632 2365 
Q 2881 2656 2881 3163 
Q 2881 3666 2632 3958 
Q 2384 4250 1959 4250 
Q 1534 4250 1286 3958 
Q 1038 3666 1038 3163 
Q 1038 2656 1286 2365 
Q 1534 2075 1959 2075 
z
" transform="scale(0.015625)"/>
       </defs>
       <use xlink:href="#DejaVuSans-32"/>
       <use xlink:href="#DejaVuSans-30" transform="translate(63.623047 0)"/>
       <use xlink:href="#DejaVuSans-31" transform="translate(127.246094 0)"/>
       <use xlink:href="#DejaVuSans-39" transform="translate(190.869141 0)"/>
      </g>
     </g>
    </g>
    <g id="xtick_6">
     <g id="line2d_11">
      <path d="M 747.497186 320.4 
L 747.497186 43.2 
" clip-path="url(#pbcd4dc781c)" style="fill: none; stroke: #b0b0b0; stroke-width: 0.8; stroke-linecap: square"/>
     </g>
     <g id="line2d_12">
      <g>
       <use xlink:href="#m8153ced0ac" x="747.497186" y="320.4" style="stroke: #000000; stroke-width: 0.8"/>
      </g>
     </g>
     <g id="text_6">
      <!-- 2020 -->
      <g transform="translate(734.772186 334.998438) scale(0.1 -0.1)">
       <use xlink:href="#DejaVuSans-32"/>
       <use xlink:href="#DejaVuSans-30" transform="translate(63.623047 0)"/>
       <use xlink:href="#DejaVuSans-32" transform="translate(127.246094 0)"/>
       <use xlink:href="#DejaVuSans-30" transform="translate(190.869141 0)"/>
      </g>
     </g>
    </g>
    <g id="text_7">
     <!-- Év -->
     <g transform="translate(436.68125 348.676562) scale(0.1 -0.1)">
      <defs>
       <path id="DejaVuSans-c9" d="M 628 4666 
L 3578 4666 
L 3578 4134 
L 1259 4134 
L 1259 2753 
L 3481 2753 
L 3481 2222 
L 1259 2222 
L 1259 531 
L 3634 531 
L 3634 0 
L 628 0 
L 628 4666 
z
M 2268 5921 
L 2846 5921 
L 2134 5096 
L 1655 5096 
L 2268 5921 
z
" transform="scale(0.015625)"/>
       <path id="DejaVuSans-76" d="M 191 3500 
L 800 3500 
L 1894 563 
L 2988 3500 
L 3597 3500 
L 2284 0 
L 1503 0 
L 191 3500 
z
" transform="scale(0.015625)"/>
      </defs>
      <use xlink:href="#DejaVuSans-c9"/>
      <use xlink:href="#DejaVuSans-76" transform="translate(63.183594 0)"/>
     </g>
    </g>
   </g>
   <g id="matplotlib.axis_2">
    <g id="ytick_1">
     <g id="line2d_13">
      <path d="M 108 279.457908 
L 777.6 279.457908 
" clip-path="url(#pbcd4dc781c)" style="fill: none; stroke: #b0b0b0; stroke-width: 0.8; stroke-linecap: square"/>
     </g>
     <g id="line2d_14">
      <defs>
       <path id="mdc69627c4a" d="M 0 0 
L -3.5 0 
" style="stroke: #000000; stroke-width: 0.8"/>
      </defs>
      <g>
       <use xlink:href="#mdc69627c4a" x="108" y="279.457908" style="stroke: #000000; stroke-width: 0.8"/>
      </g>
     </g>
     <g id="text_8">
      <!-- 100 -->
      <g transform="translate(81.9125 283.257127) scale(0.1 -0.1)">
       <use xlink:href="#DejaVuSans-31"/>
       <use xlink:href="#DejaVuSans-30" transform="translate(63.623047 0)"/>
       <use xlink:href="#DejaVuSans-30" transform="translate(127.246094 0)"/>
      </g>
     </g>
    </g>
    <g id="ytick_2">
     <g id="line2d_15">
      <path d="M 108 237.282176 
L 777.6 237.282176 
" clip-path="url(#pbcd4dc781c)" style="fill: none; stroke: #b0b0b0; stroke-width: 0.8; stroke-linecap: square"/>
     </g>
     <g id="line2d_16">
      <g>
       <use xlink:href="#mdc69627c4a" x="108" y="237.282176" style="stroke: #000000; stroke-width: 0.8"/>
      </g>
     </g>
     <g id="text_9">
      <!-- 110 -->
      <g transform="translate(81.9125 241.081394) scale(0.1 -0.1)">
       <use xlink:href="#DejaVuSans-31"/>
       <use xlink:href="#DejaVuSans-31" transform="translate(63.623047 0)"/>
       <use xlink:href="#DejaVuSans-30" transform="translate(127.246094 0)"/>
      </g>
     </g>
    </g>
    <g id="ytick_3">
     <g id="line2d_17">
      <path d="M 108 195.106444 
L 777.6 195.106444 
" clip-path="url(#pbcd4dc781c)" style="fill: none; stroke: #b0b0b0; stroke-width: 0.8; stroke-linecap: square"/>
     </g>
     <g id="line2d_18">
      <g>
       <use xlink:href="#mdc69627c4a" x="108" y="195.106444" style="stroke: #000000; stroke-width: 0.8"/>
      </g>
     </g>
     <g id="text_10">
      <!-- 120 -->
      <g transform="translate(81.9125 198.905662) scale(0.1 -0.1)">
       <use xlink:href="#DejaVuSans-31"/>
       <use xlink:href="#DejaVuSans-32" transform="translate(63.623047 0)"/>
       <use xlink:href="#DejaVuSans-30" transform="translate(127.246094 0)"/>
      </g>
     </g>
    </g>
    <g id="ytick_4">
     <g id="line2d_19">
      <path d="M 108 152.930711 
L 777.6 152.930711 
" clip-path="url(#pbcd4dc781c)" style="fill: none; stroke: #b0b0b0; stroke-width: 0.8; stroke-linecap: square"/>
     </g>
     <g id="line2d_20">
      <g>
       <use xlink:href="#mdc69627c4a" x="108" y="152.930711" style="stroke: #000000; stroke-width: 0.8"/>
      </g>
     </g>
     <g id="text_11">
      <!-- 130 -->
      <g transform="translate(81.9125 156.72993) scale(0.1 -0.1)">
       <defs>
        <path id="DejaVuSans-33" d="M 2597 2516 
Q 3050 2419 3304 2112 
Q 3559 1806 3559 1356 
Q 3559 666 3084 287 
Q 2609 -91 1734 -91 
Q 1441 -91 1130 -33 
Q 819 25 488 141 
L 488 750 
Q 750 597 1062 519 
Q 1375 441 1716 441 
Q 2309 441 2620 675 
Q 2931 909 2931 1356 
Q 2931 1769 2642 2001 
Q 2353 2234 1838 2234 
L 1294 2234 
L 1294 2753 
L 1863 2753 
Q 2328 2753 2575 2939 
Q 2822 3125 2822 3475 
Q 2822 3834 2567 4026 
Q 2313 4219 1838 4219 
Q 1578 4219 1281 4162 
Q 984 4106 628 3988 
L 628 4550 
Q 988 4650 1302 4700 
Q 1616 4750 1894 4750 
Q 2613 4750 3031 4423 
Q 3450 4097 3450 3541 
Q 3450 3153 3228 2886 
Q 3006 2619 2597 2516 
z
" transform="scale(0.015625)"/>
       </defs>
       <use xlink:href="#DejaVuSans-31"/>
       <use xlink:href="#DejaVuSans-33" transform="translate(63.623047 0)"/>
       <use xlink:href="#DejaVuSans-30" transform="translate(127.246094 0)"/>
      </g>
     </g>
    </g>
    <g id="ytick_5">
     <g id="line2d_21">
      <path d="M 108 110.754979 
L 777.6 110.754979 
" clip-path="url(#pbcd4dc781c)" style="fill: none; stroke: #b0b0b0; stroke-width: 0.8; stroke-linecap: square"/>
     </g>
     <g id="line2d_22">
      <g>
       <use xlink:href="#mdc69627c4a" x="108" y="110.754979" style="stroke: #000000; stroke-width: 0.8"/>
      </g>
     </g>
     <g id="text_12">
      <!-- 140 -->
      <g transform="translate(81.9125 114.554198) scale(0.1 -0.1)">
       <defs>
        <path id="DejaVuSans-34" d="M 2419 4116 
L 825 1625 
L 2419 1625 
L 2419 4116 
z
M 2253 4666 
L 3047 4666 
L 3047 1625 
L 3713 1625 
L 3713 1100 
L 3047 1100 
L 3047 0 
L 2419 0 
L 2419 1100 
L 313 1100 
L 313 1709 
L 2253 4666 
z
" transform="scale(0.015625)"/>
       </defs>
       <use xlink:href="#DejaVuSans-31"/>
       <use xlink:href="#DejaVuSans-34" transform="translate(63.623047 0)"/>
       <use xlink:href="#DejaVuSans-30" transform="translate(127.246094 0)"/>
      </g>
     </g>
    </g>
    <g id="ytick_6">
     <g id="line2d_23">
      <path d="M 108 68.579247 
L 777.6 68.579247 
" clip-path="url(#pbcd4dc781c)" style="fill: none; stroke: #b0b0b0; stroke-width: 0.8; stroke-linecap: square"/>
     </g>
     <g id="line2d_24">
      <g>
       <use xlink:href="#mdc69627c4a" x="108" y="68.579247" style="stroke: #000000; stroke-width: 0.8"/>
      </g>
     </g>
     <g id="text_13">
      <!-- 150 -->
      <g transform="translate(81.9125 72.378466) scale(0.1 -0.1)">
       <use xlink:href="#DejaVuSans-31"/>
       <use xlink:href="#DejaVuSans-35" transform="translate(63.623047 0)"/>
       <use xlink:href="#DejaVuSans-30" transform="translate(127.246094 0)"/>
      </g>
     </g>
    </g>
    <g id="text_14">
     <!-- Energiafogyasztás [GWh] -->
     <g transform="translate(75.832812 245.152344) rotate(-90) scale(0.1 -0.1)">
      <defs>
       <path id="DejaVuSans-45" d="M 628 4666 
L 3578 4666 
L 3578 4134 
L 1259 4134 
L 1259 2753 
L 3481 2753 
L 3481 2222 
L 1259 2222 
L 1259 531 
L 3634 531 
L 3634 0 
L 628 0 
L 628 4666 
z
" transform="scale(0.015625)"/>
       <path id="DejaVuSans-6e" d="M 3513 2113 
L 3513 0 
L 2938 0 
L 2938 2094 
Q 2938 2591 2744 2837 
Q 2550 3084 2163 3084 
Q 1697 3084 1428 2787 
Q 1159 2491 1159 1978 
L 1159 0 
L 581 0 
L 581 3500 
L 1159 3500 
L 1159 2956 
Q 1366 3272 1645 3428 
Q 1925 3584 2291 3584 
Q 2894 3584 3203 3211 
Q 3513 2838 3513 2113 
z
" transform="scale(0.015625)"/>
       <path id="DejaVuSans-65" d="M 3597 1894 
L 3597 1613 
L 953 1613 
Q 991 1019 1311 708 
Q 1631 397 2203 397 
Q 2534 397 2845 478 
Q 3156 559 3463 722 
L 3463 178 
Q 3153 47 2828 -22 
Q 2503 -91 2169 -91 
Q 1331 -91 842 396 
Q 353 884 353 1716 
Q 353 2575 817 3079 
Q 1281 3584 2069 3584 
Q 2775 3584 3186 3129 
Q 3597 2675 3597 1894 
z
M 3022 2063 
Q 3016 2534 2758 2815 
Q 2500 3097 2075 3097 
Q 1594 3097 1305 2825 
Q 1016 2553 972 2059 
L 3022 2063 
z
" transform="scale(0.015625)"/>
       <path id="DejaVuSans-72" d="M 2631 2963 
Q 2534 3019 2420 3045 
Q 2306 3072 2169 3072 
Q 1681 3072 1420 2755 
Q 1159 2438 1159 1844 
L 1159 0 
L 581 0 
L 581 3500 
L 1159 3500 
L 1159 2956 
Q 1341 3275 1631 3429 
Q 1922 3584 2338 3584 
Q 2397 3584 2469 3576 
Q 2541 3569 2628 3553 
L 2631 2963 
z
" transform="scale(0.015625)"/>
       <path id="DejaVuSans-67" d="M 2906 1791 
Q 2906 2416 2648 2759 
Q 2391 3103 1925 3103 
Q 1463 3103 1205 2759 
Q 947 2416 947 1791 
Q 947 1169 1205 825 
Q 1463 481 1925 481 
Q 2391 481 2648 825 
Q 2906 1169 2906 1791 
z
M 3481 434 
Q 3481 -459 3084 -895 
Q 2688 -1331 1869 -1331 
Q 1566 -1331 1297 -1286 
Q 1028 -1241 775 -1147 
L 775 -588 
Q 1028 -725 1275 -790 
Q 1522 -856 1778 -856 
Q 2344 -856 2625 -561 
Q 2906 -266 2906 331 
L 2906 616 
Q 2728 306 2450 153 
Q 2172 0 1784 0 
Q 1141 0 747 490 
Q 353 981 353 1791 
Q 353 2603 747 3093 
Q 1141 3584 1784 3584 
Q 2172 3584 2450 3431 
Q 2728 3278 2906 2969 
L 2906 3500 
L 3481 3500 
L 3481 434 
z
" transform="scale(0.015625)"/>
       <path id="DejaVuSans-69" d="M 603 3500 
L 1178 3500 
L 1178 0 
L 603 0 
L 603 3500 
z
M 603 4863 
L 1178 4863 
L 1178 4134 
L 603 4134 
L 603 4863 
z
" transform="scale(0.015625)"/>
       <path id="DejaVuSans-61" d="M 2194 1759 
Q 1497 1759 1228 1600 
Q 959 1441 959 1056 
Q 959 750 1161 570 
Q 1363 391 1709 391 
Q 2188 391 2477 730 
Q 2766 1069 2766 1631 
L 2766 1759 
L 2194 1759 
z
M 3341 1997 
L 3341 0 
L 2766 0 
L 2766 531 
Q 2569 213 2275 61 
Q 1981 -91 1556 -91 
Q 1019 -91 701 211 
Q 384 513 384 1019 
Q 384 1609 779 1909 
Q 1175 2209 1959 2209 
L 2766 2209 
L 2766 2266 
Q 2766 2663 2505 2880 
Q 2244 3097 1772 3097 
Q 1472 3097 1187 3025 
Q 903 2953 641 2809 
L 641 3341 
Q 956 3463 1253 3523 
Q 1550 3584 1831 3584 
Q 2591 3584 2966 3190 
Q 3341 2797 3341 1997 
z
" transform="scale(0.015625)"/>
       <path id="DejaVuSans-66" d="M 2375 4863 
L 2375 4384 
L 1825 4384 
Q 1516 4384 1395 4259 
Q 1275 4134 1275 3809 
L 1275 3500 
L 2222 3500 
L 2222 3053 
L 1275 3053 
L 1275 0 
L 697 0 
L 697 3053 
L 147 3053 
L 147 3500 
L 697 3500 
L 697 3744 
Q 697 4328 969 4595 
Q 1241 4863 1831 4863 
L 2375 4863 
z
" transform="scale(0.015625)"/>
       <path id="DejaVuSans-6f" d="M 1959 3097 
Q 1497 3097 1228 2736 
Q 959 2375 959 1747 
Q 959 1119 1226 758 
Q 1494 397 1959 397 
Q 2419 397 2687 759 
Q 2956 1122 2956 1747 
Q 2956 2369 2687 2733 
Q 2419 3097 1959 3097 
z
M 1959 3584 
Q 2709 3584 3137 3096 
Q 3566 2609 3566 1747 
Q 3566 888 3137 398 
Q 2709 -91 1959 -91 
Q 1206 -91 779 398 
Q 353 888 353 1747 
Q 353 2609 779 3096 
Q 1206 3584 1959 3584 
z
" transform="scale(0.015625)"/>
       <path id="DejaVuSans-79" d="M 2059 -325 
Q 1816 -950 1584 -1140 
Q 1353 -1331 966 -1331 
L 506 -1331 
L 506 -850 
L 844 -850 
Q 1081 -850 1212 -737 
Q 1344 -625 1503 -206 
L 1606 56 
L 191 3500 
L 800 3500 
L 1894 763 
L 2988 3500 
L 3597 3500 
L 2059 -325 
z
" transform="scale(0.015625)"/>
       <path id="DejaVuSans-73" d="M 2834 3397 
L 2834 2853 
Q 2591 2978 2328 3040 
Q 2066 3103 1784 3103 
Q 1356 3103 1142 2972 
Q 928 2841 928 2578 
Q 928 2378 1081 2264 
Q 1234 2150 1697 2047 
L 1894 2003 
Q 2506 1872 2764 1633 
Q 3022 1394 3022 966 
Q 3022 478 2636 193 
Q 2250 -91 1575 -91 
Q 1294 -91 989 -36 
Q 684 19 347 128 
L 347 722 
Q 666 556 975 473 
Q 1284 391 1588 391 
Q 1994 391 2212 530 
Q 2431 669 2431 922 
Q 2431 1156 2273 1281 
Q 2116 1406 1581 1522 
L 1381 1569 
Q 847 1681 609 1914 
Q 372 2147 372 2553 
Q 372 3047 722 3315 
Q 1072 3584 1716 3584 
Q 2034 3584 2315 3537 
Q 2597 3491 2834 3397 
z
" transform="scale(0.015625)"/>
       <path id="DejaVuSans-7a" d="M 353 3500 
L 3084 3500 
L 3084 2975 
L 922 459 
L 3084 459 
L 3084 0 
L 275 0 
L 275 525 
L 2438 3041 
L 353 3041 
L 353 3500 
z
" transform="scale(0.015625)"/>
       <path id="DejaVuSans-74" d="M 1172 4494 
L 1172 3500 
L 2356 3500 
L 2356 3053 
L 1172 3053 
L 1172 1153 
Q 1172 725 1289 603 
Q 1406 481 1766 481 
L 2356 481 
L 2356 0 
L 1766 0 
Q 1100 0 847 248 
Q 594 497 594 1153 
L 594 3053 
L 172 3053 
L 172 3500 
L 594 3500 
L 594 4494 
L 1172 4494 
z
" transform="scale(0.015625)"/>
       <path id="DejaVuSans-e1" d="M 2194 1759 
Q 1497 1759 1228 1600 
Q 959 1441 959 1056 
Q 959 750 1161 570 
Q 1363 391 1709 391 
Q 2188 391 2477 730 
Q 2766 1069 2766 1631 
L 2766 1759 
L 2194 1759 
z
M 3341 1997 
L 3341 0 
L 2766 0 
L 2766 531 
Q 2569 213 2275 61 
Q 1981 -91 1556 -91 
Q 1019 -91 701 211 
Q 384 513 384 1019 
Q 384 1609 779 1909 
Q 1175 2209 1959 2209 
L 2766 2209 
L 2766 2266 
Q 2766 2663 2505 2880 
Q 2244 3097 1772 3097 
Q 1472 3097 1187 3025 
Q 903 2953 641 2809 
L 641 3341 
Q 956 3463 1253 3523 
Q 1550 3584 1831 3584 
Q 2591 3584 2966 3190 
Q 3341 2797 3341 1997 
z
M 2290 5119 
L 2912 5119 
L 1894 3944 
L 1415 3944 
L 2290 5119 
z
" transform="scale(0.015625)"/>
       <path id="DejaVuSans-20" transform="scale(0.015625)"/>
       <path id="DejaVuSans-5b" d="M 550 4863 
L 1875 4863 
L 1875 4416 
L 1125 4416 
L 1125 -397 
L 1875 -397 
L 1875 -844 
L 550 -844 
L 550 4863 
z
" transform="scale(0.015625)"/>
       <path id="DejaVuSans-47" d="M 3809 666 
L 3809 1919 
L 2778 1919 
L 2778 2438 
L 4434 2438 
L 4434 434 
Q 4069 175 3628 42 
Q 3188 -91 2688 -91 
Q 1594 -91 976 548 
Q 359 1188 359 2328 
Q 359 3472 976 4111 
Q 1594 4750 2688 4750 
Q 3144 4750 3555 4637 
Q 3966 4525 4313 4306 
L 4313 3634 
Q 3963 3931 3569 4081 
Q 3175 4231 2741 4231 
Q 1884 4231 1454 3753 
Q 1025 3275 1025 2328 
Q 1025 1384 1454 906 
Q 1884 428 2741 428 
Q 3075 428 3337 486 
Q 3600 544 3809 666 
z
" transform="scale(0.015625)"/>
       <path id="DejaVuSans-57" d="M 213 4666 
L 850 4666 
L 1831 722 
L 2809 4666 
L 3519 4666 
L 4500 722 
L 5478 4666 
L 6119 4666 
L 4947 0 
L 4153 0 
L 3169 4050 
L 2175 0 
L 1381 0 
L 213 4666 
z
" transform="scale(0.015625)"/>
       <path id="DejaVuSans-68" d="M 3513 2113 
L 3513 0 
L 2938 0 
L 2938 2094 
Q 2938 2591 2744 2837 
Q 2550 3084 2163 3084 
Q 1697 3084 1428 2787 
Q 1159 2491 1159 1978 
L 1159 0 
L 581 0 
L 581 4863 
L 1159 4863 
L 1159 2956 
Q 1366 3272 1645 3428 
Q 1925 3584 2291 3584 
Q 2894 3584 3203 3211 
Q 3513 2838 3513 2113 
z
" transform="scale(0.015625)"/>
       <path id="DejaVuSans-5d" d="M 1947 4863 
L 1947 -844 
L 622 -844 
L 622 -397 
L 1369 -397 
L 1369 4416 
L 622 4416 
L 622 4863 
L 1947 4863 
z
" transform="scale(0.015625)"/>
      </defs>
      <use xlink:href="#DejaVuSans-45"/>
      <use xlink:href="#DejaVuSans-6e" transform="translate(63.183594 0)"/>
      <use xlink:href="#DejaVuSans-65" transform="translate(126.5625 0)"/>
      <use xlink:href="#DejaVuSans-72" transform="translate(188.085938 0)"/>
      <use xlink:href="#DejaVuSans-67" transform="translate(227.449219 0)"/>
      <use xlink:href="#DejaVuSans-69" transform="translate(290.925781 0)"/>
      <use xlink:href="#DejaVuSans-61" transform="translate(318.708984 0)"/>
      <use xlink:href="#DejaVuSans-66" transform="translate(379.988281 0)"/>
      <use xlink:href="#DejaVuSans-6f" transform="translate(415.193359 0)"/>
      <use xlink:href="#DejaVuSans-67" transform="translate(476.375 0)"/>
      <use xlink:href="#DejaVuSans-79" transform="translate(539.851562 0)"/>
      <use xlink:href="#DejaVuSans-61" transform="translate(599.03125 0)"/>
      <use xlink:href="#DejaVuSans-73" transform="translate(660.310547 0)"/>
      <use xlink:href="#DejaVuSans-7a" transform="translate(712.410156 0)"/>
      <use xlink:href="#DejaVuSans-74" transform="translate(764.900391 0)"/>
      <use xlink:href="#DejaVuSans-e1" transform="translate(804.109375 0)"/>
      <use xlink:href="#DejaVuSans-73" transform="translate(865.388672 0)"/>
      <use xlink:href="#DejaVuSans-20" transform="translate(917.488281 0)"/>
      <use xlink:href="#DejaVuSans-5b" transform="translate(949.275391 0)"/>
      <use xlink:href="#DejaVuSans-47" transform="translate(988.289062 0)"/>
      <use xlink:href="#DejaVuSans-57" transform="translate(1065.779297 0)"/>
      <use xlink:href="#DejaVuSans-68" transform="translate(1164.65625 0)"/>
      <use xlink:href="#DejaVuSans-5d" transform="translate(1228.035156 0)"/>
     </g>
    </g>
   </g>
   <g id="line2d_25">
    <path d="M 138.436364 254.785105 
L 138.769913 226.147782 
L 139.103462 227.961339 
L 139.437011 226.063431 
L 139.77056 163.305941 
L 140.437659 131.294561 
L 140.771208 124.799498 
L 141.104757 138.801841 
L 141.771856 208.265272 
L 142.105405 157.232636 
L 142.438954 149.219247 
L 142.772503 149.38795 
L 143.106052 151.834142 
L 143.439601 152.298075 
L 143.773151 197.552636 
L 144.1067 218.092218 
L 144.440249 154.238159 
L 144.773798 144.790795 
L 145.107347 145.339079 
L 145.440897 149.050544 
L 145.774446 142.133724 
L 146.107995 186.797824 
L 146.441544 209.235314 
L 146.775093 151.412385 
L 147.108643 132.98159 
L 147.442192 137.578745 
L 147.775741 130.619749 
L 148.10929 133.57205 
L 148.442839 184.899916 
L 148.776389 204.300753 
L 149.109938 148.755314 
L 149.777036 131.378912 
L 150.110585 136.861757 
L 150.444134 134.963849 
L 150.777684 183.634644 
L 151.111233 202.866778 
L 151.444782 138.928368 
L 151.778331 136.693054 
L 152.11188 144.622092 
L 152.44543 145.381255 
L 152.778979 147.827448 
L 153.112528 190.846695 
L 153.446077 215.856904 
L 153.779626 157.907448 
L 154.113176 140.741925 
L 154.446725 141.332385 
L 154.780274 142.260251 
L 155.113823 151.834142 
L 155.447372 196.498243 
L 155.780922 221.761506 
L 156.114471 157.570042 
L 156.44802 154.828619 
L 157.115118 145.845188 
L 157.448667 156.768703 
L 157.782217 204.975565 
L 158.115766 228.214393 
L 158.449315 166.342594 
L 158.782864 163.938577 
L 159.116413 157.570042 
L 159.449963 156.220418 
L 159.783512 159.805356 
L 160.117061 203.330711 
L 160.45061 230.238828 
L 160.784159 173.681172 
L 161.117709 168.662259 
L 161.451258 159.425774 
L 161.784807 172.500251 
L 162.118356 154.702092 
L 162.785455 253.140251 
L 163.119004 187.388285 
L 163.452553 171.825439 
L 164.119651 168.746611 
L 164.4532 172.078494 
L 165.120299 241.373222 
L 165.453848 186.924351 
L 165.787397 175.368201 
L 166.120946 175.030795 
L 166.454496 181.019749 
L 166.788045 180.766695 
L 167.121594 216.700418 
L 167.455143 266.59431 
L 167.788692 184.309456 
L 168.122242 174.229456 
L 168.455791 179.248368 
L 168.78934 167.987448 
L 169.122889 174.18728 
L 169.789988 282.410209 
L 170.123537 291.9841 
L 170.457086 199.239665 
L 170.790635 177.181757 
L 171.124184 183.128536 
L 171.457733 193.714644 
L 171.791283 242.090209 
L 172.124832 271.739749 
L 172.458381 212.398494 
L 172.79193 205.650377 
L 173.125479 205.144268 
L 173.459029 205.059916 
L 173.792578 206.873473 
L 174.126127 248.753975 
L 174.459676 275.155983 
L 174.793225 212.693724 
L 175.126775 203.330711 
L 175.460324 205.102092 
L 175.793873 205.312971 
L 176.127422 209.404017 
L 176.794521 275.409038 
L 177.12807 216.616067 
L 177.461619 198.058745 
L 177.795168 197.80569 
L 178.128717 210.880167 
L 178.462267 288.736569 
L 178.795816 277.686527 
L 179.129365 283.127197 
L 179.462914 214.633808 
L 179.796463 198.100921 
L 180.130012 195.275146 
L 180.797111 205.987782 
L 181.464209 282.368033 
L 181.797758 224.966862 
L 182.131308 205.776904 
L 182.464857 197.341757 
L 182.798406 198.353975 
L 183.131955 207.759163 
L 183.799054 283.970711 
L 184.132603 222.267615 
L 184.466152 203.204184 
L 184.799701 201.728033 
L 185.13325 198.691381 
L 185.4668 202.234142 
L 186.133898 304.889874 
L 186.467447 307.8 
L 186.800996 222.436318 
L 187.134545 204.42728 
L 187.468095 206.451715 
L 187.801644 210.584937 
L 188.468742 287.133891 
L 188.802291 216.700418 
L 189.135841 195.654728 
L 189.46939 183.67682 
L 189.802939 177.64569 
L 190.136488 195.022092 
L 190.470037 238.631799 
L 190.803587 266.341255 
L 191.137136 191.1841 
L 191.470685 184.56251 
L 191.804234 184.942092 
L 192.137783 172.289372 
L 192.471333 170.517992 
L 193.138431 251.284519 
L 193.47198 191.858912 
L 194.139078 201.896736 
L 194.472628 201.095397 
L 194.806177 202.95113 
L 195.139726 252.549791 
L 195.473275 285.573389 
L 195.806824 219.230962 
L 196.140374 200.715816 
L 196.473923 204.553808 
L 196.807472 204.216402 
L 197.141021 208.518326 
L 197.80812 283.253724 
L 198.141669 212.482845 
L 198.475218 195.570377 
L 198.808767 188.737908 
L 199.142316 176.591297 
L 199.475866 180.260586 
L 199.809415 223.195481 
L 200.142964 251.6641 
L 200.476513 164.40251 
L 200.810062 137.072636 
L 201.143611 148.080502 
L 201.477161 189.581423 
L 201.81071 201.221925 
L 202.144259 246.645188 
L 202.477808 271.022762 
L 202.811357 205.608201 
L 204.145554 151.623264 
L 204.479103 202.740251 
L 204.812653 234.287699 
L 205.146202 167.017406 
L 205.8133 139.940586 
L 206.146849 141.585439 
L 206.480399 145.549958 
L 207.147497 282.241506 
L 207.481046 232.558494 
L 208.148144 223.99682 
L 208.481694 228.804854 
L 208.815243 236.776067 
L 209.482341 298.774393 
L 209.81589 224.165523 
L 210.14944 198.691381 
L 210.816538 180.555816 
L 211.150087 173.89205 
L 211.483636 202.445021 
L 211.817186 248.290042 
L 212.150735 188.780084 
L 212.484284 173.259414 
L 213.151382 158.87749 
L 213.484932 161.028452 
L 214.15203 262.756318 
L 214.485579 210.669289 
L 215.152677 229.395314 
L 215.486227 306.787782 
L 215.819776 294.092887 
L 216.153325 292.701088 
L 216.486874 300.081841 
L 216.820423 223.743766 
L 217.153973 203.710293 
L 218.15462 172.837657 
L 218.821719 235.468619 
L 219.155268 161.618912 
L 219.488817 150.821925 
L 220.155915 172.71113 
L 220.489465 183.508117 
L 221.156563 274.649874 
L 221.490112 217.290879 
L 221.823661 201.854561 
L 222.15721 199.450544 
L 222.49076 188.020921 
L 222.824309 185.743431 
L 223.157858 238.884854 
L 223.491407 269.75749 
L 223.824956 204.595983 
L 224.158506 182.200669 
L 224.492055 176.085188 
L 224.825604 160.227113 
L 225.159153 168.746611 
L 225.826252 261.406695 
L 226.159801 207.506109 
L 226.49335 194.726862 
L 226.826899 187.177406 
L 227.160448 182.411548 
L 227.493998 174.777741 
L 228.161096 261.111464 
L 228.494645 199.408368 
L 228.828194 184.056402 
L 229.161743 181.947615 
L 229.495293 181.1041 
L 229.828842 186.038661 
L 230.49594 257.189121 
L 230.829489 192.365021 
L 231.163039 177.266109 
L 231.496588 177.181757 
L 231.830137 166.595649 
L 232.163686 172.162845 
L 232.497235 214.296402 
L 232.830785 238.800502 
L 233.164334 176.16954 
L 233.497883 162.92636 
L 233.831432 155.840837 
L 234.164981 153.73205 
L 234.498531 157.359163 
L 235.165629 239.81272 
L 235.499178 167.650042 
L 235.832727 159.257071 
L 236.499826 168.873138 
L 236.833375 248.416569 
L 237.166924 243.144603 
L 237.500473 230.61841 
L 237.834022 177.730042 
L 238.167572 161.745439 
L 238.501121 152.002845 
L 238.83467 152.213724 
L 239.168219 161.239331 
L 239.835318 258.201339 
L 240.168867 176.085188 
L 240.502416 150.611046 
L 240.835965 150.442343 
L 241.169514 142.428954 
L 241.503064 143.398996 
L 242.170162 232.811548 
L 242.503711 164.782092 
L 242.83726 160.35364 
L 243.170809 165.077322 
L 243.504359 167.228285 
L 243.837908 167.017406 
L 244.171457 211.428452 
L 244.505006 233.992469 
L 244.838555 177.940921 
L 245.172105 167.481339 
L 245.839203 164.444686 
L 246.172752 164.065105 
L 246.839851 229.648368 
L 247.1734 167.56569 
L 247.506949 147.490042 
L 247.840498 138.844017 
L 248.174047 133.951632 
L 248.507597 135.174728 
L 249.174695 214.465105 
L 249.508244 155.672134 
L 249.841793 144.832971 
L 250.175342 141.754142 
L 250.508892 135.427782 
L 250.842441 139.350126 
L 251.509539 211.091046 
L 251.843088 149.514477 
L 252.176638 139.181423 
L 252.510187 134.668619 
L 252.843736 136.313473 
L 253.177285 141.290209 
L 253.510834 167.818745 
L 253.844384 203.668117 
L 254.177933 149.430126 
L 254.511482 139.771883 
L 255.17858 140.024937 
L 255.51213 159.594477 
L 255.845679 206.620418 
L 256.179228 222.731548 
L 256.512777 185.026444 
L 256.846326 190.762343 
L 257.179875 207.88569 
L 257.846974 282.705439 
L 258.180523 283.802008 
L 258.514072 267.522176 
L 258.847621 233.528536 
L 259.181171 232.431967 
L 259.51472 229.353138 
L 259.848269 236.986946 
L 260.181818 262.967197 
L 260.515367 229.606192 
L 260.848917 225.262092 
L 261.182466 143.06159 
L 261.516015 126.233473 
L 261.849564 121.973724 
L 262.183113 131.041506 
L 262.516663 129.017071 
L 263.183761 207.210879 
L 263.51731 150.56887 
L 263.850859 153.14159 
L 264.851507 136.018243 
L 265.185056 182.411548 
L 265.518605 208.602678 
L 265.852154 140.446695 
L 266.185704 120.834979 
L 266.519253 120.117992 
L 266.852802 117.756151 
L 267.186351 118.641841 
L 267.85345 189.834477 
L 268.186999 125.727364 
L 268.520548 125.305607 
L 268.854097 125.980418 
L 269.187646 135.638661 
L 269.521196 140.994979 
L 270.188294 218.513975 
L 270.521843 151.918494 
L 270.855392 149.38795 
L 271.188941 142.597657 
L 271.522491 145.92954 
L 271.85604 146.013891 
L 272.189589 194.178577 
L 272.523138 225.051213 
L 272.856687 158.582259 
L 273.190237 155.419079 
L 273.523786 137.705272 
L 273.857335 146.393473 
L 274.190884 150.695397 
L 274.857983 227.45523 
L 275.191532 157.612218 
L 275.525081 148.333556 
L 275.85863 147.279163 
L 276.192179 149.851883 
L 276.525729 147.236987 
L 276.859278 199.956653 
L 277.192827 229.901423 
L 277.526376 180.091883 
L 277.859925 157.907448 
L 278.193474 157.696569 
L 278.527024 148.544435 
L 278.860573 161.914142 
L 279.527671 237.53523 
L 279.86122 168.198326 
L 280.19477 154.364686 
L 280.528319 159.088368 
L 280.861868 156.642176 
L 281.195417 160.691046 
L 281.528966 186.080837 
L 281.862516 229.985774 
L 282.196065 162.63113 
L 282.529614 155.967364 
L 282.863163 164.10728 
L 283.196712 160.227113 
L 283.530262 168.071799 
L 284.19736 250.441004 
L 284.530909 248.247866 
L 284.864458 252.170209 
L 285.198007 178.278326 
L 285.531557 163.854226 
L 285.865106 167.903096 
L 286.532204 237.408703 
L 286.865753 177.940921 
L 287.532852 158.076151 
L 288.19995 171.783264 
L 288.533499 212.7359 
L 288.867049 292.996318 
L 289.200598 290.676653 
L 289.534147 194.895565 
L 289.867696 177.392636 
L 290.534795 191.732385 
L 291.201893 267.311297 
L 291.535442 209.57272 
L 291.868991 204.13205 
L 292.20254 200.800167 
L 292.53609 199.239665 
L 292.869639 193.250711 
L 293.203188 236.776067 
L 293.536737 265.20251 
L 293.870286 208.771381 
L 294.203836 201.517155 
L 294.537385 200.96887 
L 294.870934 197.046527 
L 295.204483 204.174226 
L 295.871582 280.090544 
L 296.205131 217.543933 
L 296.53868 204.385105 
L 296.872229 199.155314 
L 297.205778 196.203013 
L 297.539328 202.571548 
L 297.872877 243.018075 
L 298.206426 260.900586 
L 298.539975 195.359498 
L 298.873524 191.437155 
L 299.207073 172.205021 
L 299.874172 188.653556 
L 300.54127 288.820921 
L 300.874819 209.783598 
L 301.208369 193.124184 
L 301.541918 190.509289 
L 301.875467 192.196318 
L 302.209016 200.504937 
L 302.876115 271.360167 
L 303.209664 216.025607 
L 303.543213 193.16636 
L 303.876762 198.438326 
L 304.210311 190.045356 
L 304.543861 205.144268 
L 305.210959 291.224937 
L 305.544508 302.106276 
L 305.878057 217.712636 
L 306.211606 197.636987 
L 306.545156 197.130879 
L 306.878705 202.276318 
L 307.212254 246.603013 
L 307.545803 274.860753 
L 307.879352 213.537238 
L 308.212902 203.288536 
L 308.546451 205.861255 
L 308.88 203.583766 
L 309.213549 200.251883 
L 309.547098 239.475314 
L 309.880648 264.90728 
L 310.214197 212.145439 
L 310.547746 203.499414 
L 310.881295 209.446192 
L 311.214844 204.72251 
L 311.548394 210.078828 
L 312.215492 271.275816 
L 312.549041 214.422929 
L 312.88259 211.3441 
L 313.216139 209.57272 
L 313.549689 198.902259 
L 313.883238 204.511632 
L 314.216787 245.169038 
L 314.550336 272.161506 
L 314.883885 214.043347 
L 315.217435 201.137573 
L 316.218082 184.56251 
L 316.551631 237.071297 
L 316.885181 261.406695 
L 317.21873 197.974393 
L 318.219377 153.310293 
L 318.552927 140.067113 
L 319.220025 225.683849 
L 319.553574 188.105272 
L 319.887123 184.309456 
L 320.220672 176.16954 
L 320.554222 164.10728 
L 320.887771 162.125021 
L 321.554869 256.51431 
L 321.888418 201.981088 
L 322.221968 180.977573 
L 322.555517 178.531381 
L 322.889066 187.472636 
L 323.222615 185.279498 
L 323.556164 227.075649 
L 323.889714 249.049205 
L 324.223263 172.078494 
L 324.556812 149.219247 
L 324.890361 151.749791 
L 325.22391 188.273975 
L 325.55746 208.138745 
L 326.224558 278.783096 
L 326.558107 221.213222 
L 326.891656 209.446192 
L 327.558755 196.203013 
L 327.892304 193.967699 
L 328.225853 233.317657 
L 328.559402 258.538745 
L 328.892951 206.915649 
L 329.226501 198.817908 
L 329.56005 195.528201 
L 330.227148 207.506109 
L 330.560697 243.482008 
L 330.894247 265.075983 
L 331.227796 224.755983 
L 331.561345 216.78477 
L 331.894894 216.742594 
L 332.228443 201.685858 
L 332.561993 196.62477 
L 332.895542 259.635314 
L 333.229091 284.097238 
L 333.56264 231.251046 
L 333.896189 210.795816 
L 334.229738 212.103264 
L 334.563288 225.262092 
L 334.896837 232.052385 
L 335.230386 264.61205 
L 335.563935 278.361339 
L 335.897484 216.953473 
L 336.231034 212.609372 
L 336.564583 212.778075 
L 336.898132 216.236485 
L 337.231681 213.62159 
L 337.56523 286.965188 
L 337.89878 279.879665 
L 338.232329 216.616067 
L 338.899427 198.185272 
L 339.232976 193.75682 
L 339.566526 194.979916 
L 339.900075 237.956987 
L 340.233624 262.671967 
L 340.567173 193.925523 
L 340.900722 188.273975 
L 341.234271 190.29841 
L 341.567821 195.739079 
L 341.90137 193.883347 
L 342.234919 236.269958 
L 342.568468 263.262427 
L 342.902017 206.283013 
L 343.235567 201.559331 
L 343.569116 191.352803 
L 343.902665 186.502594 
L 344.236214 186.038661 
L 344.569763 233.612887 
L 344.903313 255.839498 
L 345.236862 193.039833 
L 345.570411 181.947615 
L 345.90396 181.736736 
L 346.237509 179.838828 
L 346.571059 178.953138 
L 347.238157 264.90728 
L 347.571706 208.940084 
L 347.905255 203.963347 
L 348.238804 202.023264 
L 348.572354 198.775732 
L 348.905903 200.589289 
L 349.573001 270.137071 
L 349.90655 211.512803 
L 350.2401 193.75682 
L 350.573649 188.906611 
L 351.240747 193.798996 
L 351.574296 238.589623 
L 351.907846 262.334561 
L 352.241395 199.830126 
L 352.574944 180.091883 
L 352.908493 181.694561 
L 353.242042 163.052887 
L 353.575592 171.572385 
L 353.909141 220.24318 
L 354.24269 242.385439 
L 354.576239 182.580251 
L 354.909788 156.00954 
L 355.243337 157.570042 
L 355.910436 164.529038 
L 356.243985 193.925523 
L 356.577534 234.66728 
L 356.911083 171.994142 
L 357.578182 157.401339 
L 357.911731 153.015063 
L 358.24528 154.449038 
L 358.912379 256.176904 
L 359.245928 178.742259 
L 359.579477 164.444686 
L 359.913026 160.227113 
L 360.246575 157.823096 
L 360.580125 163.179414 
L 360.913674 205.945607 
L 361.914321 271.486695 
L 362.24787 184.014226 
L 362.58142 161.154979 
L 362.914969 156.00954 
L 363.582067 227.328703 
L 363.915616 168.029623 
L 364.249166 149.219247 
L 364.582715 149.809707 
L 364.916264 142.935063 
L 365.249813 147.490042 
L 365.916912 211.765858 
L 366.250461 149.008368 
L 366.58401 133.698577 
L 366.917559 126.402176 
L 367.251108 128.089205 
L 367.584658 141.669791 
L 367.918207 192.913305 
L 368.251756 226.316485 
L 368.585305 166.764351 
L 368.918854 155.587782 
L 369.585953 143.06159 
L 369.919502 143.398996 
L 370.253051 192.491548 
L 370.5866 216.573891 
L 370.920149 151.328033 
L 371.253699 129.81841 
L 371.920797 119.73841 
L 372.254346 133.108117 
L 372.587895 175.283849 
L 372.921445 195.443849 
L 373.254994 128.510962 
L 373.588543 107.296569 
L 373.922092 111.218912 
L 374.255641 97.764854 
L 374.589191 111.893724 
L 374.92274 169.632301 
L 375.256289 200.884519 
L 375.589838 140.362343 
L 376.256936 113.538577 
L 376.590486 114.171213 
L 376.924035 128.173556 
L 377.591133 178.193975 
L 377.924682 129.649707 
L 378.258232 130.957155 
L 378.591781 130.788452 
L 378.92533 145.92954 
L 379.258879 167.903096 
L 379.925978 256.134728 
L 380.259527 266.678661 
L 380.593076 231.546276 
L 380.926625 218.345272 
L 381.260174 214.971213 
L 381.593724 215.392971 
L 382.260822 243.482008 
L 382.594371 153.942929 
L 383.261469 124.040335 
L 383.595019 122.732887 
L 383.928568 109.36318 
L 384.262117 148.333556 
L 384.595666 164.782092 
L 384.929215 105.989121 
L 385.262765 89.034477 
L 385.596314 86.546109 
L 385.929863 89.287531 
L 386.263412 93.631632 
L 386.596961 154.828619 
L 386.930511 180.091883 
L 387.26406 110.586276 
L 387.597609 101.307615 
L 387.931158 101.560669 
L 388.264707 96.879163 
L 388.598257 94.812552 
L 388.931806 136.018243 
L 389.265355 163.095063 
L 389.598904 97.764854 
L 389.932453 84.859079 
L 390.266002 85.491715 
L 390.599552 95.149958 
L 390.933101 82.159833 
L 391.26665 128.63749 
L 391.600199 159.088368 
L 391.933748 95.192134 
L 392.267298 85.576067 
L 392.934396 109.110126 
L 393.267945 130.40887 
L 393.935044 207.716987 
L 394.268593 142.892887 
L 394.602142 127.583096 
L 395.26924 114.213389 
L 395.60279 122.184603 
L 395.936339 168.451381 
L 396.269888 195.949958 
L 396.603437 132.433305 
L 396.936986 115.647364 
L 397.604085 105.989121 
L 397.937634 109.995816 
L 398.271183 164.613389 
L 398.604732 198.058745 
L 398.938281 135.765188 
L 399.271831 129.354477 
L 399.60538 138.211381 
L 399.938929 143.65205 
L 400.272478 146.435649 
L 400.606027 193.503766 
L 400.939577 216.911297 
L 401.273126 161.829791 
L 401.606675 160.775397 
L 401.940224 147.068285 
L 402.273773 148.79749 
L 402.607323 159.678828 
L 402.940872 205.017741 
L 403.274421 226.27431 
L 403.60797 168.113975 
L 403.941519 156.00954 
L 404.275068 154.702092 
L 404.608618 145.92954 
L 404.942167 145.170377 
L 405.275716 196.32954 
L 405.609265 223.195481 
L 405.942814 174.777741 
L 406.276364 164.908619 
L 406.609913 238.842678 
L 406.943462 183.634644 
L 407.277011 171.951967 
L 407.61056 197.21523 
L 407.94411 231.082343 
L 408.277659 177.519163 
L 408.611208 168.620084 
L 408.944757 175.579079 
L 409.278306 175.241674 
L 409.611856 179.03749 
L 410.278954 261.280167 
L 410.612503 184.984268 
L 410.946052 178.025272 
L 411.279601 174.693389 
L 411.613151 177.730042 
L 411.9467 186.460418 
L 412.280249 234.287699 
L 412.613798 261.701925 
L 412.947347 206.789121 
L 413.280897 193.377238 
L 413.614446 189.918828 
L 413.947995 179.121841 
L 414.281544 174.777741 
L 414.615093 225.894728 
L 414.948643 257.779582 
L 415.282192 201.390628 
L 415.615741 188.864435 
L 415.94929 183.97205 
L 416.282839 182.622427 
L 416.616389 262.208033 
L 416.949938 265.371213 
L 417.283487 296.075146 
L 417.617036 306.998661 
L 417.950585 194.979916 
L 418.284134 149.936234 
L 418.617684 146.857406 
L 418.951233 168.662259 
L 419.618331 243.102427 
L 419.95188 194.094226 
L 420.28543 184.731213 
L 420.618979 183.002008 
L 420.952528 178.193975 
L 421.286077 178.995314 
L 421.953176 259.340084 
L 422.286725 287.597824 
L 422.620274 211.934561 
L 422.953823 185.068619 
L 423.287372 192.238494 
L 423.620922 191.310628 
L 423.954471 238.378745 
L 424.28802 260.521004 
L 424.621569 206.831297 
L 424.955118 189.876653 
L 425.288667 191.015397 
L 425.622217 190.677992 
L 425.955766 194.009874 
L 426.622864 264.949456 
L 426.956413 211.386276 
L 427.289963 195.359498 
L 427.623512 195.612552 
L 427.957061 192.027615 
L 428.29061 197.21523 
L 428.957709 267.48 
L 429.291258 208.349623 
L 429.624807 188.948787 
L 429.958356 189.70795 
L 430.291905 196.835649 
L 430.625455 197.299582 
L 430.959004 241.541925 
L 431.292553 268.281339 
L 431.626102 205.566025 
L 431.959651 182.622427 
L 432.2932 171.403682 
L 432.62675 170.054059 
L 432.960299 179.501423 
L 433.627397 278.276987 
L 433.960946 285.699916 
L 434.294496 191.479331 
L 434.628045 186.966527 
L 434.961594 190.171883 
L 435.295143 188.316151 
L 435.628692 233.612887 
L 435.962242 259.213556 
L 436.295791 188.611381 
L 436.62934 170.981925 
L 436.962889 177.308285 
L 437.296438 175.494728 
L 437.629988 180.977573 
L 437.963537 245.04251 
L 438.297086 265.750795 
L 438.630635 196.751297 
L 438.964184 171.867615 
L 439.297733 155.292552 
L 439.631283 146.899582 
L 439.964832 153.478996 
L 440.63193 239.770544 
L 440.965479 181.230628 
L 441.632578 140.067113 
L 441.966127 158.455732 
L 442.299676 166.637824 
L 442.633225 228.425272 
L 442.966775 258.707448 
L 443.300324 196.793473 
L 443.633873 183.339414 
L 443.967422 165.035146 
L 444.300971 156.389121 
L 444.634521 165.667782 
L 444.96807 210.289707 
L 445.301619 234.456402 
L 445.635168 156.515649 
L 445.968717 153.774226 
L 446.302267 158.497908 
L 446.969365 196.498243 
L 447.302914 249.59749 
L 447.636463 283.464603 
L 447.970012 214.971213 
L 448.303562 190.340586 
L 448.97066 164.739916 
L 449.304209 165.499079 
L 449.637758 220.285356 
L 449.971308 244.409874 
L 450.304857 196.287364 
L 450.638406 218.218745 
L 450.971955 219.230962 
L 451.305504 221.213222 
L 451.639054 217.67046 
L 451.972603 258.791799 
L 452.306152 272.330209 
L 452.639701 197.890042 
L 452.97325 170.054059 
L 453.973898 142.639833 
L 454.640996 233.317657 
L 455.308095 205.650377 
L 455.975193 145.043849 
L 456.308742 152.087197 
L 456.642291 229.943598 
L 456.975841 269.082678 
L 457.30939 211.04887 
L 457.642939 190.467113 
L 457.976488 180.80887 
L 458.310037 167.860921 
L 458.643587 164.824268 
L 459.310685 282.410209 
L 459.644234 219.146611 
L 459.977783 196.92 
L 460.644882 186.924351 
L 460.978431 173.343766 
L 461.31198 206.493891 
L 461.645529 228.003515 
L 461.979078 178.910962 
L 462.312628 174.145105 
L 462.646177 172.879833 
L 462.979726 163.769874 
L 463.313275 169.379247 
L 463.646824 228.551799 
L 463.980374 257.653054 
L 464.313923 203.83682 
L 464.647472 189.792301 
L 465.31457 175.157322 
L 465.64812 186.755649 
L 465.981669 228.509623 
L 466.315218 248.374393 
L 466.648767 179.838828 
L 466.982316 174.229456 
L 467.315866 179.585774 
L 467.649415 172.922008 
L 467.982964 183.044184 
L 468.316513 225.430795 
L 468.650062 245.548619 
L 469.317161 167.27046 
L 469.65071 163.263766 
L 469.984259 152.84636 
L 470.317808 170.560167 
L 470.984907 241.710628 
L 471.318456 184.478159 
L 471.652005 172.668954 
L 471.985554 168.324854 
L 472.319103 167.059582 
L 472.652653 171.234979 
L 473.319751 242.765021 
L 473.6533 183.718996 
L 473.986849 161.365858 
L 474.320399 166.131715 
L 474.653948 159.130544 
L 474.987497 163.348117 
L 475.321046 212.440669 
L 475.654595 233.528536 
L 475.988144 176.296067 
L 476.321694 160.437992 
L 476.655243 161.998494 
L 476.988792 160.9441 
L 477.322341 168.451381 
L 477.98944 238.842678 
L 478.322989 177.64569 
L 478.656538 167.396987 
L 478.990087 165.203849 
L 479.323636 164.191632 
L 479.657186 163.896402 
L 480.324284 238.167866 
L 480.657833 249.302259 
L 480.991382 181.019749 
L 481.324932 160.606695 
L 481.99203 147.785272 
L 482.325579 197.721339 
L 482.659128 212.525021 
L 482.992677 169.84318 
L 483.326227 154.280335 
L 483.659776 245.253389 
L 483.993325 176.46477 
L 484.326874 166.131715 
L 484.993973 225.979079 
L 485.327522 164.655565 
L 485.99462 138.801841 
L 486.328169 139.60318 
L 486.661719 146.646527 
L 487.328817 204.42728 
L 487.662366 149.472301 
L 487.995915 136.608703 
L 488.329465 136.903933 
L 488.663014 131.758494 
L 488.996563 132.180251 
L 489.330112 179.585774 
L 489.663661 206.873473 
L 489.99721 148.881841 
L 490.33076 125.389958 
L 490.664309 131.631967 
L 490.997858 126.613054 
L 491.331407 132.517657 
L 491.664956 174.102929 
L 491.998506 196.877824 
L 492.332055 139.982762 
L 492.999153 107.423096 
L 493.332702 101.602845 
L 493.666252 117.292218 
L 494.33335 185.152971 
L 494.666899 110.881506 
L 495.000448 107.760502 
L 495.333998 110.712803 
L 495.667547 107.549623 
L 496.001096 108.604017 
L 496.334645 153.394644 
L 496.668194 180.260586 
L 497.001743 116.237824 
L 497.335293 116.828285 
L 498.002391 110.965858 
L 498.33594 129.987113 
L 498.669489 168.071799 
L 499.003039 184.646862 
L 499.336588 128.342259 
L 499.670137 147.953975 
L 500.003686 122.100251 
L 500.337235 131.041506 
L 501.004334 197.552636 
L 501.337883 248.332218 
L 501.671432 272.288033 
L 502.004981 266.678661 
L 502.338531 233.064603 
L 502.67208 219.526192 
L 503.005629 219.441841 
L 503.339178 224.798159 
L 503.672727 241.457573 
L 504.006276 274.312469 
L 504.339826 188.611381 
L 504.673375 153.015063 
L 505.006924 145.086025 
L 505.340473 142.682008 
L 505.674022 186.54477 
L 506.007572 212.482845 
L 506.341121 149.894059 
L 506.67467 135.638661 
L 507.341768 121.889372 
L 507.675318 126.95046 
L 508.008867 164.40251 
L 508.342416 187.810042 
L 508.675965 115.900418 
L 509.009514 96.162176 
L 509.343064 101.054561 
L 509.676613 113.496402 
L 510.010162 116.069121 
L 510.343711 164.444686 
L 510.67726 183.508117 
L 511.010809 123.49205 
L 511.344359 110.839331 
L 511.677908 110.923682 
L 512.011457 116.701757 
L 512.345006 112.779414 
L 512.678555 165.920837 
L 513.012105 193.46159 
L 513.345654 142.682008 
L 514.012752 123.913808 
L 514.346301 122.90159 
L 514.679851 124.209038 
L 515.346949 194.136402 
L 515.680498 126.697406 
L 516.014047 101.729372 
L 516.347597 96.794812 
L 516.681146 98.017908 
L 517.014695 113.11682 
L 517.681793 192.702427 
L 518.015342 125.980418 
L 518.348892 102.066778 
L 518.682441 100.16887 
L 519.01599 108.350962 
L 519.349539 110.037992 
L 519.683088 158.835314 
L 520.016638 187.346109 
L 520.350187 132.138075 
L 520.683736 100.000167 
L 521.017285 105.60954 
L 521.350834 103.205523 
L 521.684384 107.212218 
L 522.017933 155.376904 
L 522.351482 175.410377 
L 522.685031 105.145607 
L 523.01858 83.382929 
L 523.35213 82.370711 
L 523.685679 82.075481 
L 524.019228 79.081004 
L 524.352777 138.295732 
L 524.686326 173.554644 
L 525.019875 119.358828 
L 525.353425 106.832636 
L 525.686974 121.805021 
L 526.020523 116.954812 
L 526.354072 127.878326 
L 526.687621 157.780921 
L 527.021171 206.957824 
L 527.35472 162.125021 
L 527.688269 162.504603 
L 528.021818 155.756485 
L 528.355367 228.214393 
L 528.688917 210.500586 
L 529.022466 201.812385 
L 529.356015 203.119833 
L 529.689564 123.829456 
L 530.023113 110.501925 
L 530.356663 113.70728 
L 530.690212 118.894895 
L 531.023761 121.425439 
L 531.35731 158.750962 
L 531.690859 209.024435 
L 532.024408 136.608703 
L 532.357958 130.451046 
L 532.691507 133.698577 
L 533.025056 131.969372 
L 533.358605 222.098912 
L 533.692154 226.485188 
L 534.025704 260.689707 
L 534.359253 277.433473 
L 534.692802 184.857741 
L 535.026351 162.251548 
L 535.3599 166.68 
L 535.69345 164.10728 
L 536.360548 246.181255 
L 536.694097 196.62477 
L 537.027646 181.314979 
L 537.694745 185.574728 
L 538.028294 184.520335 
L 538.361843 229.43749 
L 538.695392 254.700753 
L 539.028941 189.581423 
L 539.362491 183.38159 
L 539.69604 186.924351 
L 540.029589 181.188452 
L 540.363138 186.586946 
L 540.696687 214.422929 
L 541.030237 254.278996 
L 541.363786 195.486025 
L 541.697335 185.912134 
L 542.030884 182.242845 
L 542.364433 181.610209 
L 542.697983 193.714644 
L 543.031532 238.12569 
L 543.365081 263.473305 
L 543.69863 265.160335 
L 544.032179 298.985272 
L 544.365729 208.349623 
L 544.699278 187.683515 
L 545.032827 183.339414 
L 545.699925 263.810711 
L 546.033474 204.342929 
L 546.367024 187.894393 
L 546.700573 180.429289 
L 547.034122 176.802176 
L 547.367671 179.417071 
L 547.70122 230.407531 
L 548.03477 264.063766 
L 548.368319 208.897908 
L 548.701868 189.11749 
L 549.035417 188.316151 
L 549.368966 187.978745 
L 549.702516 192.744603 
L 550.369614 298.900921 
L 550.703163 302.359331 
L 551.036712 210.374059 
L 551.370262 183.465941 
L 551.703811 174.018577 
L 552.03736 179.92318 
L 552.370909 226.696067 
L 552.704458 251.495397 
L 553.038007 184.26728 
L 553.371557 169.801004 
L 553.705106 165.709958 
L 554.038655 154.617741 
L 554.372204 159.46795 
L 554.705753 213.199833 
L 555.039303 242.596318 
L 555.372852 179.206192 
L 555.706401 163.474644 
L 556.03995 166.173891 
L 556.373499 176.506946 
L 556.707049 171.909791 
L 557.040598 224.966862 
L 557.374147 251.6641 
L 557.707696 168.409205 
L 558.041245 142.892887 
L 558.374795 164.739916 
L 558.708344 172.162845 
L 559.041893 183.929874 
L 559.375442 227.497406 
L 559.708991 250.18795 
L 560.04254 186.165188 
L 560.37609 161.871967 
L 561.043188 133.318996 
L 561.376737 175.283849 
L 561.710286 242.765021 
L 562.043836 265.877322 
L 562.377385 199.534895 
L 562.710934 185.152971 
L 563.044483 177.266109 
L 563.378032 174.609038 
L 563.711582 170.13841 
L 564.045131 232.516318 
L 564.37868 264.822929 
L 564.712229 201.685858 
L 565.045778 179.164017 
L 565.712877 157.274812 
L 566.046426 161.281506 
L 566.379975 221.803682 
L 566.713524 251.242343 
L 567.047073 183.887699 
L 567.380623 168.577908 
L 567.714172 169.590126 
L 568.38127 183.67682 
L 568.714819 232.642845 
L 569.048369 259.846192 
L 569.381918 192.280669 
L 569.715467 183.423766 
L 570.049016 201.2641 
L 570.382565 183.044184 
L 570.716115 183.255063 
L 571.383213 264.401172 
L 571.716762 209.108787 
L 572.050311 197.257406 
L 572.71741 182.4959 
L 573.050959 184.520335 
L 573.384508 232.853724 
L 573.718057 245.337741 
L 574.051606 177.013054 
L 574.385156 165.625607 
L 574.718705 159.425774 
L 575.052254 163.81205 
L 575.385803 166.68 
L 575.719352 221.677155 
L 576.052902 243.650711 
L 576.386451 175.157322 
L 577.053549 147.279163 
L 577.387098 135.427782 
L 577.720648 143.694226 
L 578.054197 218.218745 
L 578.387746 246.392134 
L 578.721295 174.102929 
L 579.054844 161.871967 
L 579.388394 172.753305 
L 579.721943 171.192803 
L 580.055492 170.939749 
L 580.389041 215.013389 
L 581.056139 261.870628 
L 581.389689 173.765523 
L 581.723238 148.924017 
L 582.056787 146.857406 
L 582.390336 156.136067 
L 583.057435 261.237992 
L 583.390984 207.042176 
L 583.724533 189.623598 
L 584.058082 182.748954 
L 584.391631 180.007531 
L 584.725181 181.821088 
L 585.05873 222.309791 
L 585.392279 247.91046 
L 585.725828 183.845523 
L 586.059377 167.101757 
L 586.392927 173.385941 
L 586.726476 172.331548 
L 587.060025 180.007531 
L 587.727123 254.194644 
L 588.060672 196.793473 
L 588.394222 174.102929 
L 588.727771 172.879833 
L 589.394869 169.885356 
L 589.728418 221.677155 
L 590.061968 252.802845 
L 590.395517 187.346109 
L 590.729066 175.536904 
L 591.062615 173.090711 
L 591.396164 168.830962 
L 591.729714 172.879833 
L 592.396812 247.193473 
L 592.730361 194.726862 
L 593.06391 183.170711 
L 593.39746 175.789958 
L 593.731009 171.361506 
L 594.064558 181.188452 
L 594.731656 250.567531 
L 595.065205 182.411548 
L 595.398755 161.154979 
L 595.732304 164.360335 
L 596.065853 169.210544 
L 596.399402 171.319331 
L 596.732951 220.749289 
L 597.066501 248.079163 
L 597.40005 184.225105 
L 597.733599 174.440335 
L 598.067148 171.403682 
L 598.400697 171.150628 
L 598.734247 175.283849 
L 599.067796 201.348452 
L 599.401345 245.970377 
L 599.734894 186.882176 
L 600.068443 166.806527 
L 600.401993 167.101757 
L 600.735542 161.197155 
L 601.069091 161.618912 
L 601.40264 213.748117 
L 601.736189 240.529707 
L 602.069738 249.175732 
L 602.403288 263.473305 
L 602.736837 176.211715 
L 603.070386 148.628787 
L 603.403935 155.883013 
L 603.737484 196.62477 
L 604.071034 214.633808 
L 604.404583 176.16954 
L 604.738132 165.246025 
L 605.071681 176.928703 
L 605.40523 263.72636 
L 605.73878 239.981423 
L 606.072329 238.505272 
L 606.405878 246.645188 
L 606.739427 177.898745 
L 607.072976 161.534561 
L 607.406526 158.540084 
L 608.073624 149.177071 
L 608.407173 170.602343 
L 608.740722 221.171046 
L 609.074271 162.63113 
L 609.74137 149.430126 
L 610.074919 139.265774 
L 610.408468 143.905105 
L 611.075567 211.3441 
L 611.409116 131.083682 
L 611.742665 112.188954 
L 612.076214 113.41205 
L 612.409763 110.797155 
L 612.743313 122.395481 
L 613.076862 166.68 
L 613.410411 194.979916 
L 613.74396 126.528703 
L 614.077509 107.170042 
L 614.411059 111.725021 
L 614.744608 95.023431 
L 615.078157 96.330879 
L 615.411706 117.798326 
L 615.745255 165.878661 
L 616.078804 109.152301 
L 616.412354 107.971381 
L 616.745903 106.284351 
L 617.079452 94.559498 
L 617.413001 97.427448 
L 617.74655 147.785272 
L 618.0801 176.16954 
L 618.413649 119.401004 
L 618.747198 99.241004 
L 619.080747 98.102259 
L 619.414296 89.456234 
L 619.747846 85.576067 
L 620.414944 158.87749 
L 620.748493 96.836987 
L 621.082042 87.642678 
L 621.415592 83.678159 
L 621.749141 88.233138 
L 622.749788 211.681506 
L 623.416887 258.412218 
L 623.750436 260.816234 
L 624.083985 220.53841 
L 624.417534 214.085523 
L 624.751083 226.358661 
L 625.084633 227.497406 
L 625.418182 236.35431 
L 625.751731 259.213556 
L 626.08528 173.934226 
L 626.418829 129.101423 
L 626.752379 116.28 
L 627.419477 173.681172 
L 627.753026 104.091213 
L 628.086575 76.887866 
L 628.420125 85.280837 
L 628.753674 86.208703 
L 629.087223 87.937908 
L 629.754321 171.0241 
L 630.08787 114.044686 
L 630.42142 94.601674 
L 631.088518 107.718326 
L 631.422067 101.8559 
L 631.755616 146.013891 
L 632.089166 164.992971 
L 632.422715 102.572887 
L 632.756264 75.706946 
L 633.089813 71.953305 
L 633.423362 75.96 
L 633.756912 78.617071 
L 634.090461 131.421088 
L 634.42401 161.914142 
L 634.757559 96.330879 
L 635.091108 99.28318 
L 635.424658 88.31749 
L 635.758207 90.848033 
L 636.091756 98.481841 
L 636.425305 157.991799 
L 636.758854 185.321674 
L 637.092403 119.907113 
L 637.425953 100.801506 
L 637.759502 107.591799 
L 638.093051 104.302092 
L 638.4266 106.2 
L 638.760149 153.73205 
L 639.093699 180.344937 
L 639.427248 120.455397 
L 639.760797 112.273305 
L 640.094346 107.507448 
L 640.761445 125.558661 
L 641.094994 176.802176 
L 641.428543 204.933389 
L 641.762092 143.272469 
L 642.429191 130.155816 
L 642.76274 129.81841 
L 643.096289 125.811715 
L 643.429838 164.739916 
L 643.763387 180.935397 
L 644.096936 131.631967 
L 644.430486 129.565356 
L 645.097584 146.22477 
L 645.431133 144.073808 
L 645.764682 189.876653 
L 646.098232 211.259749 
L 646.431781 163.095063 
L 646.76533 158.919665 
L 647.098879 160.522343 
L 647.432428 145.718661 
L 647.765978 154.364686 
L 648.099527 203.119833 
L 648.433076 221.634979 
L 648.766625 161.154979 
L 649.100174 151.960669 
L 649.433724 132.138075 
L 649.767273 143.694226 
L 650.100822 228.130042 
L 650.434371 226.991297 
L 650.76792 238.716151 
L 651.101469 156.684351 
L 651.435019 139.181423 
L 651.768568 149.38795 
L 652.102117 145.549958 
L 652.435666 152.508954 
L 652.769215 207.843515 
L 653.102765 235.004686 
L 653.436314 164.10728 
L 653.769863 155.503431 
L 654.103412 153.774226 
L 654.436961 151.032803 
L 654.770511 162.3359 
L 655.437609 256.683013 
L 655.771158 181.314979 
L 656.438257 162.420251 
L 657.105355 160.901925 
L 657.438904 210.45841 
L 657.772453 242.554142 
L 658.106002 183.38159 
L 658.439552 179.290544 
L 658.773101 172.078494 
L 659.10665 156.220418 
L 659.440199 150.104937 
L 660.107298 226.105607 
L 660.440847 159.004017 
L 660.774396 171.277155 
L 661.107945 162.884184 
L 661.441494 172.668954 
L 661.775044 253.772887 
L 662.108593 269.841841 
L 662.442142 300.756653 
L 662.775691 300.672301 
L 663.10924 187.852218 
L 663.44279 175.115146 
L 664.109888 177.856569 
L 664.776986 248.711799 
L 665.110535 185.616904 
L 665.444085 175.579079 
L 665.777634 263.43113 
L 666.111183 202.487197 
L 666.444732 186.755649 
L 666.778281 219.821423 
L 667.111831 231.630628 
L 667.44538 158.540084 
L 667.778929 169.210544 
L 668.112478 176.296067 
L 668.446027 150.653222 
L 668.779577 172.795481 
L 669.113126 228.636151 
L 669.446675 249.89272 
L 669.780224 186.291715 
L 670.113773 155.71431 
L 670.447323 146.941757 
L 671.114421 171.403682 
L 671.44797 230.744937 
L 671.781519 255.923849 
L 672.115068 195.992134 
L 672.782167 172.584603 
L 673.115716 176.422594 
L 673.449265 187.683515 
L 673.782814 242.258912 
L 674.116364 267.817406 
L 674.449913 196.076485 
L 675.45056 172.373724 
L 675.78411 195.486025 
L 676.117659 245.211213 
L 676.451208 266.214728 
L 676.784757 200.96887 
L 677.118306 183.67682 
L 677.451856 178.868787 
L 677.785405 179.712301 
L 678.118954 181.061925 
L 678.786052 281.693222 
L 679.119601 271.571046 
L 679.453151 169.168368 
L 679.7867 137.410042 
L 680.120249 121.341088 
L 680.453798 120.539749 
L 680.787347 172.500251 
L 681.120897 206.11431 
L 681.454446 162.884184 
L 681.787995 147.996151 
L 682.121544 138.422259 
L 682.455093 139.982762 
L 682.788643 145.63431 
L 683.455741 233.823766 
L 683.78929 164.40251 
L 684.456389 112.52636 
L 684.789938 105.356485 
L 685.457036 212.103264 
L 685.790585 228.256569 
L 686.124134 135.301255 
L 686.457684 117.16569 
L 686.791233 136.608703 
L 687.124782 148.375732 
L 687.458331 154.364686 
L 687.79188 200.884519 
L 688.12543 226.653891 
L 688.458979 183.634644 
L 688.792528 174.651213 
L 689.126077 180.682343 
L 689.459626 176.886527 
L 689.793176 182.959833 
L 690.460274 266.973891 
L 690.793823 210.45841 
L 691.127372 197.004351 
L 691.460922 194.305105 
L 691.794471 189.370544 
L 692.12802 189.370544 
L 692.461569 228.467448 
L 692.795118 247.91046 
L 693.128667 186.333891 
L 693.462217 171.319331 
L 693.795766 171.825439 
L 694.129315 165.667782 
L 694.462864 169.25272 
L 694.796413 233.739414 
L 695.129963 264.822929 
L 695.463512 205.566025 
L 695.797061 182.116318 
L 696.13061 170.13841 
L 696.797709 193.16636 
L 697.131258 255.164686 
L 697.464807 285.109456 
L 697.798356 212.778075 
L 698.131905 184.731213 
L 698.465455 170.349289 
L 698.799004 176.000837 
L 699.132553 172.331548 
L 699.466102 190.340586 
L 699.799651 226.27431 
L 700.1332 150.906276 
L 700.46675 164.318159 
L 700.800299 190.804519 
L 701.133848 201.685858 
L 701.467397 203.162008 
L 701.800946 245.928201 
L 702.134496 266.552134 
L 702.468045 255.038159 
L 702.801594 266.299079 
L 703.135143 192.280669 
L 703.468692 173.976402 
L 703.802242 161.914142 
L 704.46934 223.237657 
L 704.802889 159.974059 
L 705.136438 141.332385 
L 705.469988 133.023766 
L 705.803537 129.987113 
L 706.137086 132.855063 
L 706.470635 191.985439 
L 706.804184 220.496234 
L 707.137733 163.010711 
L 707.804832 184.689038 
L 708.138381 180.640167 
L 708.47193 182.79113 
L 708.805479 228.931381 
L 709.139029 258.032636 
L 709.472578 191.943264 
L 709.806127 194.389456 
L 710.473225 176.338243 
L 710.806775 180.21841 
L 711.140324 231.925858 
L 711.473873 263.43113 
L 711.807422 189.497071 
L 712.140971 172.162845 
L 712.474521 186.502594 
L 712.80807 180.387113 
L 713.141619 183.002008 
L 713.475168 231.124519 
L 713.808717 254.995983 
L 714.142267 175.663431 
L 714.475816 167.650042 
L 714.809365 162.799833 
L 715.142914 170.981925 
L 715.476463 186.376067 
L 716.143562 249.302259 
L 716.477111 185.701255 
L 716.81066 179.585774 
L 717.477758 160.733222 
L 717.811308 166.553473 
L 718.478406 233.823766 
L 718.811955 169.885356 
L 719.145504 152.677657 
L 719.479054 156.515649 
L 719.812603 146.604351 
L 720.146152 164.992971 
L 720.479701 209.235314 
L 720.81325 233.950293 
L 721.1468 173.259414 
L 721.813898 154.449038 
L 722.147447 155.208201 
L 722.480996 158.497908 
L 722.814545 207.042176 
L 723.148095 235.679498 
L 723.481644 174.693389 
L 723.815193 168.662259 
L 724.148742 247.404351 
L 724.482291 183.67682 
L 724.815841 165.920837 
L 725.14939 210.922343 
L 725.482939 217.248703 
L 725.816488 162.462427 
L 726.150037 133.27682 
L 726.483587 132.602008 
L 726.817136 141.838494 
L 727.150685 232.178912 
L 727.484234 218.134393 
L 727.817783 225.641674 
L 728.151333 151.074979 
L 728.484882 134.879498 
L 728.818431 138.801841 
L 729.15198 133.529874 
L 729.485529 137.452218 
L 729.819078 186.713473 
L 730.152628 204.13205 
L 730.486177 152.424603 
L 730.819726 121.509791 
L 731.486824 129.312301 
L 731.820374 128.63749 
L 732.153923 185.279498 
L 732.487472 218.471799 
L 732.821021 150.779749 
L 733.48812 120.6241 
L 733.821669 131.083682 
L 734.155218 132.68636 
L 734.488767 179.838828 
L 734.822316 204.72251 
L 735.155866 137.114812 
L 735.489415 123.660753 
L 735.822964 118.684017 
L 736.156513 117.587448 
L 736.490062 129.059247 
L 736.823611 177.139582 
L 737.157161 187.852218 
L 737.49071 97.343096 
L 737.824259 92.282008 
L 738.157808 55.8 
L 738.824907 66.723515 
L 739.492005 165.625607 
L 739.825554 101.8559 
L 740.159103 97.807029 
L 740.492653 103.289874 
L 740.826202 84.774728 
L 741.159751 98.102259 
L 741.826849 181.146276 
L 742.160399 130.577573 
L 742.827497 149.97841 
L 743.161046 146.22477 
L 743.494595 171.150628 
L 743.828144 226.232134 
L 744.161694 217.796987 
L 744.495243 204.638159 
L 745.162341 273.468954 
L 745.49589 273.2159 
L 745.82944 238.547448 
L 746.162989 228.804854 
L 746.496538 225.683849 
L 746.830087 207.632636 
L 747.163636 216.236485 
L 747.163636 216.236485 
" clip-path="url(#pbcd4dc781c)" style="fill: none; stroke: #1f77b4; stroke-width: 1.5; stroke-linecap: square"/>
   </g>
   <g id="patch_3">
    <path d="M 108 320.4 
L 108 43.2 
" style="fill: none; stroke: #000000; stroke-width: 0.8; stroke-linejoin: miter; stroke-linecap: square"/>
   </g>
   <g id="patch_4">
    <path d="M 777.6 320.4 
L 777.6 43.2 
" style="fill: none; stroke: #000000; stroke-width: 0.8; stroke-linejoin: miter; stroke-linecap: square"/>
   </g>
   <g id="patch_5">
    <path d="M 108 320.4 
L 777.6 320.4 
" style="fill: none; stroke: #000000; stroke-width: 0.8; stroke-linejoin: miter; stroke-linecap: square"/>
   </g>
   <g id="patch_6">
    <path d="M 108 43.2 
L 777.6 43.2 
" style="fill: none; stroke: #000000; stroke-width: 0.8; stroke-linejoin: miter; stroke-linecap: square"/>
   </g>
   <g id="text_15">
    <!-- Teljes bruttó villamosenergia-felhasználás Magyarországon 2015-2019 -->
    <g transform="translate(231.0225 37.2) scale(0.12 -0.12)">
     <defs>
      <path id="DejaVuSans-54" d="M -19 4666 
L 3928 4666 
L 3928 4134 
L 2272 4134 
L 2272 0 
L 1638 0 
L 1638 4134 
L -19 4134 
L -19 4666 
z
" transform="scale(0.015625)"/>
      <path id="DejaVuSans-6c" d="M 603 4863 
L 1178 4863 
L 1178 0 
L 603 0 
L 603 4863 
z
" transform="scale(0.015625)"/>
      <path id="DejaVuSans-6a" d="M 603 3500 
L 1178 3500 
L 1178 -63 
Q 1178 -731 923 -1031 
Q 669 -1331 103 -1331 
L -116 -1331 
L -116 -844 
L 38 -844 
Q 366 -844 484 -692 
Q 603 -541 603 -63 
L 603 3500 
z
M 603 4863 
L 1178 4863 
L 1178 4134 
L 603 4134 
L 603 4863 
z
" transform="scale(0.015625)"/>
      <path id="DejaVuSans-62" d="M 3116 1747 
Q 3116 2381 2855 2742 
Q 2594 3103 2138 3103 
Q 1681 3103 1420 2742 
Q 1159 2381 1159 1747 
Q 1159 1113 1420 752 
Q 1681 391 2138 391 
Q 2594 391 2855 752 
Q 3116 1113 3116 1747 
z
M 1159 2969 
Q 1341 3281 1617 3432 
Q 1894 3584 2278 3584 
Q 2916 3584 3314 3078 
Q 3713 2572 3713 1747 
Q 3713 922 3314 415 
Q 2916 -91 2278 -91 
Q 1894 -91 1617 61 
Q 1341 213 1159 525 
L 1159 0 
L 581 0 
L 581 4863 
L 1159 4863 
L 1159 2969 
z
" transform="scale(0.015625)"/>
      <path id="DejaVuSans-75" d="M 544 1381 
L 544 3500 
L 1119 3500 
L 1119 1403 
Q 1119 906 1312 657 
Q 1506 409 1894 409 
Q 2359 409 2629 706 
Q 2900 1003 2900 1516 
L 2900 3500 
L 3475 3500 
L 3475 0 
L 2900 0 
L 2900 538 
Q 2691 219 2414 64 
Q 2138 -91 1772 -91 
Q 1169 -91 856 284 
Q 544 659 544 1381 
z
M 1991 3584 
L 1991 3584 
z
" transform="scale(0.015625)"/>
      <path id="DejaVuSans-f3" d="M 1959 3097 
Q 1497 3097 1228 2736 
Q 959 2375 959 1747 
Q 959 1119 1226 758 
Q 1494 397 1959 397 
Q 2419 397 2687 759 
Q 2956 1122 2956 1747 
Q 2956 2369 2687 2733 
Q 2419 3097 1959 3097 
z
M 1959 3584 
Q 2709 3584 3137 3096 
Q 3566 2609 3566 1747 
Q 3566 888 3137 398 
Q 2709 -91 1959 -91 
Q 1206 -91 779 398 
Q 353 888 353 1747 
Q 353 2609 779 3096 
Q 1206 3584 1959 3584 
z
M 2394 5119 
L 3016 5119 
L 1998 3944 
L 1519 3944 
L 2394 5119 
z
" transform="scale(0.015625)"/>
      <path id="DejaVuSans-6d" d="M 3328 2828 
Q 3544 3216 3844 3400 
Q 4144 3584 4550 3584 
Q 5097 3584 5394 3201 
Q 5691 2819 5691 2113 
L 5691 0 
L 5113 0 
L 5113 2094 
Q 5113 2597 4934 2840 
Q 4756 3084 4391 3084 
Q 3944 3084 3684 2787 
Q 3425 2491 3425 1978 
L 3425 0 
L 2847 0 
L 2847 2094 
Q 2847 2600 2669 2842 
Q 2491 3084 2119 3084 
Q 1678 3084 1418 2786 
Q 1159 2488 1159 1978 
L 1159 0 
L 581 0 
L 581 3500 
L 1159 3500 
L 1159 2956 
Q 1356 3278 1631 3431 
Q 1906 3584 2284 3584 
Q 2666 3584 2933 3390 
Q 3200 3197 3328 2828 
z
" transform="scale(0.015625)"/>
      <path id="DejaVuSans-2d" d="M 313 2009 
L 1997 2009 
L 1997 1497 
L 313 1497 
L 313 2009 
z
" transform="scale(0.015625)"/>
      <path id="DejaVuSans-4d" d="M 628 4666 
L 1569 4666 
L 2759 1491 
L 3956 4666 
L 4897 4666 
L 4897 0 
L 4281 0 
L 4281 4097 
L 3078 897 
L 2444 897 
L 1241 4097 
L 1241 0 
L 628 0 
L 628 4666 
z
" transform="scale(0.015625)"/>
     </defs>
     <use xlink:href="#DejaVuSans-54"/>
     <use xlink:href="#DejaVuSans-65" transform="translate(44.083984 0)"/>
     <use xlink:href="#DejaVuSans-6c" transform="translate(105.607422 0)"/>
     <use xlink:href="#DejaVuSans-6a" transform="translate(133.390625 0)"/>
     <use xlink:href="#DejaVuSans-65" transform="translate(161.173828 0)"/>
     <use xlink:href="#DejaVuSans-73" transform="translate(222.697266 0)"/>
     <use xlink:href="#DejaVuSans-20" transform="translate(274.796875 0)"/>
     <use xlink:href="#DejaVuSans-62" transform="translate(306.583984 0)"/>
     <use xlink:href="#DejaVuSans-72" transform="translate(370.060547 0)"/>
     <use xlink:href="#DejaVuSans-75" transform="translate(411.173828 0)"/>
     <use xlink:href="#DejaVuSans-74" transform="translate(474.552734 0)"/>
     <use xlink:href="#DejaVuSans-74" transform="translate(513.761719 0)"/>
     <use xlink:href="#DejaVuSans-f3" transform="translate(552.970703 0)"/>
     <use xlink:href="#DejaVuSans-20" transform="translate(614.152344 0)"/>
     <use xlink:href="#DejaVuSans-76" transform="translate(645.939453 0)"/>
     <use xlink:href="#DejaVuSans-69" transform="translate(705.119141 0)"/>
     <use xlink:href="#DejaVuSans-6c" transform="translate(732.902344 0)"/>
     <use xlink:href="#DejaVuSans-6c" transform="translate(760.685547 0)"/>
     <use xlink:href="#DejaVuSans-61" transform="translate(788.46875 0)"/>
     <use xlink:href="#DejaVuSans-6d" transform="translate(849.748047 0)"/>
     <use xlink:href="#DejaVuSans-6f" transform="translate(947.160156 0)"/>
     <use xlink:href="#DejaVuSans-73" transform="translate(1008.341797 0)"/>
     <use xlink:href="#DejaVuSans-65" transform="translate(1060.441406 0)"/>
     <use xlink:href="#DejaVuSans-6e" transform="translate(1121.964844 0)"/>
     <use xlink:href="#DejaVuSans-65" transform="translate(1185.34375 0)"/>
     <use xlink:href="#DejaVuSans-72" transform="translate(1246.867188 0)"/>
     <use xlink:href="#DejaVuSans-67" transform="translate(1286.230469 0)"/>
     <use xlink:href="#DejaVuSans-69" transform="translate(1349.707031 0)"/>
     <use xlink:href="#DejaVuSans-61" transform="translate(1377.490234 0)"/>
     <use xlink:href="#DejaVuSans-2d" transform="translate(1438.769531 0)"/>
     <use xlink:href="#DejaVuSans-66" transform="translate(1474.853516 0)"/>
     <use xlink:href="#DejaVuSans-65" transform="translate(1510.058594 0)"/>
     <use xlink:href="#DejaVuSans-6c" transform="translate(1571.582031 0)"/>
     <use xlink:href="#DejaVuSans-68" transform="translate(1599.365234 0)"/>
     <use xlink:href="#DejaVuSans-61" transform="translate(1662.744141 0)"/>
     <use xlink:href="#DejaVuSans-73" transform="translate(1724.023438 0)"/>
     <use xlink:href="#DejaVuSans-7a" transform="translate(1776.123047 0)"/>
     <use xlink:href="#DejaVuSans-6e" transform="translate(1828.613281 0)"/>
     <use xlink:href="#DejaVuSans-e1" transform="translate(1891.992188 0)"/>
     <use xlink:href="#DejaVuSans-6c" transform="translate(1953.271484 0)"/>
     <use xlink:href="#DejaVuSans-e1" transform="translate(1981.054688 0)"/>
     <use xlink:href="#DejaVuSans-73" transform="translate(2042.333984 0)"/>
     <use xlink:href="#DejaVuSans-20" transform="translate(2094.433594 0)"/>
     <use xlink:href="#DejaVuSans-4d" transform="translate(2126.220703 0)"/>
     <use xlink:href="#DejaVuSans-61" transform="translate(2212.5 0)"/>
     <use xlink:href="#DejaVuSans-67" transform="translate(2273.779297 0)"/>
     <use xlink:href="#DejaVuSans-79" transform="translate(2337.255859 0)"/>
     <use xlink:href="#DejaVuSans-61" transform="translate(2396.435547 0)"/>
     <use xlink:href="#DejaVuSans-72" transform="translate(2457.714844 0)"/>
     <use xlink:href="#DejaVuSans-6f" transform="translate(2496.578125 0)"/>
     <use xlink:href="#DejaVuSans-72" transform="translate(2557.759766 0)"/>
     <use xlink:href="#DejaVuSans-73" transform="translate(2598.873047 0)"/>
     <use xlink:href="#DejaVuSans-7a" transform="translate(2650.972656 0)"/>
     <use xlink:href="#DejaVuSans-e1" transform="translate(2703.462891 0)"/>
     <use xlink:href="#DejaVuSans-67" transform="translate(2764.742188 0)"/>
     <use xlink:href="#DejaVuSans-6f" transform="translate(2828.21875 0)"/>
     <use xlink:href="#DejaVuSans-6e" transform="translate(2889.400391 0)"/>
     <use xlink:href="#DejaVuSans-20" transform="translate(2952.779297 0)"/>
     <use xlink:href="#DejaVuSans-32" transform="translate(2984.566406 0)"/>
     <use xlink:href="#DejaVuSans-30" transform="translate(3048.189453 0)"/>
     <use xlink:href="#DejaVuSans-31" transform="translate(3111.8125 0)"/>
     <use xlink:href="#DejaVuSans-35" transform="translate(3175.435547 0)"/>
     <use xlink:href="#DejaVuSans-2d" transform="translate(3239.058594 0)"/>
     <use xlink:href="#DejaVuSans-32" transform="translate(3275.142578 0)"/>
     <use xlink:href="#DejaVuSans-30" transform="translate(3338.765625 0)"/>
     <use xlink:href="#DejaVuSans-31" transform="translate(3402.388672 0)"/>
     <use xlink:href="#DejaVuSans-39" transform="translate(3466.011719 0)"/>
    </g>
   </g>
  </g>
 </g>
 <defs>
  <clipPath id="pbcd4dc781c">
   <rect x="108" y="43.2" width="669.6" height="277.2"/>
  </clipPath>
 </defs>
</svg>
